<svg width="44" height="65" viewBox="0 0 44 65" fill="none" xmlns="http://www.w3.org/2000/svg">
<path d="M15.8131 43.0639C15.9263 44.4778 15.8328 45.8918 15.5058 47.2836C14.8197 50.0647 15.0705 56.3204 15.2033 58.9221C15.2402 59.709 15.0705 60.4762 14.7263 61.1622L14.2713 62.0499C13.4107 63.4639 14.4238 63.4639 14.4238 63.4639H16.6738C17.1287 63.4639 17.5123 63.0385 17.4926 62.5368C17.3599 58.7819 17.7779 56.0204 17.9894 54.9483C18.0459 54.6286 18.159 54.368 18.2746 54.0606C18.9804 52.2459 19.0935 48.6311 19.1131 47.2639C19.1131 46.959 19.1697 46.6565 19.2656 46.3565C19.7574 44.8639 20.1607 43.4942 20.4926 42.2549H15.7492C15.7738 42.5352 15.7959 42.8057 15.8205 43.0614L15.8131 43.0639Z" stroke="#004976" stroke-width="1.35492" stroke-miterlimit="10"/>
<path d="M29.5541 61.1647C29.2074 60.4786 29.0377 59.7114 29.0771 58.9245C29.2099 56.3229 29.4607 50.0671 28.7746 47.286C28.4476 45.8917 28.3541 44.4778 28.4672 43.0663C28.4918 42.8106 28.514 42.5401 28.5385 42.2598H23.7951C24.1271 43.4991 24.5279 44.8663 25.0222 46.3614C25.1181 46.6614 25.1746 46.9639 25.1746 47.2688C25.1943 48.6384 25.3074 52.2507 26.0131 54.0655C26.1263 54.3704 26.2394 54.6311 26.2984 54.9532C26.5123 56.0253 26.9279 58.7868 26.7951 62.5417C26.7754 63.0433 27.159 63.4688 27.614 63.4688H29.864C29.864 63.4688 30.8771 63.4688 30.0164 62.0548L29.5615 61.1671L29.5541 61.1647Z" stroke="#004976" stroke-width="1.35492" stroke-miterlimit="10"/>
<path d="M15.5819 39.2498H21.2057C21.3655 38.4777 21.4983 37.7818 21.5991 37.1597H15.5573C15.5475 37.8777 15.5573 38.5736 15.5819 39.2498Z" stroke="#004976" stroke-width="1.35492" stroke-miterlimit="10"/>
<path d="M23.0721 39.2498H28.6959C28.7205 38.5736 28.7279 37.8752 28.7205 37.1597H22.6787C22.7771 37.7818 22.9098 38.4777 23.0721 39.2498Z" stroke="#004976" stroke-width="1.35492" stroke-miterlimit="10"/>
<path d="M42.5696 40.0024H1.71065C1.31721 40.0024 1 40.3393 1 40.7549C1 41.1705 1.31721 41.5074 1.71065 41.5074H42.5696C42.9606 41.5074 43.2803 41.1705 43.2803 40.7549C43.2803 40.3393 42.9631 40.0024 42.5696 40.0024V40.0024Z" stroke="#004976" stroke-width="0.34918" stroke-miterlimit="10"/>
<path d="M1.71092 36.6605H42.5699C42.8305 36.6605 43.0445 36.4367 43.0445 36.1589C43.0445 35.881 42.833 35.6572 42.5699 35.6572H1.71092C1.45026 35.6572 1.23633 35.881 1.23633 36.1589C1.23633 36.4367 1.4478 36.6605 1.71092 36.6605Z" stroke="#004976" stroke-width="0.34918" stroke-miterlimit="10"/>
<path d="M1.7107 31.5629H2.89349C3.02382 31.5629 3.12955 31.4498 3.12955 31.3121C3.12955 31.1744 3.02382 31.0613 2.89349 31.0613H1.7107C1.58038 31.0613 1.47464 31.1744 1.47464 31.3121C1.47464 31.4498 1.58038 31.5629 1.7107 31.5629Z" stroke="#004976" stroke-width="0.34918" stroke-miterlimit="10"/>
<path d="M29.7488 31.0613C29.6184 31.0613 29.5127 31.1744 29.5127 31.3121C29.5127 31.4498 29.6184 31.5629 29.7488 31.5629H31.9865C32.1168 31.5629 32.2225 31.4498 32.2225 31.3121C32.2225 31.1744 32.1168 31.0613 31.9865 31.0613H29.7488Z" stroke="#004976" stroke-width="0.34918" stroke-miterlimit="10"/>
<path d="M35.5663 31.75H35.9032C35.7753 31.9663 35.5491 32.136 35.1729 32.2319C34.5065 32.3918 34.1081 32.2713 33.8573 32.0303C33.6876 31.8704 33.5721 31.6442 33.5352 31.4426C33.5352 31.1426 33.5155 30.8967 33.4786 30.6557C33.4417 30.2352 33.3458 29.9082 33.2696 29.6475C33.1319 29.2811 32.9425 28.9418 32.7163 28.6393C30.5991 25.7918 29.7999 23.8172 29.5147 22.6639C29.2073 21.5352 28.7893 20.4631 28.3491 19.3959C27.8991 18.309 27.7196 17.5123 27.6483 16.991C27.6286 16.8262 27.4073 16.7942 27.3606 16.9565C26.4139 19.9639 26.8221 24.2942 27.1245 26.527C27.2991 27.2795 27.4737 28.027 27.6508 28.777C28.2655 30.6508 28.5606 32.9032 28.6688 35.1532H22.4106C22.2876 33.9606 22.3073 33.3582 22.3073 33.3582H21.9753C21.9753 33.3582 21.995 33.9606 21.8721 35.1532H15.6139C15.7221 32.9032 16.0172 30.6508 16.6319 28.777C16.8065 28.0246 16.9811 27.277 17.1581 26.527C17.4606 24.2967 17.8688 19.9664 16.9221 16.9565C16.8754 16.7967 16.6516 16.8262 16.6344 16.991C16.5631 17.5123 16.3836 18.309 15.9336 19.3959C15.4934 20.4631 15.0778 21.5352 14.768 22.6639C14.4852 23.8172 13.6836 25.7918 11.5663 28.6393C11.3401 28.9393 11.1508 29.2811 11.0131 29.6475C10.9368 29.9082 10.8434 30.2352 10.804 30.6557C10.804 30.6557 10.8606 31.0418 10.7475 31.4426C10.7106 31.6442 10.595 31.868 10.4254 32.0303C10.1745 32.2713 9.77618 32.3918 9.10979 32.2319C8.73602 32.136 8.50733 31.9663 8.37946 31.75H8.71635C8.94258 31.75 9.13192 31.5532 9.13192 31.3147C9.13192 31.0762 8.94258 30.8745 8.71635 30.8745H8.27618C8.40897 30.1418 8.92536 29.3647 9.07045 29.1655C9.09012 29.1262 9.10733 29.1065 9.10733 29.1065C9.50569 28.2188 10.4622 26.0598 10.745 24.609C11.0303 23.2147 11.527 21.8426 12.4393 20.8147C12.459 20.7951 12.4762 20.7951 12.4959 20.7754C12.7467 20.4901 12.936 20.168 13.0122 19.809C13.2581 18.7959 13.718 16.6615 13.8311 14.9869C13.9639 12.9459 15.3926 11.4139 17.4163 11.1115C17.4163 11.1115 18.9975 9.91884 20.1016 9.81802L20.4286 7.63688C20.4286 7.63688 19.7622 6.54999 19.7032 5.82212C19.7032 5.82212 18.8844 5.23442 19.7032 4.14754C19.7032 4.14754 19.1499 1.28525 22.1426 1C25.1352 1.28525 24.5819 4.14754 24.5819 4.14754C25.4008 5.23442 24.5819 5.82212 24.5819 5.82212C24.5253 6.54999 23.8565 7.63688 23.8565 7.63688L24.1835 9.81802C25.2876 9.91884 26.8688 11.1115 26.8688 11.1115C28.8901 11.4115 30.3212 12.9459 30.454 14.9869C30.5671 16.6615 31.027 18.7959 31.2729 19.809C31.3491 20.1705 31.5384 20.4901 31.7893 20.7754C31.8089 20.7951 31.8262 20.7951 31.8458 20.8147C32.7606 21.8426 33.2573 23.2147 33.5401 24.609C33.8229 26.0573 34.7794 28.2188 35.1778 29.1065C35.1778 29.1065 35.1975 29.1262 35.2147 29.1655C35.3622 29.3672 35.8786 30.1442 36.0089 30.8745H35.5688C35.3425 30.8745 35.1532 31.0713 35.1532 31.3147C35.1532 31.5582 35.3425 31.75 35.5688 31.75H35.5663Z" stroke="#004976" stroke-width="1.35492" stroke-miterlimit="10"/>
<path d="M14.5324 31.0613H12.2947C12.1643 31.0613 12.0586 31.1744 12.0586 31.3121C12.0586 31.4498 12.1643 31.5629 12.2947 31.5629H14.5324C14.6627 31.5629 14.7684 31.4498 14.7684 31.3121C14.7684 31.1744 14.6627 31.0613 14.5324 31.0613Z" stroke="#004976" stroke-width="0.34918" stroke-miterlimit="10"/>
<path d="M37.804 31.0613H35.5663C35.436 31.0613 35.3302 31.1744 35.3302 31.3121C35.3302 31.4498 35.436 31.5629 35.5663 31.5629H37.804C37.9343 31.5629 38.0401 31.4498 38.0401 31.3121C38.0401 31.1744 37.9343 31.0613 37.804 31.0613Z" stroke="#004976" stroke-width="0.34918" stroke-miterlimit="10"/>
<path d="M8.71107 31.0613H6.47337C6.34304 31.0613 6.2373 31.1744 6.2373 31.3121C6.2373 31.4498 6.34304 31.5629 6.47337 31.5629H8.71107C8.8414 31.5629 8.94714 31.4498 8.94714 31.3121C8.94714 31.1744 8.8414 31.0613 8.71107 31.0613Z" stroke="#004976" stroke-width="0.34918" stroke-miterlimit="10"/>
<path d="M41.3844 31.5629H42.5672C42.6975 31.5629 42.8032 31.4498 42.8032 31.3121C42.8032 31.1744 42.6975 31.0613 42.5672 31.0613H41.3844C41.2541 31.0613 41.1483 31.1744 41.1483 31.3121C41.1483 31.4498 41.2541 31.5629 41.3844 31.5629V31.5629Z" stroke="#004976" stroke-width="0.34918" stroke-miterlimit="10"/>
</svg>
