<svg width="57" height="57" viewBox="0 0 57 57" fill="none" xmlns="http://www.w3.org/2000/svg">
<path d="M40.3308 10.5117C40.3308 10.5117 41.9741 10.6625 42.7674 10.5117C42.7674 10.5117 44.5787 10.3066 45.6759 10.5784L49.6025 10.9466H50.0176C50.0176 10.9466 51.2458 10.1905 52.0563 10.23H53.4154L55.0958 10.3808L55.3232 10.4574C55.3232 10.4574 55.852 10.702 55.3232 10.7984L53.4723 10.8552L53.3586 10.9491L53.4896 11.043L55.5554 11.1938C55.5554 11.1938 56.1683 11.4013 55.5554 11.5348L53.3191 11.6484L53.282 11.7621L55.0192 11.9499C55.0192 11.9499 55.7556 12.2341 55.039 12.2909H53.151V12.3848L54.2828 12.5356C54.2828 12.5356 54.7548 12.6863 54.3026 12.7802L52.81 12.8741C52.81 12.8741 51.829 13.0051 50.4872 12.6097L49.1478 12.6468C49.1478 12.6468 45.6932 13.1954 43.9189 13.2497H40.6719L39.4437 13.3436C39.4437 13.3436 35.4635 13.6047 34.5566 13.2266" stroke="#BD9B60" stroke-miterlimit="10"/>
<path d="M16.8856 10.46L15.5209 10.6229L14.6906 10.5463C14.6906 10.5463 13.3512 10.3017 10.9715 10.5463C10.9715 10.5463 8.49795 10.8676 7.68742 10.9244C7.68742 10.9244 6.98809 11.0554 6.40243 10.6797C6.40243 10.6797 5.87361 10.1929 4.66523 10.2572L1.68258 10.4351C1.68258 10.4351 1.07963 10.6056 1.68258 10.8132L3.49392 10.87L3.53098 11.0578L1.30203 11.1888C1.30203 11.1888 0.622467 11.3766 1.30203 11.5842H3.54828L3.62489 11.7349L1.83085 11.9623C1.83085 11.9623 1.37863 12.1896 1.88768 12.2637H3.77562L3.81269 12.3947L2.66115 12.5454C2.66115 12.5454 2.05819 12.6591 2.64138 12.8296H3.49144C3.49144 12.8296 5.87114 12.7728 6.11578 12.6591C6.11578 12.6591 6.36042 12.4886 7.5688 12.6394L9.24917 12.9235C9.24917 12.9235 13.5168 13.3757 16.0645 13.225L17.0283 13.2547C17.0283 13.2547 20.8211 13.4326 21.9726 12.9235" stroke="#BD9B60" stroke-miterlimit="10"/>
<path d="M23.5668 35.3594L23.9572 39.9823C23.9572 39.9823 23.8732 40.9609 23.5668 42.105C23.5668 42.105 22.7859 43.558 23.3987 46.8545L24.1796 50.8207L24.3205 51.9945V52.7753L24.1524 53.1658C24.1524 53.1658 23.9004 53.4178 24.2093 53.9763L24.014 55.2341L24.0981 55.8766H26.8064C26.8064 55.8766 27.2809 55.8766 27.0288 55.2341C27.0288 55.2341 26.7496 54.9549 26.3591 54.0603L26.1639 51.268L26.7224 45.5424L26.7496 43.0712C26.7496 43.0712 26.6087 42.4708 27.2512 40.9065C27.2512 40.9065 27.6145 40.4864 27.5576 37.2765L27.9209 34.316C27.9209 34.316 28.5906 32.5564 27.9209 28.9337H28.7289C28.7289 28.9337 28.1705 30.3227 28.7289 33.98L28.9513 37.6669C28.9513 37.6669 29.3418 40.7385 28.9513 42.3867C28.9513 42.3867 28.3089 45.0679 28.8945 47.0522C28.8945 47.0522 29.8731 52.1081 29.453 53.3363C29.453 53.3363 28.7265 54.4532 29.0329 55.1526C29.0329 55.1526 29.2849 55.9335 30.1227 55.8791C30.1227 55.8791 31.4645 55.2712 32.831 55.8816C32.831 55.8816 34.8153 56.2423 35.401 55.627C35.401 55.627 35.7642 55.2366 34.9265 55.1254C34.9265 55.1254 33.2783 54.6509 31.9389 53.3091C31.9389 53.3091 31.5757 53.2819 31.7165 52.207L32.023 46.857L32.4134 40.3777C32.4134 40.3777 33.0457 36.8577 33.5745 35.6271" stroke="#BD9B60" stroke-miterlimit="10"/>
<path d="M16.7414 10.3955C16.7414 10.3955 14.6904 9.26619 14.1542 9.17722C14.1542 9.17722 11.8362 8.22584 10.3783 7.15584C10.3783 7.15584 8.09002 5.54961 7.34621 5.60892C7.34621 5.60892 6.88658 5.56444 6.13289 5.29014C6.13289 5.29014 4.53901 4.74402 3.84957 4.27451C3.84957 4.27451 3.70872 4.01257 3.91629 4.06694L5.16174 4.32887C5.16174 4.32887 4.51677 3.92361 3.36029 3.55294C3.36029 3.55294 3.05387 3.24652 3.43689 3.28112C3.43689 3.28112 5.30506 3.72839 5.33719 3.69627C5.36931 3.66414 3.12059 2.64851 3.12059 2.64851C3.12059 2.64851 2.77216 2.34209 3.20708 2.34209L5.1395 2.93269L5.47804 2.96481L5.34707 2.78936L3.68648 1.97142C3.68648 1.97142 3.39241 1.665 3.80756 1.77373C3.80756 1.77373 5.81659 2.25313 6.30834 2.48294C6.30834 2.48294 7.3561 2.6238 8.42609 3.96809C8.42609 3.96809 8.52494 4.44749 11.5496 5.00596C11.5496 5.00596 14.4433 5.46559 15.491 6.51335C15.491 6.51335 16.4301 7.31152 17.4136 7.36589C17.4136 7.36589 18.9086 7.52898 19.2817 7.81316C19.2817 7.81316 20.1664 8.05286 20.9745 7.96637C20.9745 7.96637 23.2454 7.81316 24.1845 8.5891C24.1845 8.5891 26.0848 8.02074 26.28 8.19619C26.28 8.19619 26.9793 7.62783 26.4876 6.58995L26.3245 5.91287C26.3245 5.91287 26.1268 6.0216 25.8994 5.57432L25.6696 5.0282L25.6029 4.7885L25.6251 4.34123L25.6573 4.1559C25.6573 4.1559 25.8105 3.82724 26.0403 4.28687L26.0502 2.91045C26.0502 2.91045 26.0403 1.36105 27.7874 1.08676C27.7874 1.08676 29.5023 0.617244 30.3104 1.86269C30.3104 1.86269 30.943 2.5299 30.8021 4.28687C30.8021 4.28687 31.1629 3.78523 31.2939 4.28687C31.2939 4.28687 31.4792 5.55455 30.5624 5.92522C30.5624 5.92522 30.5525 6.52571 30.2338 6.83213C30.2338 6.83213 30.0707 7.79339 30.6712 8.21843C30.6712 8.21843 32.0575 8.27279 32.4726 8.61134C32.4726 8.61134 34.0344 7.62783 36.6661 8.05533C36.6661 8.05533 39.7575 7.20279 40.0738 7.29175L40.358 7.22503L40.6422 7.07182C40.6422 7.07182 42.0606 5.5422 46.3529 4.83298C46.3529 4.83298 48.2409 4.48456 48.4929 3.92608C48.4929 3.92608 49.2466 2.80172 50.665 2.43105C50.665 2.43105 52.3034 1.92941 52.4443 1.86269L52.8594 1.80833C52.8594 1.80833 53.3734 1.73172 53.0571 2.08015L51.4311 2.88821L51.5942 2.92033C51.5942 2.92033 53.1238 2.58179 53.2968 2.3841C53.2968 2.3841 54.1592 2.15428 53.6452 2.7004L51.6238 3.59495C51.6238 3.59495 51.8314 3.71604 53.0546 3.30089L53.1856 3.23417H53.2943C53.2943 3.23417 53.7095 3.20204 53.5019 3.54058L51.7326 4.28192L51.7869 4.33629L52.8026 4.06446C52.8026 4.06446 53.3388 3.98786 52.9879 4.30416L52.1897 4.67483L51.3916 5.0455L50.9764 5.22095L50.2771 5.42853L49.8076 5.53725L49.4468 5.56938L49.1947 5.61386L48.6165 5.86591L47.8405 6.34531L46.7928 6.93591C46.7928 6.93591 44.1833 8.65088 43.1553 8.9227L40.0219 10.3905L35.3268 11.5322L35.1736 11.7719C35.1736 11.7719 33.634 15.4514 33.7106 15.5824C33.7106 15.5824 32.826 18.1153 32.7939 18.6169C32.7939 18.6169 32.6184 19.0222 32.7074 20.495C32.7074 20.495 33.1991 22.6127 32.9051 23.6728C32.9051 23.6728 32.9718 26.6431 35.1118 28.9265C35.1118 28.9265 36.9676 30.9676 37.3284 33.0434L37.6669 34.4964L37.8646 35.6529C37.8646 35.6529 38.213 37.9238 38.8802 38.7319L40.867 42.488C40.867 42.488 43.2146 47.1609 43.5976 48.1666L43.6965 48.3965C43.6965 48.3965 43.7286 48.7573 44.46 48.8437L45.3225 48.9525C45.3225 48.9525 46.7977 49.1378 47.4946 48.9525L47.843 48.8536L48.0185 48.8314C48.0185 48.8314 48.5325 48.7548 48.3471 48.9624C48.3471 48.9624 46.5136 50.4697 46.1404 50.5562C46.1404 50.5562 44.8727 50.9491 44.3933 51.5397C44.3933 51.5397 43.9559 52.1723 43.2788 52.1946C43.2788 52.1946 42.5375 52.0735 42.3843 51.2556C42.3843 51.2556 42.3942 49.8149 41.643 48.8857C41.643 48.8857 40.1356 46.0687 38.6504 45.0086C38.6504 45.0086 37.4371 44.1684 36.8935 42.4213C36.8935 42.4213 35.7024 38.7097 35.1563 38.2599L33.6266 35.6059C33.6266 35.6059 31.5311 32.6678 30.1868 31.5211C30.1868 31.5211 28.8104 29.9149 28.7239 28.9981L27.9603 28.9759C27.9603 28.9759 27.3154 30.4388 25.808 32.1982L24.6836 33.7377C24.6836 33.7377 22.9909 35.6059 22.4769 37.1776C22.4769 37.1776 21.9407 38.4008 20.6755 39.4609C20.6755 39.4609 20.0429 39.9749 19.8353 40.563C19.8353 40.563 19.3757 43.128 17.7398 44.9418C17.7398 44.9418 15.5133 47.8355 15.1945 48.992C15.1945 48.992 15.0314 49.679 14.6039 49.9632C14.6039 49.9632 14.2876 50.6081 14.3098 50.8701C14.3098 50.8701 14.038 51.646 12.8247 51.7646C12.8247 51.7646 11.4483 51.2951 10.7712 50.618L10.9244 50.4426L11.2531 50.3116C11.2531 50.3116 11.9623 50.2127 12.4985 49.5134C12.4985 49.5134 14.0603 47.5365 14.4754 45.6585C14.4754 45.6585 15.3823 41.7813 16.1681 40.647C16.1681 40.647 18.8147 36.844 18.9358 36.1594C18.9358 36.1594 20.3221 30.634 21.5478 29.4479C21.5478 29.4479 23.799 26.6555 23.878 24.2832C23.878 24.2832 23.9596 24.0831 23.8583 23.3392C23.8583 23.3392 23.9398 21.2487 24.2191 19.9637C24.2191 19.9637 24.3599 19.4003 24.1177 18.7182C24.1177 18.7182 22.551 13.3114 22.1087 13.0915L21.6071 11.6854C21.6071 11.6854 18.444 10.5932 16.739 10.3856L16.7414 10.3955Z" stroke="#BD9B60" stroke-miterlimit="10"/>
</svg>
