<svg width="818" height="745" viewBox="0 0 818 745" fill="none" xmlns="http://www.w3.org/2000/svg">
<path opacity="0.5" d="M698.17 579.593C665.828 624.713 604.179 642.482 530.491 634.581C456.82 626.683 371.233 593.129 291.212 535.77C211.191 478.411 151.927 408.135 120.785 340.904C89.6362 273.658 86.6633 209.567 119.005 164.447C151.347 119.328 212.997 101.559 286.685 109.459C360.355 117.358 445.943 150.911 525.964 208.27C605.985 265.63 665.249 335.906 696.391 403.137C727.539 470.383 730.512 534.473 698.17 579.593Z" stroke="url(#paint0_linear_239_868)"/>
<path opacity="0.5" d="M412.171 728.593C356.65 728.593 306.285 688.815 269.771 624.284C233.266 559.768 210.671 470.606 210.671 372.093C210.671 273.58 233.266 184.418 269.771 119.902C306.285 55.3708 356.65 15.593 412.171 15.593C467.693 15.593 518.058 55.3708 554.572 119.902C591.077 184.418 613.671 273.58 613.671 372.093C613.671 470.606 591.077 559.768 554.572 624.284C518.058 688.815 467.693 728.593 412.171 728.593Z" stroke="url(#paint1_linear_239_868)"/>
<path opacity="0.5" d="M114.102 572.576C82.8539 526.692 87.3658 462.692 120.121 396.213C152.869 329.75 213.804 260.918 295.181 205.498C376.557 150.078 462.926 118.591 536.765 112.464C610.621 106.336 671.826 125.581 703.075 171.465C734.323 217.349 729.811 281.349 697.056 347.828C664.308 414.291 603.373 483.123 521.996 538.543C440.62 593.963 354.251 625.45 280.412 631.577C206.556 637.705 145.351 618.46 114.102 572.576Z" stroke="url(#paint2_linear_239_868)"/>
<path opacity="0.5" d="M51.7152 375.686C50.7223 312.408 89.6337 254.428 153.491 211.855C217.343 169.286 306.082 142.167 404.571 140.621C503.06 139.076 592.605 163.397 657.762 203.943C722.923 244.491 763.635 301.222 764.627 364.5C765.62 427.778 726.709 485.758 662.852 528.331C598.999 570.901 510.261 598.019 411.772 599.565C313.283 601.11 223.737 576.789 158.581 536.244C93.4194 495.695 52.7081 438.964 51.7152 375.686Z" stroke="url(#paint3_linear_239_868)"/>
<circle cx="408.171" cy="600.093" r="6" fill="#BD9B60"/>
<circle cx="606.171" cy="471.093" r="6" fill="#BD9B60"/>
<circle cx="219.171" cy="474.093" r="6" fill="#BD9B60"/>
<circle cx="682" cy="375" r="6" fill="#BD9B60"/>
<circle cx="135.171" cy="370.093" r="6" fill="#BD9B60"/>
<circle cx="607" cy="277" r="6" fill="#BD9B60"/>
<circle cx="220.171" cy="265.093" r="6" fill="#BD9B60"/>
<circle cx="412.171" cy="142.093" r="6" fill="#BD9B60"/>
<defs>
<linearGradient id="paint0_linear_239_868" x1="526.255" y1="207.864" x2="290.921" y2="536.177" gradientUnits="userSpaceOnUse">
<stop stop-color="white"/>
<stop offset="1" stop-color="white" stop-opacity="0.3"/>
</linearGradient>
<linearGradient id="paint1_linear_239_868" x1="614.171" y1="372.093" x2="210.171" y2="372.093" gradientUnits="userSpaceOnUse">
<stop stop-color="white" stop-opacity="0.3"/>
<stop offset="1" stop-color="white"/>
</linearGradient>
<linearGradient id="paint2_linear_239_868" x1="522.278" y1="538.956" x2="294.899" y2="205.085" gradientUnits="userSpaceOnUse">
<stop stop-color="white"/>
<stop offset="1" stop-color="white" stop-opacity="0.3"/>
</linearGradient>
<linearGradient id="paint3_linear_239_868" x1="411.78" y1="600.065" x2="404.563" y2="140.121" gradientUnits="userSpaceOnUse">
<stop stop-color="white" stop-opacity="0.3"/>
<stop offset="1" stop-color="white"/>
</linearGradient>
</defs>
</svg>
