<svg width="44" height="65" viewBox="0 0 44 65" fill="none" xmlns="http://www.w3.org/2000/svg">
<path d="M15.8132 43.0639C15.9264 44.4778 15.8329 45.8918 15.5059 47.2836C14.8198 50.0647 15.0706 56.3204 15.2034 58.9221C15.2403 59.709 15.0706 60.4762 14.7263 61.1622L14.2714 62.0499C13.4108 63.4639 14.4239 63.4639 14.4239 63.4639H16.6739C17.1288 63.4639 17.5124 63.0385 17.4927 62.5368C17.36 58.7819 17.778 56.0204 17.9895 54.9483C18.046 54.6286 18.1591 54.368 18.2747 54.0606C18.9804 52.2459 19.0936 48.6311 19.1132 47.2639C19.1132 46.959 19.1698 46.6565 19.2657 46.3565C19.7575 44.8639 20.1608 43.4942 20.4927 42.2549H15.7493C15.7739 42.5352 15.796 42.8057 15.8206 43.0614L15.8132 43.0639Z" stroke="white" stroke-width="1.35492" stroke-miterlimit="10"/>
<path d="M29.5542 61.1647C29.2075 60.4786 29.0378 59.7114 29.0771 58.9245C29.2099 56.3229 29.4607 50.0671 28.7747 47.286C28.4476 45.8917 28.3542 44.4778 28.4673 43.0663C28.4919 42.8106 28.514 42.5401 28.5386 42.2598H23.7952C24.1271 43.4991 24.528 44.8663 25.0222 46.3614C25.1181 46.6614 25.1747 46.9639 25.1747 47.2688C25.1943 48.6384 25.3075 52.2507 26.0132 54.0655C26.1263 54.3704 26.2394 54.6311 26.2984 54.9532C26.5124 56.0253 26.9279 58.7868 26.7952 62.5417C26.7755 63.0433 27.1591 63.4688 27.614 63.4688H29.864C29.864 63.4688 30.8771 63.4688 30.0165 62.0548L29.5616 61.1671L29.5542 61.1647Z" stroke="white" stroke-width="1.35492" stroke-miterlimit="10"/>
<path d="M15.5818 39.2498H21.2056C21.3654 38.4777 21.4982 37.7818 21.599 37.1597H15.5572C15.5474 37.8777 15.5572 38.5736 15.5818 39.2498Z" stroke="white" stroke-width="1.35492" stroke-miterlimit="10"/>
<path d="M23.0722 39.2498H28.6959C28.7205 38.5736 28.7279 37.8752 28.7205 37.1597H22.6787C22.7771 37.7818 22.9099 38.4777 23.0722 39.2498Z" stroke="white" stroke-width="1.35492" stroke-miterlimit="10"/>
<path d="M42.5696 40.0024H1.71065C1.31721 40.0024 1 40.3393 1 40.7549C1 41.1705 1.31721 41.5074 1.71065 41.5074H42.5696C42.9606 41.5074 43.2803 41.1705 43.2803 40.7549C43.2803 40.3393 42.9631 40.0024 42.5696 40.0024V40.0024Z" stroke="white" stroke-width="0.34918" stroke-miterlimit="10"/>
<path d="M1.71067 36.6605H42.5696C42.8303 36.6605 43.0442 36.4367 43.0442 36.1589C43.0442 35.881 42.8327 35.6572 42.5696 35.6572H1.71067C1.45002 35.6572 1.23608 35.881 1.23608 36.1589C1.23608 36.4367 1.44756 36.6605 1.71067 36.6605Z" stroke="white" stroke-width="0.34918" stroke-miterlimit="10"/>
<path d="M1.71067 31.5629H2.89346C3.02379 31.5629 3.12952 31.4498 3.12952 31.3121C3.12952 31.1744 3.02379 31.0613 2.89346 31.0613H1.71067C1.58035 31.0613 1.47461 31.1744 1.47461 31.3121C1.47461 31.4498 1.58035 31.5629 1.71067 31.5629Z" stroke="white" stroke-width="0.34918" stroke-miterlimit="10"/>
<path d="M29.7483 31.0613C29.6179 31.0613 29.5122 31.1744 29.5122 31.3121C29.5122 31.4498 29.6179 31.5629 29.7483 31.5629H31.986C32.1163 31.5629 32.222 31.4498 32.222 31.3121C32.222 31.1744 32.1163 31.0613 31.986 31.0613H29.7483Z" stroke="white" stroke-width="0.34918" stroke-miterlimit="10"/>
<path d="M35.5663 31.75H35.9031C35.7753 31.9663 35.549 32.136 35.1728 32.2319C34.5064 32.3918 34.1081 32.2713 33.8572 32.0303C33.6876 31.8704 33.572 31.6442 33.5351 31.4426C33.5351 31.1426 33.5154 30.8967 33.4786 30.6557C33.4417 30.2352 33.3458 29.9082 33.2695 29.6475C33.1318 29.2811 32.9425 28.9418 32.7163 28.6393C30.599 25.7918 29.7999 23.8172 29.5146 22.6639C29.2072 21.5352 28.7892 20.4631 28.349 19.3959C27.899 18.309 27.7195 17.5123 27.6482 16.991C27.6286 16.8262 27.4072 16.7942 27.3605 16.9565C26.4138 19.9639 26.822 24.2942 27.1245 26.527C27.2991 27.2795 27.4736 28.027 27.6507 28.777C28.2654 30.6508 28.5605 32.9032 28.6687 35.1532H22.4105C22.2876 33.9606 22.3073 33.3582 22.3073 33.3582H21.9753C21.9753 33.3582 21.995 33.9606 21.872 35.1532H15.6138C15.722 32.9032 16.0171 30.6508 16.6318 28.777C16.8064 28.0246 16.981 27.277 17.1581 26.527C17.4605 24.2967 17.8687 19.9664 16.922 16.9565C16.8753 16.7967 16.6515 16.8262 16.6343 16.991C16.563 17.5123 16.3835 18.309 15.9335 19.3959C15.4933 20.4631 15.0778 21.5352 14.7679 22.6639C14.4851 23.8172 13.6835 25.7918 11.5663 28.6393C11.3401 28.9393 11.1507 29.2811 11.013 29.6475C10.9368 29.9082 10.8433 30.2352 10.804 30.6557C10.804 30.6557 10.8605 31.0418 10.7474 31.4426C10.7105 31.6442 10.595 31.868 10.4253 32.0303C10.1745 32.2713 9.77612 32.3918 9.10973 32.2319C8.73596 32.136 8.50727 31.9663 8.3794 31.75H8.71629C8.94252 31.75 9.13186 31.5532 9.13186 31.3147C9.13186 31.0762 8.94252 30.8745 8.71629 30.8745H8.27612C8.40891 30.1418 8.9253 29.3647 9.07039 29.1655C9.09006 29.1262 9.10727 29.1065 9.10727 29.1065C9.50563 28.2188 10.4622 26.0598 10.745 24.609C11.0302 23.2147 11.5269 21.8426 12.4392 20.8147C12.4589 20.7951 12.4761 20.7951 12.4958 20.7754C12.7466 20.4901 12.936 20.168 13.0122 19.809C13.2581 18.7959 13.7179 16.6615 13.831 14.9869C13.9638 12.9459 15.3925 11.4139 17.4163 11.1115C17.4163 11.1115 18.9974 9.91884 20.1015 9.81802L20.4286 7.63688C20.4286 7.63688 19.7622 6.54999 19.7032 5.82212C19.7032 5.82212 18.8843 5.23442 19.7032 4.14754C19.7032 4.14754 19.1499 1.28525 22.1425 1C25.1351 1.28525 24.5818 4.14754 24.5818 4.14754C25.4007 5.23442 24.5818 5.82212 24.5818 5.82212C24.5253 6.54999 23.8564 7.63688 23.8564 7.63688L24.1835 9.81802C25.2876 9.91884 26.8687 11.1115 26.8687 11.1115C28.89 11.4115 30.3212 12.9459 30.454 14.9869C30.5671 16.6615 31.0269 18.7959 31.2728 19.809C31.349 20.1705 31.5384 20.4901 31.7892 20.7754C31.8089 20.7951 31.8261 20.7951 31.8458 20.8147C32.7605 21.8426 33.2572 23.2147 33.54 24.609C33.8228 26.0573 34.7794 28.2188 35.1777 29.1065C35.1777 29.1065 35.1974 29.1262 35.2146 29.1655C35.3622 29.3672 35.8785 30.1442 36.0089 30.8745H35.5687C35.3425 30.8745 35.1531 31.0713 35.1531 31.3147C35.1531 31.5582 35.3425 31.75 35.5687 31.75H35.5663Z" stroke="white" stroke-width="1.35492" stroke-miterlimit="10"/>
<path d="M14.5321 31.0613H12.2944C12.1641 31.0613 12.0583 31.1744 12.0583 31.3121C12.0583 31.4498 12.1641 31.5629 12.2944 31.5629H14.5321C14.6624 31.5629 14.7682 31.4498 14.7682 31.3121C14.7682 31.1744 14.6624 31.0613 14.5321 31.0613Z" stroke="white" stroke-width="0.34918" stroke-miterlimit="10"/>
<path d="M37.8041 31.0613H35.5664C35.4361 31.0613 35.3303 31.1744 35.3303 31.3121C35.3303 31.4498 35.4361 31.5629 35.5664 31.5629H37.8041C37.9344 31.5629 38.0402 31.4498 38.0402 31.3121C38.0402 31.1744 37.9344 31.0613 37.8041 31.0613Z" stroke="white" stroke-width="0.34918" stroke-miterlimit="10"/>
<path d="M8.71132 31.0613H6.47362C6.34329 31.0613 6.23755 31.1744 6.23755 31.3121C6.23755 31.4498 6.34329 31.5629 6.47362 31.5629H8.71132C8.84165 31.5629 8.94738 31.4498 8.94738 31.3121C8.94738 31.1744 8.84165 31.0613 8.71132 31.0613Z" stroke="white" stroke-width="0.34918" stroke-miterlimit="10"/>
<path d="M41.3843 31.5629H42.567C42.6974 31.5629 42.8031 31.4498 42.8031 31.3121C42.8031 31.1744 42.6974 31.0613 42.567 31.0613H41.3843C41.2539 31.0613 41.1482 31.1744 41.1482 31.3121C41.1482 31.4498 41.2539 31.5629 41.3843 31.5629V31.5629Z" stroke="white" stroke-width="0.34918" stroke-miterlimit="10"/>
</svg>
