<svg width="107" height="100" viewBox="0 0 107 100" fill="none" xmlns="http://www.w3.org/2000/svg">
<circle r="50" transform="matrix(-1 0 0 1 57 50)" fill="url(#paint0_linear_278_631)"/>
<circle r="46.5" transform="matrix(-1 0 0 1 46.5 50.5)" fill="white"/>
<g clip-path="url(#clip0_278_631)">
<path fill-rule="evenodd" clip-rule="evenodd" d="M34.3553 70.8186C34.5403 72.603 33.6926 74.337 32.1708 75.287C30.6489 76.237 28.7188 76.237 27.197 75.287C25.6751 74.337 24.8274 72.603 25.0124 70.8186L26.4464 57.1968C26.5176 56.5217 26.4859 55.8397 26.3525 55.1741L25.5301 52.2122C25.4674 51.9051 25.5461 51.5861 25.7443 51.3433C25.9426 51.1006 26.2394 50.9598 26.5529 50.9598H32.8148C33.1283 50.9598 33.4251 51.1006 33.6234 51.3433C33.8217 51.5861 33.9003 51.9051 33.8376 52.2122L33.2448 55.1783C33.037 55.8327 32.928 56.5144 32.9213 57.2009L34.3553 70.8186Z" stroke="url(#paint1_linear_278_631)" stroke-linecap="round" stroke-linejoin="round"/>
<path d="M38.0332 40.5239V39.9583C38.0332 33.3539 43.3871 28 49.9915 28C57.2206 28 63.081 33.8604 63.081 41.0896V50.9605" stroke="url(#paint2_linear_278_631)" stroke-linecap="round" stroke-linejoin="round"/>
<path d="M38.0329 40.5239C38.0329 45.1351 41.771 48.8732 46.3821 48.8732C50.9933 48.8732 54.7314 45.1351 54.7314 40.5239C54.7314 33.6072 49.1243 28 42.2075 28C35.2907 28 29.6836 33.6072 29.6836 40.5239V50.9605" stroke="url(#paint3_linear_278_631)" stroke-linecap="round" stroke-linejoin="round"/>
<path d="M32.9212 57.2216H26.4463" stroke="url(#paint4_linear_278_631)" stroke-linecap="round" stroke-linejoin="round"/>
<path fill-rule="evenodd" clip-rule="evenodd" d="M67.7527 70.8186C67.9378 72.603 67.0901 74.337 65.5682 75.287C64.0464 76.237 62.1163 76.237 60.5944 75.287C59.0726 74.337 58.2249 72.603 58.4099 70.8186L59.8439 57.1968C59.9151 56.5217 59.8834 55.8397 59.75 55.1741L58.9276 52.2122C58.8649 51.9051 58.9435 51.5861 59.1418 51.3433C59.34 51.1006 59.6369 50.9598 59.9503 50.9598H66.2123C66.5257 50.9598 66.8226 51.1006 67.0209 51.3433C67.2191 51.5861 67.2978 51.9051 67.2351 52.2122L66.421 55.1741C66.2876 55.8397 66.2559 56.5217 66.3271 57.1968L67.7527 70.8186Z" stroke="url(#paint5_linear_278_631)" stroke-linecap="round" stroke-linejoin="round"/>
<path d="M66.3186 57.2216H59.8438" stroke="url(#paint6_linear_278_631)" stroke-linecap="round" stroke-linejoin="round"/>
</g>
<defs>
<linearGradient id="paint0_linear_278_631" x1="2.73657e-08" y1="51.2007" x2="100.15" y2="52.9156" gradientUnits="userSpaceOnUse">
<stop stop-color="#004976"/>
<stop offset="0.807292" stop-color="#C8DAE5" stop-opacity="0"/>
</linearGradient>
<linearGradient id="paint1_linear_278_631" x1="25.7567" y1="63.4797" x2="33.2263" y2="63.4797" gradientUnits="userSpaceOnUse">
<stop stop-color="#BD9B60"/>
<stop offset="1" stop-color="#C6A978"/>
</linearGradient>
<linearGradient id="paint2_linear_278_631" x1="40.0849" y1="39.4803" x2="60.0035" y2="39.4803" gradientUnits="userSpaceOnUse">
<stop stop-color="#BD9B60"/>
<stop offset="1" stop-color="#C6A978"/>
</linearGradient>
<linearGradient id="paint3_linear_278_631" x1="31.7353" y1="39.4803" x2="51.6539" y2="39.4803" gradientUnits="userSpaceOnUse">
<stop stop-color="#BD9B60"/>
<stop offset="1" stop-color="#C6A978"/>
</linearGradient>
<linearGradient id="paint4_linear_278_631" x1="26.9767" y1="57.7216" x2="32.1256" y2="57.7216" gradientUnits="userSpaceOnUse">
<stop stop-color="#BD9B60"/>
<stop offset="1" stop-color="#C6A978"/>
</linearGradient>
<linearGradient id="paint5_linear_278_631" x1="59.1542" y1="63.4797" x2="66.6237" y2="63.4797" gradientUnits="userSpaceOnUse">
<stop stop-color="#BD9B60"/>
<stop offset="1" stop-color="#C6A978"/>
</linearGradient>
<linearGradient id="paint6_linear_278_631" x1="60.3742" y1="57.7216" x2="65.5231" y2="57.7216" gradientUnits="userSpaceOnUse">
<stop stop-color="#BD9B60"/>
<stop offset="1" stop-color="#C6A978"/>
</linearGradient>
<clipPath id="clip0_278_631">
<rect width="45" height="50" fill="white" transform="translate(24 27)"/>
</clipPath>
</defs>
</svg>
