<svg width="107" height="104" viewBox="0 0 107 104" fill="none" xmlns="http://www.w3.org/2000/svg">
<circle cx="50" cy="50" r="50" fill="url(#paint0_linear_278_628)"/>
<circle cx="60.5" cy="57.5" r="46.5" fill="white"/>
<path d="M72.3308 40.5117C72.3308 40.5117 73.9741 40.6625 74.7674 40.5117C74.7674 40.5117 76.5787 40.3066 77.6759 40.5784L81.6025 40.9466H82.0176C82.0176 40.9466 83.2458 40.1905 84.0563 40.23H85.4154L87.0958 40.3808L87.3232 40.4574C87.3232 40.4574 87.852 40.702 87.3232 40.7984L85.4723 40.8552L85.3586 40.9491L85.4896 41.043L87.5554 41.1938C87.5554 41.1938 88.1683 41.4013 87.5554 41.5348L85.3191 41.6484L85.282 41.7621L87.0192 41.9499C87.0192 41.9499 87.7556 42.2341 87.039 42.2909H85.151V42.3848L86.2828 42.5356C86.2828 42.5356 86.7548 42.6863 86.3026 42.7802L84.81 42.8741C84.81 42.8741 83.829 43.0051 82.4872 42.6097L81.1478 42.6468C81.1478 42.6468 77.6932 43.1954 75.9189 43.2497H72.6719L71.4437 43.3436C71.4437 43.3436 67.4635 43.6047 66.5566 43.2266" stroke="#BD9B60" stroke-miterlimit="10"/>
<path d="M48.8856 40.46L47.5209 40.6229L46.6906 40.5463C46.6906 40.5463 45.3512 40.3017 42.9715 40.5463C42.9715 40.5463 40.4979 40.8676 39.6874 40.9244C39.6874 40.9244 38.9881 41.0554 38.4024 40.6798C38.4024 40.6798 37.8736 40.193 36.6652 40.2572L33.6826 40.4351C33.6826 40.4351 33.0796 40.6056 33.6826 40.8132L35.4939 40.8701L35.531 41.0579L33.302 41.1888C33.302 41.1888 32.6225 41.3766 33.302 41.5842H35.5483L35.6249 41.735L33.8308 41.9623C33.8308 41.9623 33.3786 42.1896 33.8877 42.2638H35.7756L35.8127 42.3947L34.6611 42.5455C34.6611 42.5455 34.0582 42.6592 34.6414 42.8297H35.4914C35.4914 42.8297 37.8711 42.7728 38.1158 42.6592C38.1158 42.6592 38.3604 42.4886 39.5688 42.6394L41.2492 42.9236C41.2492 42.9236 45.5168 43.3758 48.0645 43.225L49.0283 43.2547C49.0283 43.2547 52.8211 43.4326 53.9726 42.9236" stroke="#BD9B60" stroke-miterlimit="10"/>
<path d="M55.5668 65.3594L55.9572 69.9824C55.9572 69.9824 55.8732 70.9609 55.5668 72.1051C55.5668 72.1051 54.7859 73.5581 55.3987 76.8546L56.1796 80.8207L56.3205 81.9945V82.7754L56.1524 83.1658C56.1524 83.1658 55.9004 83.4179 56.2093 83.9763L56.014 85.2341L56.0981 85.8766H58.8064C58.8064 85.8766 59.2809 85.8766 59.0288 85.2341C59.0288 85.2341 58.7496 84.9549 58.3591 84.0604L58.1639 81.268L58.7224 75.5424L58.7496 73.0713C58.7496 73.0713 58.6087 72.4708 59.2512 70.9066C59.2512 70.9066 59.6145 70.4865 59.5576 67.2765L59.9209 64.3161C59.9209 64.3161 60.5906 62.5564 59.9209 58.9337H60.729C60.729 58.9337 60.1705 60.3227 60.729 63.98L60.9514 67.6669C60.9514 67.6669 61.3418 70.7385 60.9514 72.3868C60.9514 72.3868 60.3089 75.0679 60.8945 77.0523C60.8945 77.0523 61.8731 82.1082 61.453 83.3363C61.453 83.3363 60.7265 84.4533 61.0329 85.1526C61.0329 85.1526 61.285 85.9335 62.1227 85.8791C62.1227 85.8791 63.4645 85.2712 64.831 85.8816C64.831 85.8816 66.8153 86.2424 67.401 85.6271C67.401 85.6271 67.7642 85.2366 66.9265 85.1254C66.9265 85.1254 65.2783 84.651 63.9389 83.3091C63.9389 83.3091 63.5757 83.282 63.7165 82.207L64.023 76.857L64.4134 70.3777C64.4134 70.3777 65.0457 66.8578 65.5745 65.6271" stroke="#BD9B60" stroke-miterlimit="10"/>
<path d="M48.7414 40.3955C48.7414 40.3955 46.6904 39.2662 46.1542 39.1772C46.1542 39.1772 43.8362 38.2258 42.3783 37.1558C42.3783 37.1558 40.09 35.5496 39.3462 35.6089C39.3462 35.6089 38.8866 35.5644 38.1329 35.2901C38.1329 35.2901 36.539 34.744 35.8496 34.2745C35.8496 34.2745 35.7087 34.0126 35.9163 34.0669L37.1617 34.3289C37.1617 34.3289 36.5168 33.9236 35.3603 33.5529C35.3603 33.5529 35.0539 33.2465 35.4369 33.2811C35.4369 33.2811 37.3051 33.7284 37.3372 33.6963C37.3693 33.6641 35.1206 32.6485 35.1206 32.6485C35.1206 32.6485 34.7722 32.3421 35.2071 32.3421L37.1395 32.9327L37.478 32.9648L37.3471 32.7894L35.6865 31.9714C35.6865 31.9714 35.3924 31.665 35.8076 31.7737C35.8076 31.7737 37.8166 32.2531 38.3083 32.4829C38.3083 32.4829 39.3561 32.6238 40.4261 33.9681C40.4261 33.9681 40.5249 34.4475 43.5496 35.006C43.5496 35.006 46.4433 35.4656 47.491 36.5134C47.491 36.5134 48.4301 37.3115 49.4136 37.3659C49.4136 37.3659 50.9086 37.529 51.2817 37.8132C51.2817 37.8132 52.1664 38.0529 52.9745 37.9664C52.9745 37.9664 55.2454 37.8132 56.1845 38.5891C56.1845 38.5891 58.0848 38.0207 58.28 38.1962C58.28 38.1962 58.9793 37.6278 58.4876 36.59L58.3245 35.9129C58.3245 35.9129 58.1268 36.0216 57.8994 35.5743L57.6696 35.0282L57.6029 34.7885L57.6251 34.3412L57.6573 34.1559C57.6573 34.1559 57.8105 33.8272 58.0403 34.2869L58.0502 32.9104C58.0502 32.9104 58.0403 31.3611 59.7874 31.0868C59.7874 31.0868 61.5023 30.6172 62.3104 31.8627C62.3104 31.8627 62.943 32.5299 62.8021 34.2869C62.8021 34.2869 63.1629 33.7852 63.2939 34.2869C63.2939 34.2869 63.4792 35.5546 62.5624 35.9252C62.5624 35.9252 62.5525 36.5257 62.2338 36.8321C62.2338 36.8321 62.0707 37.7934 62.6712 38.2184C62.6712 38.2184 64.0575 38.2728 64.4726 38.6113C64.4726 38.6113 66.0344 37.6278 68.6661 38.0553C68.6661 38.0553 71.7575 37.2028 72.0738 37.2918L72.358 37.225L72.6422 37.0718C72.6422 37.0718 74.0606 35.5422 78.3529 34.833C78.3529 34.833 80.2409 34.4846 80.4929 33.9261C80.4929 33.9261 81.2466 32.8017 82.665 32.431C82.665 32.431 84.3034 31.9294 84.4443 31.8627L84.8594 31.8083C84.8594 31.8083 85.3734 31.7317 85.0571 32.0802L83.4311 32.8882L83.5942 32.9203C83.5942 32.9203 85.1238 32.5818 85.2968 32.3841C85.2968 32.3841 86.1592 32.1543 85.6452 32.7004L83.6238 33.5949C83.6238 33.5949 83.8314 33.716 85.0546 33.3009L85.1856 33.2342H85.2943C85.2943 33.2342 85.7095 33.202 85.5019 33.5406L83.7326 34.2819L83.7869 34.3363L84.8026 34.0645C84.8026 34.0645 85.3388 33.9879 84.9879 34.3042L84.1897 34.6748L83.3916 35.0455L82.9764 35.221L82.2771 35.4285L81.8076 35.5373L81.4468 35.5694L81.1947 35.6139L80.6165 35.8659L79.8405 36.3453L78.7928 36.9359C78.7928 36.9359 76.1833 38.6509 75.1553 38.9227L72.0219 40.3905L67.3268 41.5322L67.1736 41.7719C67.1736 41.7719 65.634 45.4514 65.7106 45.5824C65.7106 45.5824 64.826 48.1153 64.7939 48.6169C64.7939 48.6169 64.6184 49.0222 64.7074 50.495C64.7074 50.495 65.1991 52.6127 64.9051 53.6728C64.9051 53.6728 64.9718 56.6431 67.1118 58.9265C67.1118 58.9265 68.9676 60.9676 69.3284 63.0434L69.6669 64.4964L69.8646 65.6529C69.8646 65.6529 70.213 67.9238 70.8802 68.7319L72.867 72.488C72.867 72.488 75.2146 77.1609 75.5976 78.1666L75.6965 78.3965C75.6965 78.3965 75.7286 78.7573 76.46 78.8437L77.3225 78.9525C77.3225 78.9525 78.7977 79.1378 79.4946 78.9525L79.843 78.8536L80.0185 78.8314C80.0185 78.8314 80.5325 78.7548 80.3471 78.9624C80.3471 78.9624 78.5136 80.4697 78.1404 80.5562C78.1404 80.5562 76.8727 80.9491 76.3933 81.5397C76.3933 81.5397 75.9559 82.1723 75.2788 82.1946C75.2788 82.1946 74.5375 82.0735 74.3843 81.2556C74.3843 81.2556 74.3942 79.8149 73.643 78.8857C73.643 78.8857 72.1356 76.0687 70.6504 75.0086C70.6504 75.0086 69.4371 74.1684 68.8935 72.4213C68.8935 72.4213 67.7024 68.7097 67.1563 68.2599L65.6266 65.6059C65.6266 65.6059 63.5311 62.6678 62.1868 61.5211C62.1868 61.5211 60.8104 59.9149 60.7239 58.9981L59.9603 58.9759C59.9603 58.9759 59.3154 60.4388 57.808 62.1982L56.6836 63.7377C56.6836 63.7377 54.9909 65.6059 54.4769 67.1776C54.4769 67.1776 53.9407 68.4008 52.6755 69.4609C52.6755 69.4609 52.0429 69.9749 51.8353 70.563C51.8353 70.563 51.3757 73.128 49.7398 74.9418C49.7398 74.9418 47.5133 77.8355 47.1945 78.992C47.1945 78.992 47.0314 79.679 46.6039 79.9632C46.6039 79.9632 46.2876 80.6081 46.3098 80.8701C46.3098 80.8701 46.038 81.646 44.8247 81.7646C44.8247 81.7646 43.4483 81.2951 42.7712 80.618L42.9244 80.4426L43.2531 80.3116C43.2531 80.3116 43.9623 80.2127 44.4985 79.5134C44.4985 79.5134 46.0603 77.5365 46.4754 75.6585C46.4754 75.6585 47.3823 71.7813 48.1681 70.647C48.1681 70.647 50.8147 66.844 50.9358 66.1594C50.9358 66.1594 52.3221 60.634 53.5478 59.4479C53.5478 59.4479 55.799 56.6555 55.878 54.2832C55.878 54.2832 55.9596 54.0831 55.8583 53.3392C55.8583 53.3392 55.9398 51.2487 56.2191 49.9637C56.2191 49.9637 56.3599 49.4003 56.1177 48.7182C56.1177 48.7182 54.551 43.3114 54.1087 43.0915L53.6071 41.6854C53.6071 41.6854 50.444 40.5932 48.739 40.3856L48.7414 40.3955Z" stroke="#BD9B60" stroke-miterlimit="10"/>
<defs>
<linearGradient id="paint0_linear_278_628" x1="7.5" y1="25" x2="72.6163" y2="80.8362" gradientUnits="userSpaceOnUse">
<stop stop-color="#004976"/>
<stop offset="1" stop-color="#C8DAE5" stop-opacity="0"/>
</linearGradient>
</defs>
</svg>
