<svg width="107" height="100" viewBox="0 0 107 100" fill="none" xmlns="http://www.w3.org/2000/svg">
<circle r="50" transform="matrix(-1 0 0 1 57 50)" fill="url(#paint0_linear_278_642)"/>
<circle r="46.5" transform="matrix(-1 0 0 1 46.5 47.5)" fill="white"/>
<path d="M36.083 47.4492C35.4281 47.908 34.9236 48.555 34.6342 49.3071C34.3449 50.0591 34.284 50.8817 34.4594 51.6691C34.6347 52.4565 35.0384 53.1727 35.6183 53.7256C36.1983 54.2784 36.928 54.6426 37.7137 54.7713C38.743 56.4896 40.1918 57.9095 41.9203 58.8938C43.6487 59.878 45.5983 60.3933 47.5805 60.3899C47.8021 60.3899 48.0015 60.3899 48.212 60.3742C50.4822 60.2564 52.6673 59.4603 54.4924 58.0858C56.3175 56.7113 57.701 54.8199 58.4687 52.6497C59.1084 52.6077 59.7335 52.437 60.3076 52.1474C60.8816 51.8578 61.393 51.4553 61.8121 50.9632C62.2311 50.4711 62.5494 49.8993 62.7484 49.2811C62.9474 48.663 63.023 48.0109 62.971 47.3628C62.9189 46.7146 62.7402 46.0835 62.4452 45.5062C62.1502 44.9289 61.7448 44.4169 61.2528 44.0001C60.7607 43.5833 60.1918 43.27 59.5791 43.0785C58.9664 42.887 58.3223 42.8211 57.6843 42.8847C56.7052 41.1067 55.2845 39.6195 53.5633 38.5708C51.8421 37.522 49.8804 36.9483 47.873 36.9065C47.7536 36.1655 47.4701 35.4616 47.0436 34.8478C46.6172 34.2341 46.059 33.7265 45.4111 33.3633C44.7632 33.0001 44.0424 32.7908 43.3032 32.7511C42.564 32.7114 41.8255 32.8424 41.1434 33.1341C40.4613 33.4259 39.8534 33.8709 39.3654 34.4356C38.8775 35.0002 38.5222 35.6698 38.3264 36.3939C38.1306 37.118 38.0994 37.8778 38.2351 38.6159C38.3707 39.354 38.6698 40.0513 39.1097 40.6552C39.0698 40.7002 39.0233 40.7406 38.9812 40.7878C37.3462 42.6424 36.3318 44.9742 36.083 47.4492ZM37.0313 52.2834C36.6849 51.9673 36.4573 51.5391 36.3872 51.0719C36.3172 50.6046 36.409 50.1272 36.6471 49.7209C36.8852 49.3146 37.2548 49.0047 37.693 48.8438C38.1311 48.683 38.6107 48.6812 39.05 48.8388C39.4893 48.9963 39.8612 49.3035 40.1022 49.708C40.3432 50.1125 40.4385 50.5893 40.3719 51.057C40.3052 51.5248 40.0807 51.9546 39.7366 52.2733C39.3925 52.592 38.9501 52.7799 38.4848 52.8048C37.9514 52.8332 37.4286 52.6457 37.0313 52.2834ZM58.1496 44.8669C58.613 44.8668 59.0695 44.981 59.4796 45.1997C59.8898 45.4184 60.2413 45.7351 60.5039 46.1224C60.7665 46.5097 60.9322 46.9559 60.9868 47.4227C61.0413 47.8894 60.9831 48.3626 60.8171 48.8014C60.6512 49.2403 60.3824 49.6316 60.0341 49.9415C59.6857 50.2515 59.2683 50.4708 58.8177 50.5806C58.3671 50.6904 57.897 50.6874 57.4478 50.5717C56.9987 50.4561 56.584 50.2313 56.2396 49.9169C55.8091 49.5253 55.5059 49.0103 55.3704 48.4401C55.2348 47.8699 55.2732 47.2713 55.4806 46.7237C55.6879 46.1762 56.0544 45.7054 56.5314 45.3738C57.0084 45.0422 57.5735 44.8655 58.1518 44.8669H58.1496Z" stroke="url(#paint1_linear_278_642)" stroke-miterlimit="10"/>
<path d="M24.5714 48.3278C24.579 54.3864 26.9155 60.2032 31.0845 64.5421C35.2535 68.8811 40.9262 71.4001 46.8973 71.5639L47.1609 73.2023C47.1862 73.361 47.2486 73.5112 47.3431 73.6403C47.4376 73.7694 47.5613 73.8735 47.7038 73.9439C47.846 74.0152 48.003 74.0507 48.1616 74.0471C48.3202 74.0436 48.4755 74.0013 48.6145 73.9237L55.1088 70.3278C55.2768 70.2347 55.4147 70.0943 55.5058 69.9236C55.597 69.7528 55.6375 69.559 55.6225 69.3654C55.6075 69.1718 55.5377 68.9868 55.4214 68.8326C55.3051 68.6783 55.1473 68.5615 54.967 68.4962L47.4645 65.7835C47.302 65.725 47.1273 65.7105 46.9576 65.7413C46.7879 65.7722 46.629 65.8473 46.4966 65.9594C46.3642 66.0714 46.2629 66.2165 46.2026 66.3803C46.1423 66.5442 46.1252 66.7211 46.1528 66.8937L46.5716 69.5075C41.1887 69.2641 36.1053 66.9263 32.3779 62.9798C28.6504 59.0333 26.5656 53.7817 26.5567 48.3165C26.5567 48.0483 26.4516 47.7911 26.2646 47.6014C26.0776 47.4117 25.824 47.3052 25.5596 47.3052C25.2951 47.3052 25.0415 47.4117 24.8545 47.6014C24.6676 47.7911 24.5625 48.0483 24.5625 48.3165L24.5714 48.3278Z" stroke="url(#paint2_linear_278_642)" stroke-miterlimit="10"/>
<path d="M69.4275 49.3347C69.6907 49.3347 69.9432 49.2286 70.1294 49.0398C70.3155 48.851 70.4201 48.5949 70.4201 48.3278C70.413 42.2508 68.0625 36.4177 63.8711 32.0753C59.6797 27.7329 53.98 25.2256 47.9901 25.0895L47.671 22.5858C47.6505 22.4265 47.5927 22.2744 47.5025 22.1423C47.4123 22.0102 47.2923 21.9018 47.1525 21.8262C47.0112 21.753 46.8548 21.7148 46.6961 21.7148C46.5374 21.7148 46.381 21.753 46.2396 21.8262L39.6345 25.1973C39.4634 25.2849 39.321 25.4207 39.2243 25.5885C39.1277 25.7564 39.081 25.949 39.0899 26.1431C39.0988 26.3372 39.1629 26.5246 39.2745 26.6826C39.3861 26.8406 39.5403 26.9625 39.7187 27.0335L47.1282 29.9911C47.2438 30.0375 47.3672 30.0612 47.4915 30.0608C47.6327 30.0614 47.7724 30.0313 47.9011 29.9726C48.0299 29.9138 48.1447 29.8278 48.238 29.7203C48.3312 29.6127 48.4006 29.4862 48.4415 29.3491C48.4825 29.2121 48.494 29.0678 48.4753 28.9258L48.2538 27.1414C53.6675 27.3425 58.7938 29.663 62.5567 33.6159C66.3196 37.5688 68.4264 42.8466 68.4348 48.3413C68.4389 48.6058 68.5452 48.8581 68.7308 49.0439C68.9165 49.2297 69.1667 49.3341 69.4275 49.3347Z" stroke="url(#paint3_linear_278_642)" stroke-miterlimit="10"/>
<defs>
<linearGradient id="paint0_linear_278_642" x1="2.73657e-08" y1="51.2007" x2="100.15" y2="52.9156" gradientUnits="userSpaceOnUse">
<stop stop-color="#004976"/>
<stop offset="0.807292" stop-color="#C8DAE5" stop-opacity="0"/>
</linearGradient>
<linearGradient id="paint1_linear_278_642" x1="36.7061" y1="46.567" x2="59.4698" y2="46.567" gradientUnits="userSpaceOnUse">
<stop stop-color="#BD9B60"/>
<stop offset="1" stop-color="#C6A978"/>
</linearGradient>
<linearGradient id="paint2_linear_278_642" x1="27.1069" y1="60.6763" x2="51.8089" y2="60.6763" gradientUnits="userSpaceOnUse">
<stop stop-color="#BD9B60"/>
<stop offset="1" stop-color="#C6A978"/>
</linearGradient>
<linearGradient id="paint3_linear_278_642" x1="41.6552" y1="35.5248" x2="66.5705" y2="35.5248" gradientUnits="userSpaceOnUse">
<stop stop-color="#BD9B60"/>
<stop offset="1" stop-color="#C6A978"/>
</linearGradient>
</defs>
</svg>
