<svg width="103" height="102" viewBox="0 0 103 102" fill="none" xmlns="http://www.w3.org/2000/svg">
<circle r="49.0385" transform="matrix(-1 0 0 1 53.6804 49.0385)" fill="url(#paint0_linear_1_1929)"/>
<circle r="45.9" transform="matrix(-1 0 0 1 45.9 56.1)" fill="white"/>
<path d="M55.7771 43.0223C55.7771 43.0223 57.0421 43.1383 57.6528 43.0223C57.6528 43.0223 59.0472 42.8644 59.8918 43.0736L62.9146 43.3571H63.2341C63.2341 43.3571 64.1796 42.775 64.8036 42.8054H65.8498L67.1434 42.9215L67.3184 42.9804C67.3184 42.9804 67.7255 43.1688 67.3184 43.2429L65.8936 43.2867L65.8061 43.359L65.9069 43.4313L67.4972 43.5473C67.4972 43.5473 67.969 43.7071 67.4972 43.8098L65.7756 43.8973L65.7471 43.9848L67.0844 44.1294C67.0844 44.1294 67.6513 44.3482 67.0996 44.3919H65.6463V44.4642L66.5175 44.5803C66.5175 44.5803 66.8809 44.6963 66.5328 44.7686L65.3838 44.8409C65.3838 44.8409 64.6285 44.9417 63.5956 44.6373L62.5645 44.6659C62.5645 44.6659 59.9051 45.0882 58.5392 45.13H56.0396L55.0942 45.2023C55.0942 45.2023 52.0302 45.4033 51.332 45.1122" stroke="#BD9B60" stroke-miterlimit="10"/>
<path d="M37.729 42.9824L36.6784 43.1079L36.0392 43.0489C36.0392 43.0489 35.0082 42.8606 33.1762 43.0489C33.1762 43.0489 31.272 43.2962 30.6481 43.34C30.6481 43.34 30.1097 43.4408 29.6589 43.1516C29.6589 43.1516 29.2518 42.7769 28.3215 42.8263L26.0255 42.9633C26.0255 42.9633 25.5613 43.0946 26.0255 43.2544L27.4199 43.2981L27.4484 43.4427L25.7325 43.5435C25.7325 43.5435 25.2094 43.6881 25.7325 43.8479H27.4617L27.5207 43.9639L26.1396 44.1389C26.1396 44.1389 25.7915 44.3139 26.1834 44.371H27.6367L27.6653 44.4718L26.7788 44.5879C26.7788 44.5879 26.3146 44.6754 26.7636 44.8066H27.418C27.418 44.8066 29.2499 44.7629 29.4382 44.6754C29.4382 44.6754 29.6265 44.5441 30.5568 44.6602L31.8503 44.8789C31.8503 44.8789 35.1356 45.2271 37.0969 45.111L37.8388 45.1338C37.8388 45.1338 40.7586 45.2708 41.645 44.8789" stroke="#BD9B60" stroke-miterlimit="10"/>
<path d="M42.8715 62.1504L43.172 65.7092C43.172 65.7092 43.1073 66.4625 42.8715 67.3433C42.8715 67.3433 42.2703 68.4618 42.7421 70.9995L43.3432 74.0527L43.4517 74.9563V75.5574L43.3223 75.858C43.3223 75.858 43.1283 76.052 43.3661 76.482L43.2158 77.4502L43.2805 77.9448H45.3654C45.3654 77.9448 45.7306 77.9448 45.5366 77.4502C45.5366 77.4502 45.3216 77.2353 45.0211 76.5466L44.8708 74.397L45.3007 69.9894L45.3216 68.0871C45.3216 68.0871 45.2132 67.6248 45.7078 66.4207C45.7078 66.4207 45.9874 66.0973 45.9437 63.6262L46.2233 61.3472C46.2233 61.3472 46.7388 59.9926 46.2233 57.2038H46.8454C46.8454 57.2038 46.4155 58.2731 46.8454 61.0885L47.0166 63.9267C47.0166 63.9267 47.3172 66.2913 47.0166 67.5601C47.0166 67.5601 46.522 69.6241 46.9728 71.1517C46.9728 71.1517 47.7262 75.0438 47.4028 75.9893C47.4028 75.9893 46.8435 76.8491 47.0794 77.3875C47.0794 77.3875 47.2734 77.9886 47.9183 77.9467C47.9183 77.9467 48.9512 77.4788 50.0032 77.9486C50.0032 77.9486 51.5308 78.2264 51.9816 77.7527C51.9816 77.7527 52.2613 77.4521 51.6164 77.3665C51.6164 77.3665 50.3475 77.0013 49.3165 75.9683C49.3165 75.9683 49.0368 75.9474 49.1453 75.1199L49.3812 71.0014L49.6817 66.0136C49.6817 66.0136 50.1685 63.3038 50.5756 62.3565" stroke="#BD9B60" stroke-miterlimit="10"/>
<path d="M37.6175 42.9328C37.6175 42.9328 36.0386 42.0634 35.6258 41.995C35.6258 41.995 33.8414 41.2626 32.719 40.4389C32.719 40.4389 30.9575 39.2024 30.3849 39.248C30.3849 39.248 30.0311 39.2138 29.4509 39.0026C29.4509 39.0026 28.2239 38.5822 27.6931 38.2208C27.6931 38.2208 27.5847 38.0191 27.7445 38.061L28.7033 38.2626C28.7033 38.2626 28.2068 37.9507 27.3165 37.6653C27.3165 37.6653 27.0806 37.4294 27.3755 37.4561C27.3755 37.4561 28.8136 37.8004 28.8383 37.7756C28.8631 37.7509 27.132 36.9691 27.132 36.9691C27.132 36.9691 26.8637 36.7332 27.1985 36.7332L28.6861 37.1878L28.9468 37.2126L28.8459 37.0775L27.5676 36.4478C27.5676 36.4478 27.3412 36.2119 27.6608 36.2956C27.6608 36.2956 29.2074 36.6647 29.5859 36.8416C29.5859 36.8416 30.3925 36.95 31.2162 37.9849C31.2162 37.9849 31.2923 38.3539 33.6207 38.7839C33.6207 38.7839 35.8483 39.1377 36.6549 39.9443C36.6549 39.9443 37.3778 40.5587 38.1349 40.6006C38.1349 40.6006 39.2858 40.7261 39.5731 40.9449C39.5731 40.9449 40.2541 41.1294 40.8761 41.0628C40.8761 41.0628 42.6244 40.9449 43.3472 41.5422C43.3472 41.5422 44.8101 41.1047 44.9604 41.2397C44.9604 41.2397 45.4988 40.8022 45.1202 40.0032L44.9946 39.482C44.9946 39.482 44.8425 39.5657 44.6675 39.2214L44.4905 38.801L44.4392 38.6165L44.4563 38.2721L44.481 38.1295C44.481 38.1295 44.599 37.8765 44.7759 38.2303L44.7835 37.1707C44.7835 37.1707 44.7759 35.978 46.1208 35.7668C46.1208 35.7668 47.441 35.4054 48.0631 36.3641C48.0631 36.3641 48.5501 36.8777 48.4416 38.2303C48.4416 38.2303 48.7194 37.8441 48.8202 38.2303C48.8202 38.2303 48.9629 39.2062 48.2571 39.4915C48.2571 39.4915 48.2495 39.9538 48.0041 40.1897C48.0041 40.1897 47.8786 40.9297 48.3408 41.2569C48.3408 41.2569 49.408 41.2987 49.7276 41.5593C49.7276 41.5593 50.9299 40.8022 52.9558 41.1313C52.9558 41.1313 55.3356 40.475 55.5791 40.5435L55.7979 40.4921L56.0166 40.3742C56.0166 40.3742 57.1086 39.1967 60.4129 38.6507C60.4129 38.6507 61.8662 38.3825 62.0603 37.9526C62.0603 37.9526 62.6405 37.087 63.7324 36.8017C63.7324 36.8017 64.9936 36.4155 65.1021 36.3641L65.4217 36.3223C65.4217 36.3223 65.8173 36.2633 65.5738 36.5315L64.3221 37.1536L64.4477 37.1783C64.4477 37.1783 65.6252 36.9177 65.7584 36.7655C65.7584 36.7655 66.4223 36.5886 66.0266 37.009L64.4705 37.6976C64.4705 37.6976 64.6303 37.7909 65.5719 37.4713L65.6728 37.4199H65.7565C65.7565 37.4199 66.076 37.3952 65.9163 37.6558L64.5542 38.2265L64.5961 38.2683L65.3779 38.0591C65.3779 38.0591 65.7907 38.0001 65.5206 38.2436L64.9061 38.529L64.2917 38.8143L63.9721 38.9494L63.4337 39.1092L63.0723 39.1929L62.7946 39.2176L62.6005 39.2518L62.1554 39.4459L61.5581 39.8149L60.7515 40.2696C60.7515 40.2696 58.7426 41.5898 57.9513 41.799L55.5392 42.929L51.9248 43.8079L51.8068 43.9924C51.8068 43.9924 50.6217 46.8249 50.6807 46.9258C50.6807 46.9258 49.9996 48.8756 49.9749 49.2618C49.9749 49.2618 49.8398 49.5738 49.9083 50.7075C49.9083 50.7075 50.2869 52.3378 50.0605 53.1539C50.0605 53.1539 50.1119 55.4405 51.7593 57.1982C51.7593 57.1982 53.1879 58.7695 53.4656 60.3675L53.7263 61.486L53.8784 62.3763C53.8784 62.3763 54.1467 64.1245 54.6603 64.7466L56.1897 67.6381C56.1897 67.6381 57.9969 71.2354 58.2918 72.0096L58.3679 72.1865C58.3679 72.1865 58.3926 72.4643 58.9557 72.5309L59.6196 72.6145C59.6196 72.6145 60.7553 72.7572 61.2917 72.6145L61.56 72.5385L61.695 72.5213C61.695 72.5213 62.0907 72.4624 61.948 72.6222C61.948 72.6222 60.5365 73.7826 60.2493 73.8491C60.2493 73.8491 59.2734 74.1516 58.9043 74.6063C58.9043 74.6063 58.5676 75.0933 58.0464 75.1104C58.0464 75.1104 57.4757 75.0172 57.3578 74.3875C57.3578 74.3875 57.3654 73.2785 56.7871 72.5632C56.7871 72.5632 55.6267 70.3946 54.4834 69.5785C54.4834 69.5785 53.5493 68.9317 53.1308 67.5867C53.1308 67.5867 52.2139 64.7295 51.7935 64.3833L50.616 62.3402C50.616 62.3402 49.0028 60.0783 47.968 59.1957C47.968 59.1957 46.9084 57.9592 46.8418 57.2534L46.254 57.2363C46.254 57.2363 45.7575 58.3624 44.5971 59.7169L43.7315 60.902C43.7315 60.902 42.4284 62.3402 42.0328 63.55C42.0328 63.55 41.62 64.4917 40.646 65.3078C40.646 65.3078 40.159 65.7035 39.9992 66.1562C39.9992 66.1562 39.6454 68.1308 38.386 69.5271C38.386 69.5271 36.672 71.7547 36.4266 72.645C36.4266 72.645 36.3011 73.1738 35.972 73.3926C35.972 73.3926 35.7285 73.8891 35.7456 74.0907C35.7456 74.0907 35.5364 74.6881 34.6023 74.7794C34.6023 74.7794 33.5427 74.4179 33.0215 73.8967L33.1395 73.7616L33.3925 73.6608C33.3925 73.6608 33.9384 73.5847 34.3512 73.0464C34.3512 73.0464 35.5535 71.5245 35.8731 70.0788C35.8731 70.0788 36.5712 67.094 37.1762 66.2209C37.1762 66.2209 39.2135 63.2932 39.3067 62.7663C39.3067 62.7663 40.3739 58.5127 41.3175 57.5996C41.3175 57.5996 43.0505 55.45 43.1114 53.6238C43.1114 53.6238 43.1741 53.4697 43.0961 52.8971C43.0961 52.8971 43.1589 51.2877 43.3739 50.2985C43.3739 50.2985 43.4823 49.8648 43.2959 49.3398C43.2959 49.3398 42.0898 45.1775 41.7493 45.0082L41.3631 43.9258C41.3631 43.9258 38.9282 43.085 37.6156 42.9252L37.6175 42.9328Z" stroke="#BD9B60" stroke-miterlimit="10"/>
<defs>
<linearGradient id="paint0_linear_1_1929" x1="85.8173" y1="80.9135" x2="33.6455" y2="6.6858" gradientUnits="userSpaceOnUse">
<stop stop-color="#C8DAE5"/>
<stop offset="1" stop-color="#004976"/>
</linearGradient>
</defs>
</svg>
