<svg width="103" height="102" viewBox="0 0 103 102" fill="none" xmlns="http://www.w3.org/2000/svg">
<circle r="49.0385" transform="matrix(-1 0 0 1 53.6804 49.0385)" fill="url(#paint0_linear_1_1990)"/>
<circle r="45.9" transform="matrix(-1 0 0 1 45.9 56.1)" fill="white"/>
<g clip-path="url(#clip0_1_1990)">
<path d="M37.8631 56.0623C37.3773 56.4027 37.003 56.8826 36.7883 57.4406C36.5737 57.9984 36.5286 58.6086 36.6587 59.1927C36.7887 59.7768 37.0882 60.3081 37.5184 60.7183C37.9486 61.1284 38.4899 61.3985 39.0728 61.494C39.8363 62.7687 40.9111 63.822 42.1933 64.5521C43.4755 65.2822 44.9217 65.6645 46.3921 65.662C46.5565 65.662 46.7045 65.662 46.8606 65.6503C48.5447 65.5629 50.1656 64.9724 51.5195 63.9528C52.8734 62.9331 53.8997 61.5301 54.4692 59.9202C54.9438 59.889 55.4075 59.7624 55.8333 59.5475C56.2591 59.3327 56.6385 59.0341 56.9494 58.6691C57.2602 58.304 57.4963 57.8799 57.644 57.4213C57.7916 56.9628 57.8477 56.479 57.8091 55.9982C57.7704 55.5174 57.6379 55.0492 57.419 54.621C57.2002 54.1927 56.8995 53.8129 56.5345 53.5037C56.1695 53.1945 55.7474 52.9621 55.2929 52.8201C54.8384 52.678 54.3606 52.6291 53.8873 52.6763C53.161 51.3574 52.1071 50.2541 50.8303 49.4762C49.5535 48.6982 48.0983 48.2726 46.6091 48.2416C46.5206 47.6919 46.3102 47.1697 45.9939 46.7144C45.6776 46.2591 45.2635 45.8826 44.7828 45.6132C44.3022 45.3437 43.7675 45.1885 43.2192 45.159C42.6708 45.1296 42.123 45.2267 41.617 45.4431C41.111 45.6596 40.66 45.9897 40.298 46.4086C39.9361 46.8274 39.6725 47.3242 39.5273 47.8613C39.382 48.3985 39.3589 48.9621 39.4596 49.5096C39.5601 50.0572 39.782 50.5744 40.1084 51.0224C40.0788 51.0558 40.0443 51.0858 40.013 51.1208C38.8002 52.4966 38.0477 54.2263 37.8631 56.0623ZM38.5666 59.6484C38.3096 59.4139 38.1408 59.0963 38.0888 58.7497C38.0368 58.4031 38.1049 58.0489 38.2816 57.7475C38.4582 57.4461 38.7324 57.2162 39.0574 57.0969C39.3824 56.9776 39.7382 56.9763 40.0641 57.0932C40.3899 57.21 40.6658 57.4379 40.8446 57.738C41.0234 58.038 41.0941 58.3917 41.0447 58.7387C40.9952 59.0857 40.8287 59.4045 40.5734 59.6409C40.3181 59.8774 39.99 60.0167 39.6448 60.0352C39.2491 60.0563 38.8613 59.9172 38.5666 59.6484ZM54.2325 54.1467C54.5763 54.1467 54.9149 54.2314 55.2191 54.3936C55.5234 54.5559 55.7842 54.7908 55.979 55.0781C56.1738 55.3654 56.2967 55.6964 56.3372 56.0427C56.3776 56.3889 56.3344 56.7399 56.2113 57.0654C56.0882 57.391 55.8888 57.6813 55.6305 57.9112C55.372 58.1411 55.0624 58.3038 54.7281 58.3853C54.3938 58.4667 54.0451 58.4645 53.7119 58.3787C53.3787 58.2929 53.0711 58.1261 52.8156 57.8929C52.4963 57.6024 52.2714 57.2204 52.1708 56.7974C52.0702 56.3744 52.0987 55.9304 52.2526 55.5241C52.4064 55.118 52.6782 54.7688 53.0321 54.5228C53.3859 54.2768 53.8051 54.1457 54.2341 54.1467H54.2325Z" stroke="url(#paint1_linear_1_1990)" stroke-miterlimit="10"/>
<path d="M29.324 56.7141C29.3296 61.2085 31.0629 65.5235 34.1555 68.7422C37.2482 71.9609 41.4563 73.8295 45.8857 73.951L46.0813 75.1664C46.1001 75.2842 46.1463 75.3956 46.2164 75.4914C46.2865 75.5871 46.3783 75.6644 46.484 75.7166C46.5895 75.7695 46.706 75.7958 46.8236 75.7931C46.9413 75.7905 47.0565 75.7592 47.1596 75.7016L51.9772 73.0341C52.1018 72.965 52.2041 72.8609 52.2717 72.7342C52.3393 72.6075 52.3694 72.4638 52.3583 72.3202C52.3471 72.1765 52.2953 72.0393 52.2091 71.9249C52.1228 71.8105 52.0057 71.7238 51.872 71.6754L46.3065 69.663C46.186 69.6196 46.0564 69.6089 45.9305 69.6317C45.8046 69.6547 45.6867 69.7104 45.5885 69.7935C45.4903 69.8766 45.4151 69.9843 45.3704 70.1058C45.3257 70.2273 45.313 70.3586 45.3335 70.4866L45.6441 72.4256C41.651 72.245 37.88 70.5108 35.115 67.5832C32.3499 64.6556 30.8033 60.7599 30.7967 56.7057C30.7967 56.5067 30.7188 56.316 30.5801 56.1752C30.4413 56.0345 30.2532 55.9555 30.057 55.9555C29.8609 55.9555 29.6727 56.0345 29.534 56.1752C29.3953 56.316 29.3174 56.5067 29.3174 56.7057L29.324 56.7141Z" stroke="url(#paint2_linear_1_1990)" stroke-miterlimit="10"/>
<path d="M62.5995 57.461C62.7948 57.461 62.9821 57.3823 63.1202 57.2423C63.2583 57.1022 63.3359 56.9122 63.3359 56.7141C63.3306 52.2061 61.5869 47.879 58.4777 44.6577C55.3684 41.4364 51.1403 39.5765 46.6969 39.4755L46.4602 37.6182C46.445 37.5 46.4021 37.3872 46.3352 37.2892C46.2683 37.1912 46.1792 37.1108 46.0755 37.0547C45.9707 37.0004 45.8547 36.9721 45.737 36.9721C45.6192 36.9721 45.5032 37.0004 45.3983 37.0547L40.4985 39.5555C40.3716 39.6204 40.266 39.7212 40.1942 39.8457C40.1226 39.9702 40.0879 40.113 40.0945 40.2571C40.1011 40.4011 40.1487 40.5401 40.2315 40.6573C40.3143 40.7745 40.4287 40.8649 40.561 40.9176L46.0575 43.1116C46.1433 43.146 46.2348 43.1636 46.327 43.1633C46.4317 43.1637 46.5354 43.1414 46.6309 43.0978C46.7264 43.0543 46.8116 42.9905 46.8808 42.9107C46.9499 42.8309 47.0014 42.737 47.0317 42.6354C47.0621 42.5337 47.0707 42.4266 47.0568 42.3213L46.8925 40.9976C50.9085 41.1468 54.7113 42.8682 57.5026 45.8005C60.294 48.7329 61.8569 52.648 61.8631 56.7241C61.8662 56.9203 61.945 57.1075 62.0827 57.2453C62.2205 57.3831 62.4061 57.4606 62.5995 57.461Z" stroke="url(#paint3_linear_1_1990)" stroke-miterlimit="10"/>
</g>
<defs>
<linearGradient id="paint0_linear_1_1990" x1="85.8173" y1="80.9135" x2="33.6455" y2="6.6858" gradientUnits="userSpaceOnUse">
<stop stop-color="#C8DAE5"/>
<stop offset="1" stop-color="#004976"/>
</linearGradient>
<linearGradient id="paint1_linear_1_1990" x1="38.3253" y1="55.4079" x2="55.2118" y2="55.4079" gradientUnits="userSpaceOnUse">
<stop stop-color="#BD9B60"/>
<stop offset="1" stop-color="#C6A978"/>
</linearGradient>
<linearGradient id="paint2_linear_1_1990" x1="31.2049" y1="65.8744" x2="49.5293" y2="65.8744" gradientUnits="userSpaceOnUse">
<stop stop-color="#BD9B60"/>
<stop offset="1" stop-color="#C6A978"/>
</linearGradient>
<linearGradient id="paint3_linear_1_1990" x1="41.9975" y1="47.2166" x2="60.4802" y2="47.2166" gradientUnits="userSpaceOnUse">
<stop stop-color="#BD9B60"/>
<stop offset="1" stop-color="#C6A978"/>
</linearGradient>
<clipPath id="clip0_1_1990">
<rect width="34.8655" height="40.8" fill="white" transform="translate(28.9004 35.7)"/>
</clipPath>
</defs>
</svg>
