<svg width="150" height="150" fill="none" xmlns="http://www.w3.org/2000/svg">
  <g clip-path="url(#a)" fill="#fff">
    <path d="M80.1265 107.76H49.0359c-.4661 0-.9094-.096-1.3077-.257-.4205-.168-.7953-.425-1.114-.738-.3238-.313-.5796-.682-.7504-1.095-.1646-.391-.2614-.827-.2614-1.285V51.0848c0-.4581.0968-.8939.2614-1.2853.1708-.4133.4266-.7818.7504-1.0951.3181-.3127.6935-.5642 1.114-.7375.3977-.1619.841-.257 1.3077-.257h6.0008c.1647 1.1826.7275 2.2449 1.5474 3.0507.9834.9666 2.3416 1.5648 3.8311 1.5648h18.8703c1.4951 0 2.8533-.5976 3.8367-1.5648.8198-.8058 1.3783-1.8681 1.5418-3.0507h6.0064c.4661 0 .9039.0951 1.3077.257.4149.1733.7953.4248 1.114.7375.3182.3127.574.6818.7504 1.0951.1646.3909.2558.8266.2558 1.2853v27.3823c0 .4357.3638.7933.8015.7933s.8015-.3576.8015-.7933V51.0848c0-.6648-.1363-1.3017-.381-1.8884-.2559-.609-.6307-1.1508-1.0968-1.609-.4606-.4527-1.0118-.8212-1.6314-1.0727-.5968-.246-1.2448-.3799-1.9211-.3799h-5.9564V44.833c0-.363-.1535-.6987-.3921-.9387-.2447-.24-.5857-.3854-.955-.3854h-8.3436c-.1424-1.1679-.6825-2.2181-1.489-3.006-.945-.9277-2.247-1.5029-3.6848-1.5029-1.4378 0-2.7399.5752-3.6832 1.5029-.8015.7879-1.3471 1.8381-1.4889 3.006h-8.3381c-.3754 0-.7108.1454-.955.3854-.2442.24-.3977.5757-.3977.9387v1.3018h-5.9513c-.6764 0-1.3305.1339-1.9212.3799-.6196.2515-1.1763.62-1.6369 1.0727-.4599.4582-.8354 1-1.0912 1.609C44.1363 49.7831 44 50.42 44 51.0848v53.3002c0 .665.1363 1.307.3866 1.889.2558.609.6307 1.156 1.0912 1.609.4606.452 1.0173.821 1.6369 1.072.5913.246 1.2448.38 1.9212.38h31.0906c.3977 0 .7275-.357.7275-.788 0-.43-.3293-.787-.7275-.787ZM67.3038 41.6144c.6535-.6424 1.5518-1.0393 2.5463-1.0393.9945 0 1.8983.3969 2.5518 1.0393.5118.503.87 1.1624 1.0007 1.8939h-7.0994c.1251-.7315.4889-1.3909 1.0006-1.8939ZM56.5952 45.084h26.5153v1.9053c0 1.0339-.4321 1.972-1.1252 2.6538-.6936.6818-1.6486 1.106-2.6998 1.106H60.4147c-1.0457 0-2.0068-.4248-2.6998-1.106-.6936-.6818-1.1197-1.6205-1.1197-2.6538V45.084Z"/>
    <path d="M60.1532 94.5184c-.3409-.2739-.8526-.2181-1.1257.117l-4.4335 5.3976-1.8644-1.4918c-.341-.2739-.8471-.2236-1.1252.1115-.2842.3352-.2275.8327.1135 1.1066l2.4784 1.9887c.1702.14.3804.196.5796.174.2163-.012.4266-.112.5684-.291l4.928-6.006c.2786-.3352.2219-.8327-.1196-1.106l.0005-.0006Zm0-12.683c-.3409-.2679-.8526-.2181-1.1257.123-1.4779 1.7993-2.9557 3.598-4.4335 5.3973-.6196-.497-1.2448-1-1.8644-1.4975-.341-.2739-.8471-.2236-1.1252.1116-.2842.3351-.2275.8381.1135 1.1115.8243.6593 1.6541 1.3241 2.4784 1.9889.1702.134.3804.1898.5796.1734.2163-.017.4266-.117.5684-.2904 1.6425-2.0059 3.2849-4.0058 4.928-6.0063.2786-.3411.2219-.8381-.1196-1.1115h.0005Zm15.9886 3.6205c0-.4358-.3638-.7879-.8015-.7879H62.6088c-.4433 0-.807.3521-.807.7879 0 .4357.3637.7878.807.7878h12.7315c.4377 0 .8015-.3576.8015-.7878ZM60.1532 69.1585c-.3409-.2739-.8526-.2181-1.1257.1175-1.4779 1.7988-2.9557 3.598-4.4335 5.3973-.6196-.4975-1.2448-.9945-1.8644-1.4914-.341-.2794-.8471-.2237-1.1252.1115-.2842.3351-.2275.8327.1135 1.106.8243.6648 1.6541 1.3297 2.4784 1.989.1702.134.3804.1903.5796.1733.2163-.0109.4266-.1121.5684-.2908 1.6425-2 3.2849-4.0004 4.928-6.0058.2786-.3352.2219-.8382-.1196-1.1066h.0005Zm2.4556 28.1865c-.4433 0-.807.3575-.807.7878 0 .4303.3637.7878.807.7878h9.7703c.4433 0 .807-.3521.807-.7878 0-.4357-.3637-.7878-.807-.7878h-9.7703Zm-2.4556-40.8689c-.3409-.2739-.8526-.2181-1.1257.1176l-4.4335 5.4027-1.8644-1.4975c-.341-.2739-.8471-.2236-1.1252.1116-.2842.3351-.2275.8381.1135 1.112l2.4784 1.989c.1702.1339.3804.1897.5796.1733.2163-.0169.4266-.1175.5684-.2903l4.928-6.0063c.2786-.3406.2219-.8382-.1196-1.1121h.0005Zm27.9191 2.8326H62.6088c-.4433 0-.807.3521-.807.7878 0 .4358.3637.7879.807.7879h25.4635c.4433 0 .8015-.3576.8015-.7879 0-.4302-.3582-.7878-.8015-.7878Zm.8015 13.4647c0-.4302-.3582-.7878-.8015-.7878H62.6088c-.4433 0-.807.3576-.807.7878 0 .4303.3637.7879.807.7879h25.4635c.4433 0 .8015-.3521.8015-.7879Zm9.6854 17.0448c-.341-.2739-.8471-.2121-1.1252.117l-7.6906 9.0959-3.018-2.358c-.3465-.2679-.8471-.2236-1.1252.1115-.2787.3351-.2331.8381.1135 1.1115l3.632 2.8499c.1707.134.381.19.5795.173.2158-.017.4205-.118.5685-.29l8.1906-9.7053c.2787-.3297.2214-.8327-.1251-1.106v.0005Z"/>
    <path d="M102.549 85.4952c-2.7508-2.7041-6.5474-4.3744-10.7423-4.3744-4.1949 0-7.9971 1.6703-10.7481 4.3744-2.7509 2.7041-4.4507 6.4421-4.4507 10.5649 0 4.1229 1.6998 7.8609 4.4507 10.5649 2.751 2.704 6.5477 4.374 10.7481 4.374 4.2005 0 7.9915-1.67 10.7423-4.374 2.751-2.704 4.451-6.442 4.451-10.5649 0-4.1228-1.699-7.8608-4.451-10.5649Zm-1.131 20.0128c-2.4607 2.419-5.8597 3.917-9.6107 3.917-3.7511 0-7.1561-1.498-9.6173-3.917-2.4551-2.419-3.9786-5.7602-3.9786-9.4473s1.5235-7.0287 3.9786-9.4474c2.4612-2.4193 5.8601-3.9168 9.6173-3.9168 3.7571 0 7.1505 1.4975 9.6107 3.9168 2.462 2.4192 3.979 5.7603 3.979 9.4474s-1.517 7.0283-3.979 9.4473Z"/>
  </g>
  <circle cx="75" cy="75" r="74" stroke="#fff" stroke-width="2"/>
  <defs>
    <clipPath id="a">
      <path fill="#fff" transform="translate(44 39)" d="M0 0h63v72H0z"/>
    </clipPath>
  </defs>
</svg>
