<svg width="25" height="24" viewBox="0 0 25 24" fill="none" xmlns="http://www.w3.org/2000/svg">
<g clip-path="url(#clip0_208_81)">
<path d="M0.287354 0V24H24.2874V0H0.287354ZM8.28735 19H5.28735V8H8.28735V19ZM6.78735 6.732C5.82135 6.732 5.03735 5.942 5.03735 4.968C5.03735 3.994 5.82135 3.204 6.78735 3.204C7.75335 3.204 8.53735 3.994 8.53735 4.968C8.53735 5.942 7.75435 6.732 6.78735 6.732ZM20.2874 19H17.2874V13.396C17.2874 10.028 13.2874 10.283 13.2874 13.396V19H10.2874V8H13.2874V9.765C14.6844 7.179 20.2874 6.988 20.2874 12.241V19Z" fill="#CDE1EF"/>
</g>
<defs>
<clipPath id="clip0_208_81">
<rect width="25" height="24" fill="white"/>
</clipPath>
</defs>
</svg>
