<svg width="24" height="24" viewBox="0 0 24 24" fill="none" xmlns="http://www.w3.org/2000/svg">
<g clip-path="url(#clip0_208_90)">
<path d="M5.42705 0C3.98938 0.00472562 2.61194 0.577683 1.59478 1.59478C0.577622 2.61188 0.00471775 3.98934 0 5.42705V18.573C0.00472562 20.0106 0.577683 21.3881 1.59478 22.4052C2.61188 23.4224 3.98934 23.9953 5.42705 24H18.573C20.0106 23.9953 21.3881 23.4223 22.4052 22.4052C23.4224 21.3881 23.9953 20.0107 24 18.573V5.42705C23.9953 3.98938 23.4223 2.61194 22.4052 1.59478C21.3881 0.577622 20.0107 0.00471775 18.573 0H5.42705ZM12.0006 18C10.4091 18 8.88259 17.3683 7.75786 16.2435C6.63178 15.1175 6 13.5913 6 12C6 10.4087 6.63178 8.88353 7.75666 7.75769C8.88154 6.63292 10.4079 6 11.9994 6C13.5909 6 15.1174 6.63292 16.2433 7.75769C17.3682 8.88245 18 10.4087 18 12C18 13.5913 17.3682 15.1177 16.2433 16.2423C15.1185 17.3671 13.5921 18 12.0006 18H12.0006ZM19.5004 6C18.8939 6 18.3463 5.6342 18.1142 5.07372C17.8821 4.51324 18.0104 3.86828 18.4393 3.43934C18.8683 3.01043 19.5143 2.88206 20.0748 3.11418C20.6353 3.34629 21 3.89394 21 4.5004C21 4.89828 20.8417 5.27909 20.5604 5.56038C20.2791 5.84168 19.8983 6 19.5004 6Z" fill="#CDE1EF"/>
</g>
<defs>
<clipPath id="clip0_208_90">
<rect width="24" height="24" fill="white"/>
</clipPath>
</defs>
</svg>
