<svg width="1280" height="641" viewBox="0 0 1280 641" fill="none" xmlns="http://www.w3.org/2000/svg">
<path opacity="0.0344828" d="M296.828 -113.122C391.839 138.086 661.75 640.5 981.311 640.5C1300.87 640.5 1584.77 138.086 1686.78 -113.122" stroke="url(#paint0_linear_1_316)"/>
<path opacity="0.0689655" d="M280.87 -96.2432C375.153 149.338 642.998 640.5 960.113 640.5C1277.23 640.5 1558.96 149.338 1660.18 -96.2432" stroke="url(#paint1_linear_1_316)"/>
<path opacity="0.103448" d="M264.912 -79.3647C358.468 160.59 624.247 640.5 938.916 640.5C1253.58 640.5 1533.14 160.59 1633.59 -79.3647" stroke="url(#paint2_linear_1_316)"/>
<path opacity="0.137931" d="M248.953 -62.4863C341.782 171.842 605.496 640.5 917.719 640.5C1229.94 640.5 1507.33 171.842 1606.99 -62.4863" stroke="url(#paint3_linear_1_316)"/>
<path opacity="0.172414" d="M232.995 -45.6079C325.097 183.095 586.745 640.5 896.522 640.5C1206.3 640.5 1481.51 183.095 1580.39 -45.6079" stroke="url(#paint4_linear_1_316)"/>
<path opacity="0.206897" d="M217.036 -28.7295C308.411 194.347 567.993 640.5 875.324 640.5C1182.65 640.5 1455.69 194.347 1553.8 -28.7295" stroke="url(#paint5_linear_1_316)"/>
<path opacity="0.241379" d="M201.079 -11.8511C291.726 205.599 549.242 640.5 854.127 640.5C1159.01 640.5 1429.88 205.599 1527.2 -11.8511" stroke="url(#paint6_linear_1_316)"/>
<path opacity="0.275862" d="M185.121 5.02734C275.041 216.852 530.491 640.5 832.93 640.5C1135.37 640.5 1404.06 216.852 1500.6 5.02734" stroke="url(#paint7_linear_1_316)"/>
<path opacity="0.310345" d="M169.163 21.9058C258.356 228.104 511.74 640.5 811.733 640.5C1111.73 640.5 1378.25 228.104 1474.01 21.9058" stroke="url(#paint8_linear_1_316)"/>
<path opacity="0.344828" d="M153.205 38.7842C241.671 239.356 492.989 640.5 790.536 640.5C1088.08 640.5 1352.43 239.356 1447.41 38.7842" stroke="url(#paint9_linear_1_316)"/>
<path opacity="0.37931" d="M137.247 55.6626C224.985 250.608 474.237 640.5 769.339 640.5C1064.44 640.5 1326.61 250.608 1420.81 55.6626" stroke="url(#paint10_linear_1_316)"/>
<path opacity="0.413793" d="M121.289 72.541C208.3 261.861 455.486 640.5 748.142 640.5C1040.8 640.5 1300.8 261.861 1394.22 72.541" stroke="url(#paint11_linear_1_316)"/>
<path opacity="0.448276" d="M105.33 89.4194C191.614 273.113 436.734 640.5 726.943 640.5C1017.15 640.5 1274.98 273.113 1367.62 89.4194" stroke="url(#paint12_linear_1_316)"/>
<path opacity="0.482759" d="M89.3721 106.298C174.929 284.365 417.983 640.5 705.747 640.5C993.511 640.5 1249.16 284.365 1341.02 106.298" stroke="url(#paint13_linear_1_316)"/>
<path opacity="0.517241" d="M73.4131 123.176C158.243 295.617 399.231 640.5 684.549 640.5C969.866 640.5 1223.35 295.617 1314.42 123.176" stroke="url(#paint14_linear_1_316)"/>
<path opacity="0.551724" d="M57.4556 140.055C141.558 306.87 380.481 640.5 663.352 640.5C946.224 640.5 1197.53 306.87 1287.83 140.055" stroke="url(#paint15_linear_1_316)"/>
<path opacity="0.586207" d="M41.4976 156.933C124.873 318.122 361.73 640.5 642.155 640.5C922.581 640.5 1171.72 318.122 1261.23 156.933" stroke="url(#paint16_linear_1_316)"/>
<path opacity="0.62069" d="M25.5396 173.812C108.188 329.374 342.978 640.5 620.958 640.5C898.938 640.5 1145.9 329.374 1234.63 173.812" stroke="url(#paint17_linear_1_316)"/>
<path opacity="0.655172" d="M9.58203 190.69C91.5028 340.627 324.228 640.5 599.762 640.5C875.295 640.5 1120.08 340.627 1208.04 190.69" stroke="url(#paint18_linear_1_316)"/>
<path opacity="0.689655" d="M-6.37695 207.568C74.8166 351.879 305.476 640.5 578.564 640.5C851.652 640.5 1094.27 351.879 1181.44 207.568" stroke="url(#paint19_linear_1_316)"/>
<path opacity="0.724138" d="M-22.3345 224.447C58.1318 363.131 286.725 640.5 557.367 640.5C828.009 640.5 1068.45 363.131 1154.84 224.447" stroke="url(#paint20_linear_1_316)"/>
<path opacity="0.758621" d="M-38.2925 241.325C41.4466 374.383 267.974 640.5 536.17 640.5C804.366 640.5 1042.64 374.383 1128.25 241.325" stroke="url(#paint21_linear_1_316)"/>
<path opacity="0.793103" d="M-54.251 258.204C24.7609 385.636 249.222 640.5 514.972 640.5C780.723 640.5 1016.82 385.636 1101.65 258.204" stroke="url(#paint22_linear_1_316)"/>
<path opacity="0.827586" d="M-70.21 275.082C8.07471 396.888 230.47 640.5 493.774 640.5C757.079 640.5 991.003 396.888 1075.05 275.082" stroke="url(#paint23_linear_1_316)"/>
<path opacity="0.862069" d="M-86.168 291.96C-8.61052 408.14 211.719 640.5 472.577 640.5C733.436 640.5 965.187 408.14 1048.46 291.96" stroke="url(#paint24_linear_1_316)"/>
<path opacity="0.896552" d="M-102.126 308.839C-25.2962 419.393 192.967 640.5 451.38 640.5C709.792 640.5 939.37 419.393 1021.86 308.839" stroke="url(#paint25_linear_1_316)"/>
<path opacity="0.931035" d="M-118.083 325.717C-41.9805 430.645 174.217 640.5 430.184 640.5C686.15 640.5 913.555 430.645 995.262 325.717" stroke="url(#paint26_linear_1_316)"/>
<path opacity="0.965517" d="M-134.042 342.596C-58.6662 441.897 155.466 640.5 408.986 640.5C662.507 640.5 887.739 441.897 968.665 342.596" stroke="url(#paint27_linear_1_316)"/>
<path d="M-150 359.474C-75.3514 453.15 136.714 640.5 387.789 640.5C638.864 640.5 861.923 453.15 942.068 359.474" stroke="url(#paint28_linear_1_316)"/>
<defs>
<linearGradient id="paint0_linear_1_316" x1="288.027" y1="559.028" x2="1686.78" y2="559.028" gradientUnits="userSpaceOnUse">
<stop stop-color="#166799" stop-opacity="0"/>
<stop offset="0.135417" stop-color="#166799"/>
<stop offset="0.880208" stop-color="#BD9B60"/>
<stop offset="1" stop-color="#BD9B60" stop-opacity="0"/>
</linearGradient>
<linearGradient id="paint1_linear_1_316" x1="272.136" y1="560.853" x2="1660.18" y2="560.853" gradientUnits="userSpaceOnUse">
<stop stop-color="#166799" stop-opacity="0"/>
<stop offset="0.135417" stop-color="#166799"/>
<stop offset="0.880208" stop-color="#BD9B60"/>
<stop offset="1" stop-color="#BD9B60" stop-opacity="0"/>
</linearGradient>
<linearGradient id="paint2_linear_1_316" x1="256.245" y1="562.677" x2="1633.59" y2="562.677" gradientUnits="userSpaceOnUse">
<stop stop-color="#166799" stop-opacity="0"/>
<stop offset="0.135417" stop-color="#166799"/>
<stop offset="0.880208" stop-color="#BD9B60"/>
<stop offset="1" stop-color="#BD9B60" stop-opacity="0"/>
</linearGradient>
<linearGradient id="paint3_linear_1_316" x1="240.354" y1="564.502" x2="1606.99" y2="564.502" gradientUnits="userSpaceOnUse">
<stop stop-color="#166799" stop-opacity="0"/>
<stop offset="0.135417" stop-color="#166799"/>
<stop offset="0.880208" stop-color="#BD9B60"/>
<stop offset="1" stop-color="#BD9B60" stop-opacity="0"/>
</linearGradient>
<linearGradient id="paint4_linear_1_316" x1="224.463" y1="566.327" x2="1580.39" y2="566.327" gradientUnits="userSpaceOnUse">
<stop stop-color="#166799" stop-opacity="0"/>
<stop offset="0.135417" stop-color="#166799"/>
<stop offset="0.880208" stop-color="#BD9B60"/>
<stop offset="1" stop-color="#BD9B60" stop-opacity="0"/>
</linearGradient>
<linearGradient id="paint5_linear_1_316" x1="208.572" y1="568.151" x2="1553.8" y2="568.151" gradientUnits="userSpaceOnUse">
<stop stop-color="#166799" stop-opacity="0"/>
<stop offset="0.135417" stop-color="#166799"/>
<stop offset="0.880208" stop-color="#BD9B60"/>
<stop offset="1" stop-color="#BD9B60" stop-opacity="0"/>
</linearGradient>
<linearGradient id="paint6_linear_1_316" x1="192.681" y1="569.976" x2="1527.2" y2="569.976" gradientUnits="userSpaceOnUse">
<stop stop-color="#166799" stop-opacity="0"/>
<stop offset="0.135417" stop-color="#166799"/>
<stop offset="0.880208" stop-color="#BD9B60"/>
<stop offset="1" stop-color="#BD9B60" stop-opacity="0"/>
</linearGradient>
<linearGradient id="paint7_linear_1_316" x1="176.791" y1="571.801" x2="1500.6" y2="571.801" gradientUnits="userSpaceOnUse">
<stop stop-color="#166799" stop-opacity="0"/>
<stop offset="0.135417" stop-color="#166799"/>
<stop offset="0.880208" stop-color="#BD9B60"/>
<stop offset="1" stop-color="#BD9B60" stop-opacity="0"/>
</linearGradient>
<linearGradient id="paint8_linear_1_316" x1="160.901" y1="573.625" x2="1474.01" y2="573.625" gradientUnits="userSpaceOnUse">
<stop stop-color="#166799" stop-opacity="0"/>
<stop offset="0.135417" stop-color="#166799"/>
<stop offset="0.880208" stop-color="#BD9B60"/>
<stop offset="1" stop-color="#BD9B60" stop-opacity="0"/>
</linearGradient>
<linearGradient id="paint9_linear_1_316" x1="145.01" y1="575.45" x2="1447.41" y2="575.45" gradientUnits="userSpaceOnUse">
<stop stop-color="#166799" stop-opacity="0"/>
<stop offset="0.135417" stop-color="#166799"/>
<stop offset="0.880208" stop-color="#BD9B60"/>
<stop offset="1" stop-color="#BD9B60" stop-opacity="0"/>
</linearGradient>
<linearGradient id="paint10_linear_1_316" x1="129.119" y1="577.275" x2="1420.81" y2="577.275" gradientUnits="userSpaceOnUse">
<stop stop-color="#166799" stop-opacity="0"/>
<stop offset="0.135417" stop-color="#166799"/>
<stop offset="0.880208" stop-color="#BD9B60"/>
<stop offset="1" stop-color="#BD9B60" stop-opacity="0"/>
</linearGradient>
<linearGradient id="paint11_linear_1_316" x1="113.228" y1="579.099" x2="1394.22" y2="579.099" gradientUnits="userSpaceOnUse">
<stop stop-color="#166799" stop-opacity="0"/>
<stop offset="0.135417" stop-color="#166799"/>
<stop offset="0.880208" stop-color="#BD9B60"/>
<stop offset="1" stop-color="#BD9B60" stop-opacity="0"/>
</linearGradient>
<linearGradient id="paint12_linear_1_316" x1="97.3365" y1="580.924" x2="1367.62" y2="580.924" gradientUnits="userSpaceOnUse">
<stop stop-color="#166799" stop-opacity="0"/>
<stop offset="0.135417" stop-color="#166799"/>
<stop offset="0.880208" stop-color="#BD9B60"/>
<stop offset="1" stop-color="#BD9B60" stop-opacity="0"/>
</linearGradient>
<linearGradient id="paint13_linear_1_316" x1="81.4464" y1="582.749" x2="1341.02" y2="582.749" gradientUnits="userSpaceOnUse">
<stop stop-color="#166799" stop-opacity="0"/>
<stop offset="0.135417" stop-color="#166799"/>
<stop offset="0.880208" stop-color="#BD9B60"/>
<stop offset="1" stop-color="#BD9B60" stop-opacity="0"/>
</linearGradient>
<linearGradient id="paint14_linear_1_316" x1="65.5548" y1="584.573" x2="1314.42" y2="584.573" gradientUnits="userSpaceOnUse">
<stop stop-color="#166799" stop-opacity="0"/>
<stop offset="0.135417" stop-color="#166799"/>
<stop offset="0.880208" stop-color="#BD9B60"/>
<stop offset="1" stop-color="#BD9B60" stop-opacity="0"/>
</linearGradient>
<linearGradient id="paint15_linear_1_316" x1="49.6646" y1="586.398" x2="1287.83" y2="586.398" gradientUnits="userSpaceOnUse">
<stop stop-color="#166799" stop-opacity="0"/>
<stop offset="0.135417" stop-color="#166799"/>
<stop offset="0.880208" stop-color="#BD9B60"/>
<stop offset="1" stop-color="#BD9B60" stop-opacity="0"/>
</linearGradient>
<linearGradient id="paint16_linear_1_316" x1="33.774" y1="588.223" x2="1261.23" y2="588.223" gradientUnits="userSpaceOnUse">
<stop stop-color="#166799" stop-opacity="0"/>
<stop offset="0.135417" stop-color="#166799"/>
<stop offset="0.880208" stop-color="#BD9B60"/>
<stop offset="1" stop-color="#BD9B60" stop-opacity="0"/>
</linearGradient>
<linearGradient id="paint17_linear_1_316" x1="17.8833" y1="590.047" x2="1234.63" y2="590.047" gradientUnits="userSpaceOnUse">
<stop stop-color="#166799" stop-opacity="0"/>
<stop offset="0.135417" stop-color="#166799"/>
<stop offset="0.880208" stop-color="#BD9B60"/>
<stop offset="1" stop-color="#BD9B60" stop-opacity="0"/>
</linearGradient>
<linearGradient id="paint18_linear_1_316" x1="1.99317" y1="591.872" x2="1208.04" y2="591.872" gradientUnits="userSpaceOnUse">
<stop stop-color="#166799" stop-opacity="0"/>
<stop offset="0.135417" stop-color="#166799"/>
<stop offset="0.880208" stop-color="#BD9B60"/>
<stop offset="1" stop-color="#BD9B60" stop-opacity="0"/>
</linearGradient>
<linearGradient id="paint19_linear_1_316" x1="-13.8984" y1="593.697" x2="1181.44" y2="593.697" gradientUnits="userSpaceOnUse">
<stop stop-color="#166799" stop-opacity="0"/>
<stop offset="0.135417" stop-color="#166799"/>
<stop offset="0.880208" stop-color="#BD9B60"/>
<stop offset="1" stop-color="#BD9B60" stop-opacity="0"/>
</linearGradient>
<linearGradient id="paint20_linear_1_316" x1="-29.7886" y1="595.521" x2="1154.84" y2="595.521" gradientUnits="userSpaceOnUse">
<stop stop-color="#166799" stop-opacity="0"/>
<stop offset="0.135417" stop-color="#166799"/>
<stop offset="0.880208" stop-color="#BD9B60"/>
<stop offset="1" stop-color="#BD9B60" stop-opacity="0"/>
</linearGradient>
<linearGradient id="paint21_linear_1_316" x1="-45.6792" y1="597.346" x2="1128.25" y2="597.346" gradientUnits="userSpaceOnUse">
<stop stop-color="#166799" stop-opacity="0"/>
<stop offset="0.135417" stop-color="#166799"/>
<stop offset="0.880208" stop-color="#BD9B60"/>
<stop offset="1" stop-color="#BD9B60" stop-opacity="0"/>
</linearGradient>
<linearGradient id="paint22_linear_1_316" x1="-61.5704" y1="599.171" x2="1101.65" y2="599.171" gradientUnits="userSpaceOnUse">
<stop stop-color="#166799" stop-opacity="0"/>
<stop offset="0.135417" stop-color="#166799"/>
<stop offset="0.880208" stop-color="#BD9B60"/>
<stop offset="1" stop-color="#BD9B60" stop-opacity="0"/>
</linearGradient>
<linearGradient id="paint23_linear_1_316" x1="-77.462" y1="600.995" x2="1075.05" y2="600.995" gradientUnits="userSpaceOnUse">
<stop stop-color="#166799" stop-opacity="0"/>
<stop offset="0.135417" stop-color="#166799"/>
<stop offset="0.880208" stop-color="#BD9B60"/>
<stop offset="1" stop-color="#BD9B60" stop-opacity="0"/>
</linearGradient>
<linearGradient id="paint24_linear_1_316" x1="-93.3526" y1="602.82" x2="1048.46" y2="602.82" gradientUnits="userSpaceOnUse">
<stop stop-color="#166799" stop-opacity="0"/>
<stop offset="0.135417" stop-color="#166799"/>
<stop offset="0.880208" stop-color="#BD9B60"/>
<stop offset="1" stop-color="#BD9B60" stop-opacity="0"/>
</linearGradient>
<linearGradient id="paint25_linear_1_316" x1="-109.244" y1="604.645" x2="1021.86" y2="604.645" gradientUnits="userSpaceOnUse">
<stop stop-color="#166799" stop-opacity="0"/>
<stop offset="0.135417" stop-color="#166799"/>
<stop offset="0.880208" stop-color="#BD9B60"/>
<stop offset="1" stop-color="#BD9B60" stop-opacity="0"/>
</linearGradient>
<linearGradient id="paint26_linear_1_316" x1="-125.133" y1="606.47" x2="995.262" y2="606.47" gradientUnits="userSpaceOnUse">
<stop stop-color="#166799" stop-opacity="0"/>
<stop offset="0.135417" stop-color="#166799"/>
<stop offset="0.880208" stop-color="#BD9B60"/>
<stop offset="1" stop-color="#BD9B60" stop-opacity="0"/>
</linearGradient>
<linearGradient id="paint27_linear_1_316" x1="-141.025" y1="608.294" x2="968.665" y2="608.294" gradientUnits="userSpaceOnUse">
<stop stop-color="#166799" stop-opacity="0"/>
<stop offset="0.135417" stop-color="#166799"/>
<stop offset="0.880208" stop-color="#BD9B60"/>
<stop offset="1" stop-color="#BD9B60" stop-opacity="0"/>
</linearGradient>
<linearGradient id="paint28_linear_1_316" x1="-156.915" y1="610.119" x2="942.068" y2="610.119" gradientUnits="userSpaceOnUse">
<stop stop-color="#166799" stop-opacity="0"/>
<stop offset="0.135417" stop-color="#166799"/>
<stop offset="0.880208" stop-color="#BD9B60"/>
<stop offset="1" stop-color="#BD9B60" stop-opacity="0"/>
</linearGradient>
</defs>
</svg>
