<svg width="170" height="62" viewBox="0 0 170 62" fill="none" xmlns="http://www.w3.org/2000/svg">
<g clip-path="url(#clip0_1_438)">
<path d="M8.07198 0H7.19595L0.143907 1.89703V2.73002L2.53422 3.95822V27.9082C2.53422 29.2945 1.89597 29.5316 0.062561 29.6472V30.9544H10.5436V29.6472L10.2433 29.6228C8.6414 29.4951 8.07824 29.2094 8.07824 27.9021V0H8.07198ZM22.4514 29.9268C19.3102 29.9268 17.9086 25.543 17.871 19.8154V19.5722C17.871 14.3919 19.2226 11.0721 22.1698 11.0721C25.311 11.0721 26.6751 15.4134 26.7127 21.147V21.3902C26.7127 26.5706 25.3986 29.9268 22.4514 29.9268ZM22.2512 31.3496C28.1894 31.3496 32.6071 26.7651 32.6071 20.0465C32.6071 13.8021 28.4647 9.61283 22.3701 9.61283C16.2754 9.61283 12.0141 14.2399 12.0141 20.9585C12.0141 27.2455 16.1565 31.3557 22.2512 31.3557V31.3496ZM49.8586 27.9082C49.8586 29.2945 49.2642 29.5316 47.4308 29.6472V30.9544H57.8681V29.6472L57.5677 29.6228C55.9658 29.4951 55.4027 29.2094 55.4027 27.9021V16.0518C55.4027 11.7409 53.4504 9.60675 49.7085 9.60675C46.3232 9.60675 44.0518 11.5038 42.3373 13.4798L42.4937 9.60675H41.5802L34.4468 11.7835V12.5374L36.8371 13.9237V27.9204C36.8371 29.3067 36.1988 29.5438 34.3279 29.6593V30.9666H44.7652V29.6593L44.4648 29.635C42.8692 29.5073 42.3373 29.2215 42.3373 27.9143V14.55C43.6138 13.6805 45.1281 12.9265 46.7988 12.9265C48.9889 12.9265 49.8649 14.0757 49.8649 16.368V27.9082H49.8586ZM68.1051 23.4818C73.086 23.4818 76.6276 20.9099 76.6276 16.7206C76.6276 14.7445 75.5138 13.0846 74.1184 12.1726L76.9092 12.2942H78.5424V10.002L71.8095 10.16L71.434 10.0567C70.5392 9.81956 69.5568 9.60675 68.2678 9.60675C63.2869 9.60675 59.5826 12.2942 59.5826 16.8422C59.5826 19.6513 61.1344 21.4693 63.2494 22.4968L62.9616 22.6792C61.2283 23.8041 59.545 25.2694 59.545 27.4765C59.545 29.0999 60.4586 30.4801 62.0167 31.076C60.1019 31.6719 58.2748 32.7785 58.2748 34.791C58.2748 37.9953 61.8978 39.7342 67.7172 39.7342C74.3312 39.7342 79.3496 36.9677 79.3496 31.988C79.3496 28.5102 76.9593 26.5706 72.3413 26.5706H64.1379C63.2619 26.5706 62.7426 26.0537 62.7426 25.2268C62.7426 24.3999 63.337 23.5669 64.0941 22.8555C65.3268 23.2933 66.7222 23.4879 68.1176 23.4879L68.1051 23.4818ZM72.2475 31.5867C74.1998 31.5867 75.3949 32.2191 75.3949 33.958C75.3949 36.9252 71.8908 38.2263 67.9862 38.2263C64.0816 38.2263 61.8916 36.5664 61.8916 33.9155C61.8916 32.9669 62.1293 32.1765 62.6487 31.5807H72.2475V31.5867ZM68.3429 22.1806C66.0339 22.1806 64.9201 19.554 64.8763 16.3923V16.2099C64.8763 13.1272 65.7899 10.9505 68.0238 10.9505C70.2576 10.9505 71.409 13.6805 71.409 16.8422C71.409 20.0039 70.533 22.1806 68.3429 22.1806ZM90.0121 9.61283C84.5557 9.61283 80.1756 14.2764 80.1756 21.0376C80.1756 27.1239 84.0363 31.3557 89.8182 31.3557C94.3985 31.3557 97.3082 28.6682 98.3407 24.7526L97.7024 24.3938C96.2695 26.449 94.4736 27.5981 91.7642 27.5981C87.8596 27.5981 84.9937 24.3148 85.1502 18.7818H98.1342V17.8698C98.1342 13.1272 95.3434 9.60675 90.0059 9.60675L90.0121 9.61283ZM89.6117 11.0782C92.2022 11.0782 93.1971 13.6075 93.1971 17.3225H85.2315C85.5506 13.6866 86.9836 11.0782 89.6117 11.0782ZM121.28 10.008H114.391V11.3153L114.904 11.3883C116.568 11.6254 117.1 11.8321 117.1 12.659C117.1 12.9752 117.019 13.2123 116.819 13.7291L112.357 24.7161L107.577 13.7656L107.489 13.4859C107.389 13.1394 107.339 12.9144 107.339 12.659C107.339 11.747 107.977 11.5524 110.011 11.3153V10.008H99.1729V11.3153L99.4607 11.4004C100.637 11.7531 100.831 12.051 101.2 12.8171L109.886 31.2402H111.362L119.247 12.8171C119.603 11.9841 119.841 11.7105 121.28 11.3153V10.008ZM130.322 9.61283H129.446L122.438 11.7895V12.5435L124.828 13.9298V27.9264C124.828 29.3127 124.19 29.5499 122.319 29.6654V30.9726H132.838V29.6654L132.393 29.635C130.86 29.5012 130.328 29.1972 130.328 27.9264V9.60675L130.322 9.61283ZM127.494 7.24154C129.446 7.24154 130.76 5.77621 130.76 4.11631C130.76 2.45641 129.446 0.991076 127.494 0.991076C125.541 0.991076 124.265 2.41385 124.265 4.11631C124.265 5.81877 125.579 7.24154 127.494 7.24154ZM141.516 4.87026H140.321C138.607 7.47867 136.26 9.69187 133.507 10.9201V11.8321H135.979V25.2329C135.979 29.6593 138.369 31.3618 141.635 31.3618C144.501 31.3618 146.497 29.939 147.768 27.9629L147.292 27.2515C146.297 28.0055 145.421 28.3581 144.307 28.3581C142.436 28.3581 141.516 27.3306 141.516 24.9167V11.8199H146.698V10.002H141.516V4.86418V4.87026ZM161.115 25.464L165.576 13.7656C165.776 13.2914 165.858 12.9752 165.858 12.659C165.858 11.747 165.219 11.5524 163.148 11.3153V10.008H170V11.3153C168.605 11.7105 168.329 11.9902 167.966 12.8171L159.2 34.7181C157.886 37.9223 156.528 39.6613 153.944 39.6613C152.592 39.6613 151.272 38.9864 150.877 37.8433V35.8247L151.403 35.9463C152.041 36.0861 152.68 36.1834 153.587 36.1834C155.683 36.1834 156.985 35.6179 157.823 33.5811L158.568 31.7144L150.001 12.8171C149.645 11.9841 149.407 11.7105 147.968 11.3153V10.008H158.806V11.3153L158.461 11.3579C156.697 11.5767 156.096 11.8017 156.096 12.659C156.096 12.9752 156.177 13.2914 156.334 13.7656L161.115 25.464Z" fill="#004976"/>
<path d="M5.80683 50.6301C2.40283 50.6301 0 53.044 0 56.3151C0 59.5863 2.40283 62.0001 5.80683 62.0001C7.74661 62.0001 9.41107 61.155 10.3559 59.7808L8.89797 58.7229C8.20966 59.7079 7.12088 60.2977 5.80683 60.2977C3.54167 60.2977 1.87721 58.6742 1.87721 56.309C1.87721 53.9438 3.54167 52.3204 5.80683 52.3204C7.12713 52.3204 8.22843 52.9284 8.90423 53.9013L10.3997 52.9163C9.52996 51.4935 7.7779 50.624 5.80683 50.624V50.6301ZM24.3537 60.1396H18.0587V57.1116H24.0408V55.4517H18.0587V52.4967H24.2535V50.8368H16.2691V61.7995H24.3599V60.1396H24.3537ZM40.191 50.8368H38.4014V58.7715L32.2066 50.8368H30.5922V61.7995H32.3818V53.8648L38.5766 61.7995H40.191V50.8368ZM54.4954 50.8368H45.5286V52.515H49.114V61.8055H50.9036V52.515H54.4891V50.8368H54.4954ZM67.9174 60.1396H61.6225V57.1116H67.6045V55.4517H61.6225V52.4967H67.8173V50.8368H59.8329V61.7995H67.9237V60.1396H67.9174ZM74.156 50.8368V61.7995H75.9456V57.1846H76.8467L80.3821 61.7995H82.5972L78.9429 57.1846C81.2018 57.1055 82.641 55.8713 82.641 54.0046C82.641 51.9617 81.2644 50.8307 78.7114 50.8307H74.1497L74.156 50.8368ZM78.6738 52.4967C80.0755 52.4967 80.7888 52.9649 80.7888 54.0107C80.7888 55.0565 80.113 55.5855 78.6738 55.5855H75.9519V52.5028H78.6738V52.4967Z" fill="#BD9B60"/>
</g>
<defs>
<clipPath id="clip0_1_438">
<rect width="170" height="62" fill="white"/>
</clipPath>
</defs>
</svg>
