<svg width="163" height="203" viewBox="0 0 163 203" fill="none" xmlns="http://www.w3.org/2000/svg">
<path d="M0 0C0.583959 3.10139 3.08933 5.48852 6.22576 5.92083L13.5959 6.34375C19.9535 6.34375 21.6536 9.09271 21.6536 11.6913V190.656C21.6536 196.656 6.48007 197.112 6.48007 197.112C3.34835 197.526 0.833555 199.899 0.249596 203H156.737L163 152.25H160.702C157 152.25 153.699 154.562 152.432 158.03L150.633 162.969C133.383 201.947 122.89 196.506 82.2017 196.506L68.6859 195.561C65.8461 195.364 63.6469 193.005 63.6469 190.167V12.3398C63.6469 9.74118 64.5558 6.99222 73.998 6.34375L84.6788 5.73287C87.7964 5.41333 90.3395 3.08259 90.9187 0H0Z" fill="url(#paint0_linear_1_869)"/>
<defs>
<linearGradient id="paint0_linear_1_869" x1="146.23" y1="-0.850537" x2="8.68376" y2="207.506" gradientUnits="userSpaceOnUse">
<stop stop-color="#EACA9E"/>
<stop offset="1" stop-color="#CAA15A"/>
</linearGradient>
</defs>
</svg>
