<svg width="141" height="21" viewBox="0 0 141 21" fill="none" xmlns="http://www.w3.org/2000/svg">
<path d="M128.741 1.64063H129.617C132.088 1.64063 134.398 2.6941 134.398 5.55805C134.398 8.12554 132.645 9.55752 130.096 9.55752H128.741V1.64063ZM140 19.5046L133.282 10.3436C136.309 9.93867 138.832 8.5067 138.832 5.37012C138.832 2.23354 135.963 0.695686 131.477 0.695686H124.626V19.6396H128.743V10.4786H128.795L134.744 19.6396H140.003V19.5046H140ZM121.49 0.695686H117.268V0.830678L118.277 5.18219C118.675 6.85768 119.791 9.64222 119.791 12.7232C119.791 17.1541 116.922 17.9403 115.622 17.9403C114.322 17.9403 110.974 17.6147 110.974 10.8069V0.695686H106.857V10.693C106.857 17.3685 109.513 20.1531 114.452 20.1531C117.531 20.1531 121.49 17.8556 121.49 11.4236V0.695686ZM95.0881 1.66975L103.003 4.61575H103.135V0.695686H90.9735V19.6396H103.135V15.5845H103.003L95.0881 18.639V10.1531L102.576 11.6115V7.82909L95.0881 9.20813V1.6671V1.66975ZM86.2243 0.695686H82.1071V19.6396H86.2243V0.695686ZM71.6203 20.3701C74.5957 20.3701 78.471 18.6946 78.471 14.3987C78.471 12.1012 77.3553 10.2907 74.0366 8.80315L70.4239 7.1806C67.7164 5.96567 67.1832 4.99161 67.1832 3.7211C67.1832 2.45058 68.299 1.55858 69.7321 1.55858C71.2978 1.55858 73.0768 2.12501 76.4762 5.91009L77.3527 6.88415H77.4853V2.15413C75.0691 0.801562 72.5202 0.370117 70.476 0.370117C67.1832 0.370117 64.2625 2.28912 64.2625 5.69304C64.2625 8.287 65.5369 9.58399 68.697 11.098L71.883 12.612C74.6192 13.909 75.0171 14.9096 75.0171 16.2065C75.0171 17.665 73.8233 19.097 71.909 19.097C69.6775 19.097 68.0311 18.017 64.9777 13.422L64.1532 12.178H64.0206V17.8529C66.0649 19.3934 68.879 20.3675 71.6151 20.3675M60.7591 0.695686H57.1465V0.830678L59.7213 14.2346L49.4999 0.695686H44.4802V19.6396H47.9602V19.5046L45.5179 2.55911L58.5041 19.6396H60.7617V0.695686H60.7591ZM38.108 11.6142C38.108 15.5607 36.1704 18.6946 33.2756 18.6946C28.7605 18.6946 25.9724 13.9646 25.9724 8.8852C25.9724 5.07366 27.884 1.91326 30.6981 1.91326C35.2653 1.91326 38.108 7.20971 38.108 11.6142ZM32.0012 20.2087C37.5775 20.2087 42.3059 15.9392 42.3059 10.2642C42.3059 4.58928 37.6035 0.396586 32.0272 0.396586C26.4509 0.396586 21.7771 4.6131 21.7771 10.2616C21.7771 15.9101 26.4249 20.206 32.0012 20.206M0 19.6396H3.47997V19.5046L0.983131 2.20707L8.71034 13.1255H8.84298L15.3218 5.99214V19.6396H19.439V0.695686H14.9498L10.9133 9.26371L4.96507 0.695686H0V19.6396Z" fill="#759AB0"/>
</svg>
