<svg width="99" height="32" viewBox="0 0 99 32" fill="none" xmlns="http://www.w3.org/2000/svg">
<path fill-rule="evenodd" clip-rule="evenodd" d="M7.67394 31.3701H9.97689V18.9701H7.67394V31.3701ZM16.1159 31.1841H18.1785V23.3605L26.8607 31.3701V19.1561H24.8038V26.8461L16.1159 18.9701V31.1841ZM31.5695 28.181C32.6921 29.0626 34.0397 29.5721 35.4843 29.5721C36.8914 29.5721 37.8786 29.0839 37.8786 28.0056C37.8786 27.066 37.249 26.6978 36.1465 26.2861L34.3617 25.6613C32.7161 25.0723 31.4647 24.212 31.4647 22.2348C31.4647 20.12 33.3592 18.9701 35.6246 18.9701C37.0125 18.9701 38.2774 19.3218 39.2655 19.9447V22.042C38.238 21.2767 37.1135 20.7497 35.6688 20.7497C34.4251 20.7497 33.4956 21.2176 33.4956 22.1931C33.4956 23.0747 34.0791 23.4273 35.1066 23.7819L37.0952 24.4852C39.0223 25.1682 39.9066 26.227 39.9066 27.9688C39.9066 30.1601 37.9939 31.3701 35.4843 31.3701C33.8349 31.3701 32.4326 30.9051 31.5695 30.3181V28.181ZM45.2795 31.3701H47.5815V18.9701H45.2795V31.3701ZM58.3812 29.4936C60.9763 29.4936 62.3633 27.8158 62.3633 25.1672C62.3633 22.4993 60.9754 20.8272 58.3812 20.8272H55.8149V29.4936H58.3812ZM53.7195 18.9701H58.4581C62.1057 18.9701 64.4644 21.392 64.4644 25.1672C64.4644 28.9453 62.1057 31.3701 58.4581 31.3701H53.7195V18.9701ZM75.9772 18.9701V20.8272H70.4053V23.811H75.4024V25.6467H70.4044V29.4936H75.9772V31.3701H68.3023V18.9701H75.9772ZM84.149 24.585H86.4337C87.7861 24.585 88.5483 23.8371 88.5483 22.6872C88.5483 21.5373 87.7861 20.7885 86.4337 20.7885H84.149V24.586V24.585ZM84.149 26.3384V31.3701H82.1162V18.9701H86.4722C88.9558 18.9701 90.5629 20.2595 90.5629 22.6872C90.5629 24.7632 89.6709 25.9558 87.7707 26.2619L92.0931 31.3701H89.7805L85.5956 26.3394H84.15L84.149 26.3384ZM6.86945 6.75418C7.77006 6.4219 8.47171 5.42505 8.47171 4.05427C8.47171 1.76996 6.86945 0.586148 4.30602 0.586148H0V13.3378H4.70586C7.26929 13.3378 8.87155 12.0707 8.87155 9.68271C8.87155 8.33227 8.03053 7.14846 6.86945 6.75418ZM2.02229 5.9443V2.45584H4.2868C5.70932 2.45584 6.4696 2.97509 6.4696 4.17924C6.4696 5.3834 5.70836 5.9443 4.2868 5.9443H2.02229ZM2.02229 7.73068H4.6655C6.0688 7.73068 6.82908 8.43593 6.82908 9.5994C6.82908 10.7416 6.06783 11.4691 4.66646 11.4691H2.02325V7.72971L2.02229 7.73068ZM18.2669 13.5451C21.211 13.5451 23.1939 11.7587 23.1939 8.27027V0.586148H21.111V8.02034C21.111 10.4713 20.1095 11.6144 18.2669 11.6144C16.4244 11.6144 15.4238 10.4713 15.4238 8.02034V0.586148H13.341V8.24896C13.341 11.7587 15.3431 13.5451 18.2669 13.5451ZM28.0977 12.4233C28.9589 13.0472 30.3613 13.5451 32.003 13.5451C34.5068 13.5451 36.4089 12.2567 36.4089 9.93168C36.4089 8.0833 35.5285 6.96149 33.6052 6.23493L31.6233 5.48705C30.6016 5.11409 30.021 4.74015 30.021 3.8053C30.021 2.7668 30.9418 2.26887 32.1837 2.26887C33.6254 2.26887 34.7471 2.8288 35.7688 3.63965V1.41637C34.7874 0.752773 33.5254 0.378836 32.1433 0.378836C29.8807 0.378836 27.9978 1.6043 27.9978 3.84696C27.9978 5.9443 29.2396 6.85784 30.8813 7.48074L32.6642 8.1453C33.7657 8.58124 34.3866 8.97649 34.3866 9.97334C34.3866 11.1155 33.4053 11.6347 32.003 11.6347C30.5612 11.6347 29.2194 11.0942 28.0977 10.1603V12.4233ZM43.8512 0.586148H41.7694V13.3368H43.8512V0.586148ZM49.7932 13.3213H51.8001V5.02593L60.2468 13.519V0.566773H58.2456V8.72074L49.7932 0.370117V13.3213ZM73.2619 0.589055V2.49846H67.8544V5.56746H72.7035V7.45555H67.8544V11.411H73.2619V13.3407H65.8129V0.589055H73.2619ZM78.111 12.4146C78.9722 13.0385 80.3736 13.5364 82.0162 13.5364C84.5191 13.5364 86.4222 12.2489 86.4222 9.92296C86.4222 8.07459 85.5408 6.95374 83.6185 6.22621L81.6356 5.4793C80.6139 5.10537 80.0333 4.73143 80.0333 3.79659C80.0333 2.75809 80.9541 2.26015 82.196 2.26015C83.6377 2.26015 84.7594 2.82105 85.7811 3.63093V1.40862C84.7998 0.744055 83.5377 0.370117 82.1556 0.370117C79.893 0.370117 78.0101 1.59559 78.0101 3.83824C78.0101 5.93559 79.2519 6.84912 80.8936 7.47202L82.6765 8.13659C83.778 8.57252 84.3989 8.96777 84.3989 9.96462C84.3989 11.1068 83.4186 11.626 82.0153 11.626C80.5735 11.626 79.2317 11.0864 78.111 10.1516V12.4146ZM90.6888 12.4146C91.55 13.0385 92.9524 13.5364 94.594 13.5364C97.0979 13.5364 99 12.2489 99 9.92296C99 8.07459 98.1186 6.95374 96.1963 6.22621L94.2134 5.4793C93.1926 5.10537 92.6111 4.73143 92.6111 3.79659C92.6111 2.75809 93.5329 2.26015 94.7738 2.26015C96.2155 2.26015 97.3382 2.82105 98.3589 3.63093V1.40862C97.3785 0.744055 96.1165 0.370117 94.7343 0.370117C92.4708 0.370117 90.5888 1.59559 90.5888 3.83824C90.5888 5.93559 91.8307 6.84912 93.4723 7.47202L95.2553 8.13659C96.3568 8.57252 96.9777 8.96777 96.9777 9.96462C96.9777 11.1068 95.9964 11.626 94.594 11.626C93.1523 11.626 91.8105 11.0864 90.6888 10.1516V12.4146Z" fill="#759AB0"/>
</svg>
