<svg width="116" height="22" viewBox="0 0 116 22" fill="none" xmlns="http://www.w3.org/2000/svg">
<path d="M115.488 20.2693L116 18.9482L108.528 19.8025V9.81109H114.845V9.26066H108.528V1.55464L115.275 2.35166V1.05705H104.31V20.2693H115.49H115.488ZM77.5125 20.2693H78.7488L80.469 6.97528L88.3428 21.3701H88.532L95.0082 8.02109L97.2121 20.2693H101.351L97.6959 0.370117H97.5626L90.3596 16.7179L81.3548 0.370117H81.2215L77.5125 20.2693ZM66.306 5.9845L69.8537 15.0116H63.055L66.306 5.9845ZM59.7223 20.2693H61.1736L62.8937 15.5091H70.0429L71.9243 20.2693H76.3321L68.5894 1.05705H64.3967L66.091 5.46049L59.7223 20.2671V20.2693ZM48.8619 1.55464C51.6571 1.55464 55.2844 3.75636 55.2844 10.5553C55.2844 16.7201 52.2742 19.8025 48.9694 19.8025H47.9201V1.55464H48.8619ZM43.7016 20.2693H49.4252C55.8477 20.2693 59.8255 16.0309 59.8255 10.4716C59.8255 4.91226 55.9832 1.08568 49.507 1.08568H43.7016V20.2693ZM31.5253 5.9845L35.0731 15.0116H28.2743L31.5253 5.9845ZM24.9416 20.2693H26.393L28.1131 15.5091H35.2623L37.1437 20.2693H41.5514L33.8109 1.05705H29.6182L31.3125 5.46049L24.9438 20.2671L24.9416 20.2693ZM0 20.2693H1.23633L2.95644 6.97528L10.8324 21.3701H11.0216L17.4978 8.02109L19.7017 20.2693H23.8407L20.1855 0.370117H20.0522L12.8471 16.7179L3.84445 0.370117H3.71114L0 20.2693Z" fill="#759AB0"/>
</svg>
