<svg width="96" height="25" viewBox="0 0 96 25" fill="none" xmlns="http://www.w3.org/2000/svg">
<path d="M54.421 8.19306C54.421 5.39225 54.4695 2.7846 54.6148 0.370117L47.2004 1.77052V2.44658L47.9273 2.54316C48.4604 2.59145 48.7996 2.7846 48.9934 3.07434C49.1873 3.41237 49.3327 3.89527 49.4296 4.61961C49.5265 6.02002 49.6234 9.20714 49.575 14.2293C49.575 19.2031 49.5265 22.3419 49.4296 23.5492C52.0949 24.1287 54.1787 24.3701 55.7294 24.3701C58.6371 24.3701 60.9147 23.5492 62.5623 21.8591C64.21 20.2172 65.0823 17.8993 65.0823 15.0502C65.0823 12.7806 64.4523 10.8973 63.1923 9.4003C61.9324 7.90332 60.3332 7.17897 58.4432 7.17897C57.1832 7.17897 55.8748 7.517 54.421 8.19306ZM54.5664 23.0663C54.4695 21.521 54.3725 16.8852 54.3725 9.30372C54.8087 9.15885 55.3902 9.06227 56.1171 9.06227C57.2802 9.06227 58.2009 9.64175 58.8794 10.849C59.5578 12.0562 59.897 13.5049 59.897 15.3399C59.897 17.6096 59.5093 19.4446 58.734 20.9898C57.9586 22.4868 56.9894 23.2595 55.7779 23.2595C55.3902 23.1629 55.0025 23.1146 54.5664 23.0663ZM19.3841 0.853015H0V1.81881L1.01767 1.91539C1.79303 2.06026 2.3261 2.35 2.66532 2.7846C3.00454 3.2675 3.19838 4.04014 3.24685 5.10251C3.63453 10.3178 3.63453 15.1951 3.24685 19.686C3.14992 20.7484 2.95608 21.521 2.66532 22.0039C2.3261 22.4868 1.79303 22.7766 1.01767 22.8731L0 23.018V23.9838H12.5028V23.018L11.1943 22.9214C10.419 22.8248 9.88592 22.4868 9.54669 22.0522C9.20747 21.5693 9.01363 20.7967 8.96517 19.7343C8.81979 17.8027 8.72287 15.5814 8.72287 13.1186L11.3397 13.1669C12.7451 13.2152 13.7143 14.2776 14.1989 16.4023H15.1681V8.53108H14.1989C13.7143 10.6075 12.7935 11.6699 11.3397 11.7182L8.72287 11.7665C8.72287 7.42042 8.81979 4.32988 8.96517 2.44658H12.7935C15.5073 2.44658 17.3488 4.18501 18.4149 7.66187L19.578 7.32384L19.3841 0.853015ZM17.1065 15.7263C17.1065 18.2373 17.8334 20.3138 19.2388 21.9556C20.6441 23.5975 22.7279 24.3701 25.3448 24.3701C27.9616 24.3701 30.0939 23.5492 31.6446 21.8591C33.1954 20.2172 33.9223 18.1407 33.9223 15.6297C33.9223 13.1186 33.1954 11.0421 31.79 9.4003C30.3847 7.75845 28.3009 6.98581 25.684 6.98581C23.0671 6.98581 20.9349 7.80674 19.3841 9.49688C17.8334 11.1387 17.1065 13.2152 17.1065 15.7263ZM27.9132 10.2212C28.4947 11.6216 28.737 13.4566 28.737 15.678C28.737 20.7967 27.6709 23.3077 25.5871 23.3077C24.5209 23.3077 23.6971 22.5834 23.1156 21.1347C22.5341 19.686 22.2918 17.851 22.2918 15.678C22.2918 10.6075 23.3579 8.09648 25.4417 8.09648C26.5078 8.04819 27.3316 8.77253 27.9132 10.2212ZM68.8622 21.9556C70.4614 23.5492 72.4967 24.3701 74.9197 24.3701C76.422 24.3701 77.7304 24.0804 78.8935 23.4526C80.0565 22.8731 80.9773 22.1488 81.6073 21.2796L81.1227 20.7001C80.0565 21.521 78.845 21.9073 77.4397 21.9073C75.5013 21.9073 73.999 21.2796 72.9813 19.9757C71.9152 18.6719 71.4306 17.0301 71.5275 14.9053H81.898C81.898 12.5874 81.3165 10.7041 80.105 9.20714C78.8935 7.75845 77.1974 7.0341 75.0167 7.0341C72.3029 7.0341 70.2191 7.90332 68.7168 9.59346C67.2145 11.2836 66.4876 13.3601 66.4876 15.8228C66.4876 18.3339 67.263 20.3621 68.8622 21.9556ZM72.4483 9.83491C72.9813 8.67595 73.6598 8.09648 74.5805 8.09648C76.0343 8.09648 76.7612 9.93149 76.7612 13.6498L71.6244 13.7464C71.6729 12.2977 71.9152 10.9939 72.4483 9.83491ZM94.9339 7.90332C93.6254 7.32384 91.9778 6.98581 89.9909 6.98581C87.9556 6.98581 86.3564 7.517 85.1449 8.53108C83.9334 9.54517 83.3034 10.8007 83.3034 12.2977C83.3034 13.6015 83.6911 14.6156 84.418 15.3399C85.1449 16.0643 86.3079 16.692 87.8102 17.2232C89.1671 17.7061 90.1363 18.189 90.6209 18.6236C91.1055 19.1065 91.3963 19.6377 91.3963 20.3621C91.3963 21.0381 91.154 21.6659 90.6209 22.1488C90.1363 22.68 89.4578 22.9214 88.5856 22.9214C86.4533 22.9214 84.8541 21.3762 83.7395 18.2856L82.9157 18.5271L83.1095 23.356C84.8541 24.0321 86.7925 24.3701 88.9248 24.3701C91.154 24.3701 92.8501 23.8872 94.11 22.8731C95.37 21.9073 96 20.5069 96 18.7685C96 17.6096 95.7092 16.6438 95.0793 15.9194C94.4493 15.1951 93.4316 14.5673 91.9778 13.9878C90.3786 13.4083 89.264 12.8772 88.6825 12.3943C88.101 11.9114 87.8102 11.3319 87.8102 10.6075C87.8102 9.8832 88.004 9.30372 88.4402 8.82082C88.8763 8.33792 89.4094 8.14476 90.0878 8.14476C92.0262 8.14476 93.4316 9.54517 94.3039 12.2977L95.1277 12.0562L94.9339 7.90332ZM48.315 7.46871C47.6365 7.13068 46.9096 6.98581 46.0858 6.98581C45.262 6.98581 44.4382 7.32384 43.5174 7.9999C42.5967 8.67595 41.9182 9.59346 41.3852 10.849L41.4336 6.98581L34.0676 8.4345V9.11056L34.7945 9.15885C35.7153 9.25543 36.2484 9.97978 36.3453 11.2836C36.636 14.2776 36.636 17.4647 36.3453 20.845C36.2484 22.1488 35.7153 22.8248 34.7945 22.9697L34.0676 23.0663V23.9838H44.3412V23.0663L43.0328 22.9697C42.1121 22.8731 41.579 22.1488 41.4821 20.845C41.1913 18.0442 41.1429 15.0502 41.3852 11.9597C41.6759 11.4768 42.3059 11.187 43.2751 11.0904C44.2443 10.9939 45.3589 11.2836 46.522 11.9597L48.315 7.46871Z" fill="#759AB0"/>
</svg>
