<svg width="1111" height="1471" viewBox="0 0 1111 1471" fill="none" xmlns="http://www.w3.org/2000/svg">
<mask id="path-1-inside-1_1_371" fill="white">
<path d="M846.788 277.877C766.651 315.177 753.37 430.369 679.402 478.311C648.129 498.58 604.307 446.738 568.617 458.171C533.68 469.363 530.954 529.631 495.011 537.379C411.012 555.485 300.852 471.909 238.196 529.396C190.777 572.904 295.655 646.796 306.031 710.77C314.185 761.046 294.058 810.156 291.949 860.831C289.2 926.862 255.016 1001.45 291.594 1057.56C326.497 1111.09 414.832 1094.68 467.933 1130.77C526.291 1170.44 548.816 1295.05 616.618 1278.5C705.454 1256.81 692.71 1106.04 769.274 1057.22C814.273 1028.53 876.21 1090.46 928.855 1079.43C982.562 1068.18 1020.37 1022.97 1067.03 994.86C1132.99 955.128 1233.11 947.838 1263.83 877.65C1292.14 812.958 1217.43 743.273 1208.02 672.702C1198.52 601.416 1234.61 526.656 1208.07 459.386C1181.57 392.213 1126.33 333.297 1061.22 300.589C996.198 267.92 911.75 247.64 846.788 277.877Z"/>
<path d="M845.472 283.22C766.277 320.091 753.143 433.935 680.044 481.322C649.139 501.357 605.838 450.126 570.569 461.428C536.043 472.492 533.344 532.055 497.824 539.715C414.815 557.617 305.962 475.028 244.041 531.848C197.178 574.851 300.812 647.869 311.06 711.093C319.113 760.78 299.22 809.317 297.131 859.399C294.409 924.657 260.622 998.376 296.763 1053.82C331.25 1106.73 418.543 1090.5 471.015 1126.17C528.68 1165.37 550.928 1288.51 617.932 1272.15C705.722 1250.71 693.141 1101.7 768.805 1053.45C813.276 1025.09 874.477 1086.29 926.501 1075.38C979.575 1064.26 1016.94 1019.57 1063.05 991.793C1128.23 952.52 1227.18 945.307 1257.54 875.938C1285.52 812 1211.7 743.137 1202.41 673.393C1193.03 602.942 1228.7 529.054 1202.48 462.573C1176.29 396.189 1121.71 337.968 1057.37 305.647C993.119 273.366 909.669 253.331 845.472 283.22Z"/>
<path d="M844.155 288.563C765.903 325.004 752.916 437.502 680.686 484.334C650.148 504.134 607.369 453.513 572.52 464.685C538.405 475.62 535.733 534.478 500.637 542.051C418.618 559.748 311.073 478.147 249.886 534.299C203.579 576.797 305.969 648.941 316.088 711.416C324.041 760.514 304.381 808.478 302.313 857.967C299.617 922.453 266.228 995.301 301.932 1050.09C336.002 1102.37 422.255 1086.32 474.096 1121.56C531.069 1160.29 553.041 1281.97 619.245 1265.8C705.989 1244.61 693.572 1097.36 768.336 1049.68C812.278 1021.65 872.742 1082.12 924.146 1071.34C976.588 1060.34 1013.51 1016.18 1059.07 988.726C1123.48 949.912 1221.24 942.776 1251.25 874.225C1278.9 811.042 1205.97 743.001 1196.8 674.084C1187.53 604.468 1222.78 531.451 1196.88 465.76C1171.02 400.165 1117.09 342.638 1053.52 310.706C990.04 278.813 907.588 259.022 844.155 288.563Z"/>
<path d="M842.838 293.905C765.53 329.917 752.689 441.068 681.328 487.345C651.157 506.911 608.9 456.901 574.471 467.941C540.768 478.749 538.123 536.902 503.45 544.387C422.421 561.88 316.183 481.266 255.731 536.751C209.98 578.744 311.126 650.014 321.117 711.739C328.969 760.248 309.543 807.639 307.495 856.535C304.826 920.248 271.834 992.227 307.102 1046.35C340.755 1098 425.966 1082.14 477.178 1116.95C533.459 1155.22 555.154 1275.44 620.559 1259.45C706.256 1238.51 694.002 1093.03 767.867 1045.91C811.281 1018.22 871.009 1077.95 921.792 1067.29C973.601 1056.43 1010.08 1012.79 1055.09 985.658C1118.73 947.304 1215.31 940.245 1244.96 872.512C1272.28 810.085 1200.24 742.866 1191.18 674.775C1182.03 605.994 1216.86 533.849 1191.28 468.948C1165.74 404.141 1112.47 347.308 1049.68 315.764C986.961 284.259 905.508 264.713 842.838 293.905Z"/>
<path d="M841.522 299.248C765.156 334.83 752.462 444.634 681.97 490.357C652.166 509.688 610.431 460.288 576.422 471.198C543.13 481.878 540.512 539.326 506.263 546.723C426.224 564.011 321.294 484.385 261.576 539.203C216.381 580.69 316.282 651.087 326.146 712.062C333.897 759.982 314.704 806.8 312.677 855.103C310.035 918.044 277.439 989.152 312.271 1042.62C345.507 1093.64 429.678 1077.96 480.26 1112.35C535.848 1150.14 557.267 1268.9 621.873 1253.1C706.523 1232.41 694.433 1088.69 767.398 1042.14C810.283 1014.78 869.275 1073.78 919.438 1063.25C970.614 1052.51 1006.65 1009.4 1051.12 982.591C1113.98 944.696 1209.37 937.713 1238.67 870.8C1265.67 809.127 1194.51 742.73 1185.57 675.465C1176.54 607.52 1210.95 536.247 1185.69 472.135C1160.46 408.117 1107.85 351.978 1045.83 320.823C983.882 289.706 903.427 270.404 841.522 299.248Z"/>
<path d="M840.206 304.591C764.782 339.743 752.235 448.2 682.612 493.368C653.176 512.465 611.962 463.676 578.373 474.455C545.493 485.007 542.902 541.749 509.077 549.059C430.027 566.143 326.404 487.504 267.421 541.654C222.782 582.637 321.439 652.16 331.175 712.385C338.826 759.716 319.866 805.961 317.859 853.671C315.244 915.839 283.045 986.078 317.44 1038.89C350.26 1089.28 433.389 1073.78 483.341 1107.74C538.238 1145.06 559.38 1262.37 623.187 1246.76C706.791 1226.3 694.864 1084.36 766.93 1038.37C809.286 1011.34 867.541 1069.61 917.084 1059.2C967.627 1048.59 1003.22 1006.01 1047.14 979.524C1109.22 942.088 1203.44 935.182 1232.38 869.087C1259.05 808.169 1188.78 742.594 1179.95 676.156C1171.04 609.046 1205.03 538.645 1180.09 475.323C1155.18 412.093 1103.23 356.648 1041.98 325.881C980.803 295.152 901.347 276.095 840.206 304.591Z"/>
<path d="M838.889 309.934C764.408 344.656 752.008 451.766 683.253 496.38C654.185 515.242 613.493 467.063 580.324 477.712C547.855 488.136 545.291 544.173 511.89 551.395C433.83 568.274 331.514 490.623 273.266 544.106C229.182 584.583 326.596 653.232 336.203 712.708C343.754 759.45 325.027 805.122 323.041 852.239C320.452 913.635 288.651 983.004 322.609 1035.15C355.013 1084.91 437.1 1069.6 486.423 1103.13C540.627 1139.99 561.492 1255.83 624.501 1240.41C707.058 1220.2 695.294 1080.02 766.461 1034.59C808.288 1007.9 865.807 1065.44 914.729 1055.16C964.639 1044.67 999.792 1002.61 1043.16 976.456C1104.47 939.48 1197.51 932.651 1226.09 867.375C1252.43 807.211 1183.04 742.458 1174.34 676.847C1165.55 610.572 1199.12 541.043 1174.49 478.51C1149.91 416.068 1098.6 361.318 1038.13 330.94C977.724 300.599 899.266 281.786 838.889 309.934Z"/>
<path d="M837.572 315.277C764.034 349.57 751.781 455.333 683.895 499.391C655.194 518.019 615.024 470.45 582.276 480.968C550.218 491.264 547.681 546.597 514.703 553.731C437.633 570.405 336.625 493.742 279.111 546.558C235.583 586.53 331.752 654.305 341.232 713.032C348.682 759.184 330.189 804.283 328.223 850.808C325.661 911.431 294.257 979.929 327.779 1031.42C359.765 1080.55 440.812 1065.42 489.504 1098.53C543.016 1134.91 563.605 1249.29 625.815 1234.06C707.325 1214.1 695.725 1075.68 765.992 1030.82C807.291 1004.46 864.073 1061.27 912.375 1051.11C961.652 1040.75 996.362 999.221 1039.18 973.389C1099.72 936.872 1191.57 930.119 1219.8 865.662C1245.81 806.253 1177.31 742.322 1168.73 677.538C1160.05 612.098 1193.2 543.441 1168.9 481.697C1144.63 420.044 1093.98 365.988 1034.28 335.998C974.644 306.045 897.185 287.477 837.572 315.277Z"/>
<path d="M836.256 320.62C763.661 354.483 751.554 458.899 684.537 502.403C656.203 520.796 616.555 473.838 584.227 484.225C552.581 494.393 550.071 549.02 517.516 556.068C441.436 572.537 341.736 496.862 284.957 549.01C241.985 588.477 336.909 655.378 346.261 713.355C353.61 758.918 335.35 803.444 333.405 849.376C330.87 909.226 299.863 976.855 332.948 1027.68C364.518 1076.18 444.524 1061.24 492.586 1093.92C545.406 1129.84 565.718 1242.76 627.129 1227.71C707.593 1208 696.156 1071.35 765.523 1027.05C806.294 1001.02 862.34 1057.1 910.021 1047.07C958.665 1036.84 992.933 995.829 1035.21 970.322C1094.96 934.264 1185.64 927.588 1213.5 863.95C1239.19 805.295 1171.58 742.186 1163.11 678.229C1154.55 613.624 1187.29 545.838 1163.3 484.885C1139.35 424.02 1089.36 370.658 1030.43 341.057C971.566 311.492 895.105 293.169 836.256 320.62Z"/>
<path d="M834.94 325.962C763.287 359.396 751.327 462.465 685.18 505.414C657.213 523.573 618.086 477.226 586.179 487.482C554.944 497.522 552.461 551.444 520.33 558.404C445.24 574.668 346.846 499.981 290.802 551.461C248.386 590.423 342.066 656.451 351.29 713.678C358.538 758.652 340.512 802.605 338.587 847.944C336.079 907.022 305.469 973.78 338.117 1023.95C369.271 1071.82 448.235 1057.06 495.668 1089.32C547.795 1124.76 567.831 1236.22 628.443 1221.37C707.86 1201.9 696.587 1067.01 765.055 1023.28C805.296 997.578 860.606 1052.93 907.667 1043.02C955.678 1032.92 989.504 992.437 1031.23 967.255C1090.21 931.656 1179.7 925.057 1207.21 862.237C1232.57 804.337 1165.85 742.05 1157.5 678.92C1149.06 615.15 1181.37 548.236 1157.7 488.072C1134.07 427.996 1084.74 375.328 1026.58 346.116C968.487 316.938 893.024 298.86 834.94 325.962Z"/>
<path d="M833.623 331.305C762.913 364.309 751.1 466.031 685.821 508.426C658.222 526.35 619.617 480.613 588.13 490.739C557.306 500.651 554.85 553.868 523.143 560.74C449.043 576.8 351.957 503.1 296.647 553.913C254.787 592.37 347.223 657.523 356.319 714.001C363.467 758.386 345.674 801.766 343.769 846.512C341.288 904.817 311.074 970.706 343.287 1020.21C374.024 1067.46 451.947 1052.88 498.75 1084.71C550.185 1119.69 569.944 1229.69 629.757 1215.02C708.127 1195.8 697.018 1062.67 764.586 1019.51C804.299 994.138 858.872 1048.76 905.313 1038.98C952.691 1029 986.074 989.045 1027.25 964.187C1085.46 929.048 1173.77 922.525 1200.92 860.525C1225.95 803.38 1160.12 741.915 1151.88 679.611C1143.56 616.676 1175.46 550.634 1152.11 491.26C1128.79 431.972 1080.12 379.999 1022.73 351.174C965.408 322.385 890.944 304.551 833.623 331.305Z"/>
<path d="M832.306 336.648C762.539 369.222 750.872 469.597 686.463 511.437C659.231 529.127 621.147 484 590.08 493.995C559.668 503.779 557.239 556.291 525.955 563.076C452.845 578.931 357.067 506.218 302.491 556.364C261.187 594.316 352.379 658.596 361.347 714.324C368.394 758.12 350.834 800.927 348.951 845.08C346.496 902.613 316.68 967.631 348.455 1016.48C378.776 1063.09 455.657 1048.7 501.83 1080.1C552.574 1114.61 572.056 1223.15 631.07 1208.67C708.394 1189.69 697.448 1058.34 764.117 1015.74C803.301 990.698 857.138 1044.59 902.958 1034.93C949.703 1025.08 982.644 985.652 1023.27 961.12C1080.71 926.44 1167.84 919.994 1194.63 858.812C1219.33 802.422 1154.39 741.779 1146.27 680.301C1138.07 618.202 1169.54 553.032 1146.51 494.447C1123.52 435.947 1075.5 384.668 1018.88 356.232C962.328 327.831 888.863 310.242 832.306 336.648Z"/>
<path d="M830.99 341.991C762.165 374.135 750.646 473.163 687.105 514.449C660.24 531.904 622.678 487.388 592.032 497.252C562.031 506.908 559.629 558.715 528.769 565.412C456.648 581.062 362.177 509.338 308.336 558.816C267.588 596.263 357.536 659.669 366.376 714.647C373.323 757.854 355.996 800.088 354.133 843.648C351.705 900.408 322.286 964.557 353.625 1012.75C383.529 1058.73 459.369 1044.52 504.912 1075.5C554.963 1109.53 574.169 1216.62 632.385 1202.32C708.661 1183.59 697.878 1054 763.648 1011.97C802.304 987.259 855.404 1040.42 900.604 1030.89C946.716 1021.16 979.215 982.26 1019.29 958.052C1075.95 923.832 1161.9 917.462 1188.34 857.1C1212.71 801.464 1148.66 741.643 1140.65 680.992C1132.57 619.728 1163.63 555.43 1140.92 497.634C1118.24 439.923 1070.88 389.339 1015.03 361.291C959.249 333.277 886.782 315.933 830.99 341.991Z"/>
<path d="M829.674 347.333C761.791 379.048 750.419 476.729 687.747 517.46C661.25 534.68 624.21 490.775 593.983 500.509C564.394 510.037 562.019 561.138 531.582 567.748C460.451 583.194 367.288 512.456 314.182 561.267C273.989 598.209 362.693 660.741 371.405 714.97C378.251 757.588 361.158 799.249 359.315 842.216C356.914 898.204 327.892 961.482 358.794 1009.01C388.281 1054.36 463.081 1040.35 507.994 1070.89C557.353 1104.46 576.282 1210.08 633.699 1195.97C708.929 1177.49 698.309 1049.67 763.179 1008.19C801.307 983.819 853.671 1036.25 898.25 1026.84C943.729 1017.24 975.785 978.867 1015.32 954.985C1071.2 921.224 1155.97 914.931 1182.05 855.387C1206.09 800.506 1142.93 741.507 1135.04 681.683C1127.08 621.254 1157.71 557.827 1135.32 500.821C1112.96 443.899 1066.26 394.008 1011.18 366.349C956.17 338.724 884.702 321.624 829.674 347.333Z"/>
<path d="M828.357 352.676C761.418 383.962 750.192 480.296 688.389 520.471C662.259 537.458 625.741 494.163 595.935 503.765C566.757 513.166 564.408 563.562 534.395 570.084C464.255 585.325 372.398 515.576 320.027 563.719C280.39 600.156 367.85 661.814 376.433 715.293C383.179 757.322 366.319 798.41 364.497 840.784C362.123 895.999 333.497 958.408 363.963 1005.28C393.034 1050 466.792 1036.17 511.076 1066.28C559.742 1099.38 578.395 1203.54 635.013 1189.62C709.196 1171.39 698.74 1045.33 762.711 1004.42C800.309 980.379 851.937 1032.08 895.896 1022.8C940.742 1013.33 972.356 975.475 1011.34 951.918C1066.45 918.616 1150.03 912.4 1175.76 853.674C1199.47 799.548 1137.19 741.371 1129.43 682.374C1121.58 622.78 1151.8 560.225 1129.72 504.009C1107.68 447.875 1061.64 398.679 1007.33 371.408C953.091 344.17 882.621 327.315 828.357 352.676Z"/>
<path d="M827.041 358.019C761.044 388.875 749.965 483.862 689.031 523.483C663.268 540.235 627.272 497.55 597.886 507.022C569.119 516.294 566.798 565.986 537.209 572.42C468.058 587.457 377.509 518.695 325.872 566.171C286.791 602.102 373.007 662.887 381.462 715.616C388.107 757.056 371.481 797.571 369.679 839.352C367.332 893.795 339.103 955.334 369.133 1001.54C397.787 1045.64 470.504 1031.99 514.157 1061.68C562.132 1094.31 580.507 1197.01 636.327 1183.28C709.464 1165.29 699.171 1040.99 762.242 1000.65C799.312 976.94 850.203 1027.91 893.542 1018.75C937.755 1009.41 968.927 972.083 1007.36 948.85C1061.69 916.008 1144.1 909.868 1169.47 851.962C1192.86 798.59 1131.46 741.235 1123.81 683.065C1116.08 624.306 1145.88 562.623 1124.13 507.196C1102.41 451.851 1057.02 403.349 1003.48 376.466C950.012 349.617 880.541 333.006 827.041 358.019Z"/>
<path d="M825.725 363.362C760.67 393.788 749.738 487.428 689.673 526.495C664.278 543.012 628.803 500.938 599.837 510.279C571.482 519.423 569.188 568.41 540.022 574.756C471.861 589.588 382.619 521.814 331.717 568.623C293.192 604.049 378.163 663.96 386.491 715.94C393.036 756.79 376.642 796.732 374.861 837.921C372.54 891.591 344.709 952.259 374.302 997.809C402.54 1041.27 474.215 1027.81 517.239 1057.07C564.521 1089.23 582.62 1190.47 637.641 1176.93C709.731 1159.18 699.602 1036.66 761.773 996.879C798.314 973.5 848.469 1023.74 891.187 1014.71C934.768 1005.49 965.497 968.691 1003.38 945.783C1056.94 913.4 1138.17 907.337 1163.18 850.249C1186.24 797.632 1125.73 741.099 1118.2 683.756C1110.59 625.832 1139.96 565.021 1118.53 510.384C1097.13 455.826 1052.4 408.019 999.634 381.525C946.933 355.063 878.46 338.697 825.725 363.362Z"/>
<path d="M824.408 368.704C760.296 398.701 749.511 490.994 690.314 529.506C665.287 545.788 630.333 504.325 601.788 513.535C573.844 522.552 571.577 570.833 542.835 577.092C475.664 591.719 387.73 524.933 337.562 571.074C299.593 605.995 383.32 665.032 391.52 716.263C397.964 756.524 381.804 795.893 380.043 836.488C377.749 889.386 350.315 949.185 379.471 994.075C407.292 1036.91 477.927 1023.63 520.32 1052.47C566.91 1084.16 584.733 1183.94 638.954 1170.58C709.998 1153.08 700.032 1032.32 761.304 993.108C797.317 970.06 846.735 1019.57 888.833 1010.66C931.781 1001.57 962.068 965.298 999.406 942.716C1052.19 910.792 1132.23 904.806 1156.89 848.537C1179.62 796.674 1120 740.963 1112.58 684.446C1105.09 627.357 1134.05 567.418 1112.93 513.571C1091.85 459.802 1047.78 412.689 995.784 386.583C943.854 360.509 876.379 344.388 824.408 368.704Z"/>
<path d="M823.092 374.047C759.922 403.614 749.284 494.56 690.956 532.518C666.296 548.565 631.865 507.713 603.739 516.792C576.207 525.681 573.967 573.257 545.648 579.428C479.467 593.851 392.84 528.052 343.407 573.526C305.994 607.942 388.477 666.105 396.548 716.586C402.892 756.258 386.965 795.054 385.225 835.057C382.958 887.182 355.921 946.11 384.641 990.341C412.045 1032.55 481.638 1019.45 523.402 1047.86C569.3 1079.08 586.846 1177.4 640.269 1164.23C710.265 1146.98 700.463 1027.99 760.836 989.336C796.32 966.621 845.002 1015.4 886.479 1006.62C928.794 997.654 958.638 961.906 995.428 939.648C1047.44 908.184 1126.3 902.274 1150.6 846.824C1173 795.716 1114.27 740.827 1106.97 685.137C1099.6 628.883 1128.13 569.816 1107.34 516.758C1086.57 463.778 1043.16 417.359 991.935 391.642C940.775 365.956 874.299 350.079 823.092 374.047Z"/>
<path d="M821.775 379.39C759.549 408.528 749.057 498.127 691.598 535.529C667.305 551.342 633.396 511.1 605.691 520.049C578.57 528.81 576.356 575.681 548.461 581.764C483.27 595.982 397.951 531.171 349.252 575.978C312.395 609.889 393.633 667.178 401.577 716.909C407.82 755.992 392.127 794.215 390.407 833.625C388.167 884.977 361.527 943.036 389.81 986.607C416.797 1028.18 485.35 1015.27 526.484 1043.25C571.689 1074.01 588.958 1170.86 641.582 1157.88C710.533 1140.88 700.894 1023.65 760.367 985.565C795.322 963.181 843.268 1011.23 884.125 1002.57C925.807 993.736 955.209 958.514 991.451 936.581C1042.68 905.576 1120.36 899.743 1144.31 845.112C1166.38 794.759 1108.54 740.692 1101.36 685.828C1094.1 630.41 1122.22 572.214 1101.74 519.946C1081.29 467.754 1038.54 422.029 988.085 396.7C937.696 371.402 872.218 355.77 821.775 379.39Z"/>
<path d="M820.459 384.733C759.175 413.441 748.83 501.693 692.24 538.541C668.315 554.119 634.927 514.488 607.642 523.306C580.933 531.938 578.746 578.104 551.275 584.101C487.073 598.114 403.061 534.29 355.097 578.429C318.796 611.835 398.79 668.251 406.606 717.232C412.748 755.726 397.288 793.376 395.589 832.193C393.376 882.773 367.132 939.962 394.979 982.872C421.55 1023.82 489.061 1011.09 529.565 1038.65C574.079 1068.93 591.071 1164.33 642.897 1151.54C710.8 1134.78 701.324 1019.31 759.898 981.793C794.325 959.742 841.534 1007.06 881.771 998.526C922.819 989.818 951.779 955.122 987.473 933.514C1037.93 902.968 1114.43 897.212 1138.02 843.399C1159.76 793.801 1102.81 740.556 1095.74 686.519C1088.6 631.935 1116.3 574.612 1096.15 523.133C1076.02 471.73 1033.92 426.699 984.236 401.759C934.617 376.849 870.138 361.462 820.459 384.733Z"/>
<path d="M819.142 390.076C758.801 418.354 748.603 505.259 692.882 541.552C669.324 556.896 636.457 517.875 609.593 526.563C583.295 535.067 581.136 580.528 554.087 586.437C490.876 600.245 408.172 537.409 360.942 580.881C325.197 613.782 403.947 669.323 411.635 717.555C417.676 755.46 402.45 792.537 400.771 830.761C398.584 880.568 372.738 936.887 400.148 979.138C426.303 1019.45 492.773 1006.91 532.647 1034.04C576.468 1063.85 593.184 1157.79 644.21 1145.19C711.067 1128.67 701.755 1014.98 759.429 978.022C793.327 956.302 839.8 1002.89 879.416 994.481C919.832 985.9 948.35 951.73 983.495 930.446C1033.18 900.36 1108.5 894.68 1131.73 841.687C1153.14 792.843 1097.07 740.42 1090.13 687.21C1083.11 633.461 1110.39 577.01 1090.55 526.321C1070.74 475.705 1029.3 431.369 980.386 406.817C931.537 382.295 868.057 367.152 819.142 390.076Z"/>
<path d="M817.826 395.419C758.427 423.267 748.376 508.825 693.524 544.563C670.333 559.673 637.988 521.262 611.544 529.819C585.658 538.196 583.525 582.952 556.901 588.773C494.679 602.377 413.282 540.528 366.787 583.333C331.598 615.728 409.104 670.396 416.663 717.878C422.605 755.194 407.611 791.698 405.953 829.329C403.793 878.364 378.344 933.813 405.317 975.404C431.055 1015.09 496.484 1002.73 535.729 1029.43C578.857 1058.78 595.297 1151.26 645.524 1138.84C711.334 1122.57 702.186 1010.64 758.961 974.25C792.33 952.862 838.066 998.723 877.062 990.436C916.845 981.982 944.92 948.337 979.517 927.379C1028.42 897.752 1102.56 892.149 1125.44 839.974C1146.52 791.885 1091.34 740.284 1084.51 687.901C1077.61 634.987 1104.47 579.408 1084.95 529.508C1065.46 479.681 1024.67 436.039 976.537 411.876C928.458 387.742 865.977 372.844 817.826 395.419Z"/>
<path d="M816.509 400.761C758.053 428.18 748.149 512.391 694.166 547.575C671.343 562.45 639.52 524.65 613.496 533.076C588.021 541.325 585.915 585.375 559.714 591.109C498.482 604.508 418.393 543.647 372.632 585.784C337.999 617.675 414.26 671.469 421.692 718.202C427.533 754.928 412.773 790.859 411.135 827.897C409.002 876.16 383.95 930.738 410.487 971.67C435.808 1010.73 500.196 998.553 538.81 1024.83C581.247 1053.7 597.41 1144.72 646.838 1132.49C711.602 1116.47 702.616 1006.3 758.492 970.479C791.332 949.423 836.333 994.553 874.708 986.391C913.858 978.063 941.491 944.945 975.539 924.312C1023.67 895.144 1096.63 889.618 1119.15 838.262C1139.9 790.927 1085.61 740.148 1078.9 688.592C1072.12 636.513 1098.56 581.805 1079.36 532.695C1060.18 483.657 1020.05 440.71 972.688 416.934C925.379 393.188 863.896 378.535 816.509 400.761Z"/>
<path d="M815.193 406.104C757.68 433.094 747.922 515.958 694.808 550.587C672.352 565.227 641.051 528.037 615.447 536.333C590.383 544.454 588.305 587.799 562.527 593.445C502.285 606.64 423.503 546.766 378.477 588.236C344.4 619.621 419.417 672.542 426.721 718.525C432.461 754.662 417.934 790.02 416.318 826.465C414.211 873.955 389.556 927.664 415.656 967.936C440.561 1006.36 503.907 994.373 541.892 1020.22C583.636 1048.63 599.523 1138.19 648.152 1126.14C711.869 1110.37 703.047 1001.97 758.023 966.707C790.335 945.983 834.599 990.384 872.354 982.346C910.871 974.145 938.061 941.553 971.562 921.245C1018.92 892.536 1090.69 887.087 1112.86 836.549C1133.28 789.969 1079.88 740.012 1073.28 689.283C1066.62 638.039 1092.64 584.203 1073.76 535.883C1054.91 487.633 1015.43 445.38 968.838 421.993C922.3 398.635 861.816 384.226 815.193 406.104Z"/>
<path d="M813.876 411.447C757.305 438.007 747.695 519.524 695.45 553.598C673.361 568.004 642.581 531.425 617.398 539.59C592.746 547.582 590.694 590.223 565.34 595.781C506.088 608.771 428.614 549.885 384.322 590.688C350.801 621.568 424.574 673.614 431.75 718.848C437.389 754.396 423.096 789.181 421.499 825.034C419.419 871.751 395.161 924.589 420.825 964.201C445.313 1002 507.618 990.194 544.973 1015.61C586.025 1043.55 601.635 1131.65 649.466 1119.8C712.136 1104.27 703.478 997.632 757.554 962.936C789.337 942.543 832.865 986.214 869.999 978.3C907.883 970.227 934.632 938.161 967.584 918.177C1014.17 889.928 1084.76 884.555 1106.57 834.836C1126.66 789.011 1074.15 739.876 1067.67 689.973C1061.13 639.565 1086.73 586.601 1068.16 539.07C1049.63 491.609 1010.81 450.05 964.989 427.051C919.221 404.081 859.735 389.917 813.876 411.447Z"/>
<path d="M812.56 416.79C756.932 442.92 747.468 523.09 696.092 556.609C674.37 570.781 644.112 534.812 619.349 542.846C595.108 550.711 593.084 592.646 568.153 598.117C509.891 610.902 433.724 553.004 390.167 593.139C357.202 623.515 429.73 674.687 436.778 719.171C442.317 754.13 428.257 788.342 426.681 823.602C424.628 869.546 400.767 921.515 425.994 960.467C450.066 997.635 511.33 986.015 548.055 1011.01C588.415 1038.48 603.748 1125.11 650.78 1113.45C712.403 1098.16 703.908 993.296 757.085 959.164C788.34 939.104 831.131 982.044 867.645 974.255C904.896 966.309 931.202 934.768 963.606 915.11C1009.41 887.32 1078.83 882.024 1100.28 833.124C1120.05 788.054 1068.42 739.74 1062.06 690.664C1055.63 641.091 1080.81 588.999 1062.57 542.258C1044.35 495.585 1006.19 454.72 961.139 432.11C916.142 409.528 857.654 395.608 812.56 416.79Z"/>
<path d="M811.243 422.133C756.558 447.833 747.241 526.656 696.734 559.621C675.379 573.558 645.643 538.2 621.301 546.103C597.471 553.84 595.473 595.07 570.967 600.453C513.694 613.034 438.835 556.124 396.012 595.591C363.603 625.461 434.887 675.76 441.807 719.494C447.245 753.864 433.419 787.503 431.863 822.17C429.837 867.342 406.373 918.441 431.164 956.733C454.819 993.272 515.041 981.836 551.137 1006.4C590.804 1033.4 605.861 1118.58 652.094 1107.1C712.671 1092.06 704.339 988.96 756.617 955.393C787.343 935.664 829.398 977.875 865.291 970.21C901.909 962.391 927.773 931.376 959.628 912.043C1004.66 884.712 1072.89 879.493 1093.99 831.412C1113.43 787.096 1062.69 739.605 1056.44 691.355C1050.13 642.617 1074.9 591.397 1056.97 545.445C1039.07 499.56 1001.57 459.39 957.29 437.169C913.063 414.974 855.574 401.299 811.243 422.133Z"/>
<path d="M809.927 427.475C756.184 452.746 747.014 530.222 697.375 562.632C676.389 576.335 647.174 541.587 623.252 549.36C599.833 556.969 597.863 597.494 573.78 602.789C517.497 615.165 443.945 559.243 401.857 598.043C370.004 627.408 440.044 676.832 446.836 719.817C452.173 753.598 438.58 786.664 437.045 820.738C435.045 865.138 411.979 915.366 436.333 952.999C459.571 988.908 518.753 977.656 554.218 1001.8C593.194 1028.33 607.973 1112.04 653.408 1100.75C712.938 1085.96 704.77 984.623 756.148 951.621C786.345 932.225 827.663 973.705 862.937 966.165C898.922 958.473 924.343 927.984 955.65 908.975C999.907 882.104 1066.96 876.961 1087.69 829.699C1106.81 786.138 1056.96 739.469 1050.83 692.046C1044.64 644.143 1068.98 593.794 1051.37 548.632C1033.79 503.536 996.951 464.06 953.441 442.227C909.984 420.421 853.493 406.99 809.927 427.475Z"/>
<path d="M808.61 432.818C755.81 457.659 746.787 533.788 698.017 565.644C677.398 579.112 648.705 544.975 625.203 552.617C602.196 560.097 600.253 599.917 576.593 605.125C521.3 617.297 449.055 562.361 407.702 600.494C376.405 629.354 445.2 677.905 451.865 720.14C457.102 753.332 443.741 785.825 442.227 819.306C440.254 862.933 417.584 912.292 441.502 949.264C464.324 984.544 522.464 973.477 557.3 997.19C595.583 1023.25 610.086 1105.51 654.722 1094.4C713.205 1079.86 705.2 980.287 755.679 947.85C785.348 928.785 825.93 969.535 860.582 962.12C895.935 954.555 920.914 924.592 951.673 905.908C995.154 879.496 1061.02 874.43 1081.4 827.986C1100.19 785.18 1051.22 739.333 1045.21 692.737C1039.14 645.669 1063.06 596.192 1045.78 551.82C1028.52 507.512 992.33 468.73 949.591 447.285C906.905 425.867 851.412 412.681 808.61 432.818Z"/>
<path d="M807.294 438.161C755.436 462.573 746.56 537.355 698.659 568.655C678.407 581.889 650.236 548.362 627.154 555.873C604.559 563.226 602.642 602.341 579.406 607.462C525.104 619.428 454.166 565.481 413.548 602.946C382.806 631.301 450.357 678.978 456.893 720.463C462.03 753.066 448.903 784.986 447.409 817.874C445.463 860.729 423.19 909.218 446.671 945.53C469.077 980.18 526.176 969.298 560.381 992.584C597.972 1018.17 612.199 1098.97 656.036 1088.06C713.473 1073.76 705.631 975.951 755.21 944.078C784.35 925.345 824.196 965.366 858.228 958.075C892.948 950.637 917.484 921.2 947.695 902.841C990.401 876.888 1055.09 871.899 1075.11 826.274C1093.57 784.222 1045.49 739.197 1039.6 693.428C1033.65 647.195 1057.15 598.59 1040.18 555.007C1023.24 511.488 987.709 473.4 945.742 452.344C903.826 431.314 849.332 418.372 807.294 438.161Z"/>
<path d="M805.978 443.504C755.063 467.486 746.333 540.921 699.301 571.667C679.417 584.666 651.767 551.75 629.106 559.13C606.922 566.355 605.032 604.765 582.219 609.798C528.907 621.56 459.277 568.6 419.393 605.398C389.207 633.247 455.514 680.051 461.922 720.787C466.958 752.801 454.065 784.147 452.592 816.442C450.672 858.524 428.796 906.143 451.841 941.796C473.83 975.816 529.887 965.119 563.463 987.977C600.362 1013.1 614.312 1092.43 657.35 1081.71C713.74 1067.66 706.062 971.615 754.742 940.307C783.353 921.906 822.462 961.196 855.874 954.03C889.961 946.718 914.055 917.807 943.717 899.773C985.649 874.28 1049.16 869.367 1068.82 824.561C1086.95 783.264 1039.76 739.061 1033.99 694.119C1028.15 648.721 1051.23 600.988 1034.59 558.195C1017.96 515.464 983.089 478.07 941.893 457.403C900.747 436.76 847.251 424.064 805.978 443.504Z"/>
<path d="M804.661 448.846C754.688 472.399 746.105 544.487 699.943 574.678C680.425 587.443 653.298 555.137 631.056 562.387C609.284 569.483 607.421 607.188 585.032 612.133C532.709 623.691 464.387 571.718 425.237 607.849C395.608 635.194 460.67 681.123 466.95 721.109C471.886 752.534 459.226 783.308 457.773 815.01C455.88 856.32 434.402 903.068 457.009 938.062C478.582 971.452 533.598 960.939 566.544 983.371C602.751 1008.02 616.424 1085.9 658.663 1075.36C714.007 1061.55 706.492 967.278 754.272 936.535C782.355 918.466 820.728 957.026 853.519 949.984C886.973 942.8 910.625 914.415 939.739 896.706C980.895 871.672 1043.22 866.836 1062.53 822.849C1080.33 782.306 1034.03 738.925 1028.37 694.809C1022.65 650.247 1045.32 603.385 1028.99 561.382C1012.68 519.439 978.468 482.74 938.043 462.461C897.667 442.206 845.17 429.754 804.661 448.846Z"/>
<path d="M803.345 454.19C754.315 477.312 745.879 548.054 700.585 577.69C681.435 590.22 654.829 558.525 633.008 565.644C611.647 572.613 609.811 609.612 587.846 614.47C536.513 625.823 469.498 574.838 431.083 610.301C402.009 637.141 465.828 682.196 471.98 721.433C476.815 752.269 464.388 782.469 462.956 813.579C461.09 854.116 440.008 899.994 462.179 934.328C483.335 967.089 537.311 956.76 569.626 978.765C605.141 1002.95 618.538 1079.36 659.978 1069.01C714.275 1055.45 706.924 962.943 753.804 932.764C781.358 915.027 818.995 952.857 851.166 945.94C883.987 938.882 907.196 911.023 935.762 893.639C976.143 869.064 1037.29 864.305 1056.24 821.137C1073.71 781.349 1028.3 738.79 1022.76 695.501C1017.16 651.773 1039.4 605.784 1023.39 564.569C1007.41 523.415 973.848 487.411 934.194 467.52C894.589 447.653 843.09 435.446 803.345 454.19Z"/>
<path d="M802.028 459.532C753.941 482.225 745.652 551.619 701.227 580.701C682.444 592.997 656.36 561.912 634.959 568.9C614.009 575.741 612.2 612.035 590.658 616.806C540.315 627.954 474.608 577.957 436.927 612.752C408.41 639.087 470.984 683.269 477.008 721.756C481.742 752.002 469.549 781.63 468.137 812.146C466.298 851.911 445.613 896.92 467.348 930.593C488.087 962.725 541.021 952.581 572.707 974.158C607.53 997.871 620.65 1072.83 661.291 1062.66C714.541 1049.35 707.354 958.606 753.335 928.992C780.36 911.587 817.261 948.687 848.811 941.894C880.999 934.964 903.766 907.63 931.783 890.571C971.39 866.456 1031.35 861.773 1049.95 819.424C1067.09 780.391 1022.57 738.653 1017.14 696.191C1011.66 653.299 1033.49 608.181 1017.8 567.756C1002.13 527.391 969.226 492.08 930.344 472.578C891.509 453.099 841.009 441.137 802.028 459.532Z"/>
<path d="M800.712 464.875C753.567 487.139 745.425 555.186 701.869 583.713C683.454 595.774 657.891 565.3 636.91 572.157C616.372 578.87 614.59 614.459 593.472 619.142C544.119 630.085 479.719 581.076 442.773 615.204C414.811 641.034 476.141 684.342 482.037 722.079C486.671 751.737 474.711 780.791 473.32 810.715C471.507 849.707 451.219 893.846 472.518 926.859C492.84 958.361 544.733 948.402 575.789 969.552C609.919 992.796 622.763 1066.29 662.606 1056.32C714.809 1043.25 707.785 954.27 752.867 925.221C779.363 908.147 815.527 944.518 846.457 937.849C878.012 931.046 900.337 904.238 927.806 887.504C966.637 863.848 1025.42 859.242 1043.66 817.711C1060.47 779.433 1016.84 738.518 1011.53 696.882C1006.17 654.825 1027.57 610.579 1012.2 570.944C996.85 531.367 964.606 496.751 926.495 477.637C888.43 458.546 838.929 446.828 800.712 464.875Z"/>
<path d="M799.395 470.218C753.193 492.052 745.198 558.752 702.511 586.724C684.463 598.551 659.422 568.687 638.861 575.414C618.734 581.999 616.98 616.883 596.285 621.478C547.922 632.217 484.829 584.195 448.618 617.656C421.212 642.98 481.297 685.414 487.066 722.402C491.599 751.471 479.872 779.952 478.501 809.283C476.716 847.502 456.825 890.771 477.687 923.125C497.593 953.997 548.444 944.222 578.871 964.946C612.309 987.721 624.876 1059.76 663.919 1049.97C715.076 1037.15 708.215 949.934 752.398 921.449C778.366 904.708 813.793 940.348 844.103 933.804C875.025 927.128 896.907 900.846 923.828 884.437C961.884 861.24 1019.49 856.711 1037.37 815.999C1053.85 778.475 1011.11 738.382 1005.91 697.573C1000.67 656.351 1021.66 612.977 1006.6 574.131C991.572 535.343 959.985 501.421 922.645 482.695C885.351 463.992 836.848 452.519 799.395 470.218Z"/>
<path d="M798.078 475.561C752.819 496.965 744.97 562.318 703.152 589.736C685.472 601.328 660.953 572.074 640.812 578.67C621.097 585.127 619.369 619.306 599.098 623.814C551.724 634.348 489.939 587.314 454.462 620.107C427.613 644.927 486.454 686.487 492.094 722.725C496.527 751.204 485.033 779.113 483.683 807.851C481.924 845.297 462.431 887.696 482.856 919.391C502.345 949.633 552.156 940.043 581.952 960.339C614.698 982.645 626.988 1053.22 665.233 1043.62C715.343 1031.04 708.646 945.598 751.929 917.678C777.368 901.268 812.059 936.178 841.748 929.759C872.037 923.209 893.477 897.454 919.85 881.369C957.131 858.632 1013.55 854.179 1031.08 814.286C1047.23 777.517 1005.37 738.246 1000.3 698.264C995.174 657.877 1015.74 615.375 1001.01 577.319C986.294 539.318 955.364 506.091 918.796 487.753C882.272 469.439 834.767 458.21 798.078 475.561Z"/>
<path d="M796.763 480.904C752.446 501.878 744.744 565.884 703.795 592.747C686.482 604.105 662.484 575.462 642.764 581.927C623.46 588.256 621.759 621.73 601.912 626.15C555.528 636.48 495.05 590.433 460.308 622.559C434.014 646.873 491.611 687.56 497.124 723.048C501.455 750.938 490.195 778.274 488.866 806.419C487.133 843.093 468.037 884.622 488.025 915.656C507.098 945.27 555.868 935.864 585.034 955.733C617.088 977.569 629.101 1046.68 666.548 1037.27C715.611 1024.94 709.077 941.261 751.46 913.906C776.371 897.828 810.326 932.008 839.395 925.713C869.051 919.291 890.049 894.061 915.873 878.302C952.379 856.024 1007.62 851.648 1024.79 812.574C1040.62 776.559 999.643 738.11 994.686 698.955C989.679 659.403 1009.83 617.772 995.411 580.506C981.017 543.294 950.744 510.761 914.947 492.812C879.193 474.885 832.687 463.901 796.763 480.904Z"/>
<path d="M795.446 486.246C752.072 506.791 744.517 569.45 704.436 595.758C687.491 606.881 664.015 578.849 644.715 585.184C625.822 591.385 624.149 624.154 604.725 628.486C559.331 638.611 500.16 593.552 466.153 625.011C440.415 648.82 496.768 688.632 502.152 723.371C506.383 750.672 495.356 777.435 494.048 804.987C492.342 840.888 473.643 881.547 493.194 911.922C511.851 940.906 559.579 931.684 588.116 951.127C619.477 972.493 631.214 1040.15 667.861 1030.92C715.878 1018.84 709.507 936.925 750.991 910.134C775.374 894.388 808.592 927.839 837.04 921.668C866.063 915.373 886.619 890.669 911.895 875.234C947.626 853.415 1001.68 849.116 1018.5 810.861C1034 775.601 993.911 737.974 989.072 699.645C984.183 660.929 1003.91 620.17 989.815 583.693C975.739 547.27 946.123 515.431 911.097 497.87C876.114 480.331 830.606 469.592 795.446 486.246Z"/>
<path d="M794.13 491.589C751.698 511.704 744.29 573.016 705.078 598.77C688.5 609.658 665.546 582.237 646.667 588.441C628.185 594.514 626.538 626.577 607.538 630.822C563.134 640.742 505.271 596.671 471.998 627.462C446.816 650.766 501.925 689.705 507.181 723.695C511.312 750.406 500.518 776.596 499.23 803.555C497.551 838.684 479.249 878.473 498.364 908.188C516.604 936.542 563.291 927.505 591.197 946.52C621.866 967.418 633.327 1033.61 669.175 1024.58C716.145 1012.74 709.938 932.589 750.523 906.363C774.376 890.949 806.858 923.669 834.686 917.623C863.076 911.455 883.189 887.277 907.917 872.167C942.873 850.807 995.751 846.585 1012.21 809.148C1027.38 774.643 988.18 737.838 983.458 700.336C978.687 662.455 997.995 622.568 984.218 586.881C970.461 551.246 941.503 520.101 907.248 502.929C873.035 485.778 828.526 475.283 794.13 491.589Z"/>
<path d="M792.813 496.932C751.324 516.617 744.063 576.583 705.72 601.782C689.509 612.436 667.077 585.624 648.618 591.697C630.548 597.643 628.928 629.001 610.351 633.158C566.937 642.874 510.381 599.79 477.843 629.914C453.217 652.713 507.081 690.778 512.21 724.018C516.24 750.141 505.68 775.757 504.412 802.123C502.76 836.48 484.854 875.399 503.533 904.454C521.356 932.178 567.002 923.326 594.279 941.914C624.256 962.342 635.44 1027.08 670.489 1018.23C716.413 1006.64 710.369 928.253 750.054 902.592C773.379 887.509 805.124 919.5 832.332 913.578C860.089 907.537 879.76 883.885 903.939 869.1C938.12 848.2 989.817 844.054 1005.92 807.436C1020.76 773.686 982.449 737.702 977.844 701.027C973.191 663.981 992.08 624.966 978.622 590.068C965.184 555.222 936.882 524.771 903.399 507.988C869.956 491.224 826.445 480.974 792.813 496.932Z"/>
<path d="M791.497 502.275C750.951 521.531 743.836 580.149 706.362 604.793C690.519 615.213 668.608 589.012 650.569 594.954C632.911 600.771 631.318 631.425 613.164 635.495C570.74 645.005 515.492 602.909 483.688 632.366C459.618 654.659 512.238 691.851 517.239 724.341C521.168 749.875 510.841 774.918 509.594 800.692C507.968 834.275 490.46 872.324 508.702 900.72C526.109 927.815 570.714 919.147 597.361 937.308C626.645 957.267 637.553 1020.54 671.803 1011.88C716.68 1000.53 710.8 923.917 749.585 898.82C772.381 884.07 803.391 915.33 829.978 909.533C857.102 903.619 876.331 880.493 899.962 866.033C933.367 845.592 983.883 841.522 999.628 805.723C1014.14 772.728 976.718 737.566 972.229 701.718C967.696 665.507 986.165 627.364 973.026 593.256C959.906 559.197 932.262 529.441 899.549 513.046C866.877 496.671 824.365 486.665 791.497 502.275Z"/>
<path d="M790.18 507.617C750.577 526.444 743.609 583.715 707.004 607.805C691.528 617.989 670.139 592.399 652.52 598.211C635.273 603.9 633.707 633.848 615.977 637.83C574.543 647.137 520.602 606.028 489.533 634.817C466.019 656.606 517.395 692.923 522.267 724.664C526.096 749.608 516.002 774.079 514.776 799.259C513.177 832.071 496.066 869.25 513.871 896.985C530.861 923.451 574.425 914.967 600.442 932.701C629.034 952.191 639.665 1014 673.117 1005.53C716.947 994.433 711.23 919.58 749.116 895.048C771.384 880.63 801.656 911.16 827.623 905.488C854.115 899.701 872.901 877.1 895.984 862.965C928.614 842.983 977.949 838.991 993.337 804.011C1007.52 771.77 970.986 737.43 966.615 702.409C962.199 667.033 980.249 629.761 967.429 596.443C954.628 563.173 927.641 534.111 895.7 518.104C863.797 502.117 822.284 492.356 790.18 507.617Z"/>
<path d="M788.864 512.96C750.203 531.357 743.382 587.281 707.646 610.816C692.537 620.766 671.67 595.787 654.472 601.468C637.636 607.029 636.097 636.272 618.791 640.167C578.346 649.268 525.713 609.147 495.378 637.269C472.42 658.553 522.551 693.996 527.296 724.987C531.024 749.343 521.164 773.24 519.958 797.828C518.386 829.867 501.672 866.175 519.041 893.251C535.614 919.087 578.136 910.788 603.524 928.095C631.424 947.116 641.778 1007.47 674.431 999.185C717.214 988.331 711.661 915.244 748.648 891.277C770.387 877.19 799.923 906.99 825.269 901.442C851.128 895.782 869.472 873.708 892.006 859.898C923.861 840.376 972.015 836.46 987.047 802.298C1000.9 770.812 965.255 737.295 961.001 703.1C956.704 668.559 974.334 632.159 961.833 599.63C949.35 567.149 923.02 538.781 891.85 523.163C860.718 507.564 820.204 498.047 788.864 512.96Z"/>
<path d="M787.547 518.303C749.829 536.27 743.155 590.848 708.288 613.828C693.546 623.543 673.201 599.174 656.423 604.724C639.998 610.158 638.486 638.696 621.604 642.503C582.149 651.4 530.823 612.266 501.223 639.721C478.821 660.499 527.708 695.069 532.325 725.31C535.953 749.077 526.326 772.401 525.14 796.396C523.595 827.662 507.278 863.101 524.21 889.517C540.367 914.723 581.848 906.609 606.605 923.489C633.813 942.04 643.891 1000.93 675.745 992.837C717.482 982.229 712.092 910.908 748.179 887.506C769.389 873.751 798.189 902.821 822.915 897.397C848.14 891.864 866.042 870.316 888.028 856.831C919.108 837.768 966.081 833.929 980.756 800.586C994.282 769.854 959.524 737.159 955.387 703.791C951.208 670.085 968.419 634.557 956.237 602.818C944.073 571.125 918.4 543.452 888.001 528.222C857.639 513.01 818.123 503.739 787.547 518.303Z"/>
<path d="M786.231 523.646C749.455 541.183 742.928 594.414 708.93 616.839C694.556 626.32 674.732 602.562 658.374 607.981C642.361 613.286 640.876 641.12 624.417 644.839C585.953 653.531 535.934 615.385 507.068 642.173C485.222 662.446 532.865 696.142 537.354 725.633C540.881 748.811 531.487 771.562 530.322 794.964C528.804 825.458 512.883 860.027 529.379 885.783C545.12 910.359 585.56 902.43 609.687 918.883C636.203 936.964 646.004 994.398 677.059 986.489C717.749 976.127 712.523 906.572 747.71 883.734C768.392 870.311 796.455 898.651 820.561 893.352C845.153 887.946 862.613 866.924 884.051 853.763C914.356 835.16 960.147 831.397 974.466 798.873C987.663 768.896 953.793 737.023 949.773 704.482C945.712 671.611 962.503 636.955 950.64 606.005C938.795 575.101 913.779 548.122 884.152 533.28C854.56 518.457 816.043 509.43 786.231 523.646Z"/>
<path d="M784.914 528.989C749.081 546.096 742.701 597.98 709.571 619.85C695.565 629.097 676.263 605.949 660.325 611.238C644.723 616.415 643.265 643.543 627.23 647.175C589.755 655.662 541.044 618.504 512.913 644.624C491.623 664.392 538.021 697.214 542.382 725.956C545.809 748.545 536.648 770.723 535.504 793.532C534.012 823.253 518.489 856.952 534.548 882.048C549.872 905.995 589.271 898.25 612.768 914.276C638.592 931.889 648.116 987.862 678.373 980.141C718.016 970.025 712.953 902.236 747.241 879.962C767.394 866.872 794.721 894.482 818.206 889.307C842.166 884.028 859.183 863.531 880.072 850.696C909.602 832.551 954.213 828.866 968.175 797.161C981.044 767.938 948.061 736.887 944.158 705.172C940.216 673.136 956.588 639.353 945.044 609.192C933.517 579.076 909.158 552.792 880.302 538.339C851.481 523.903 813.962 515.121 784.914 528.989Z"/>
<path d="M783.598 534.332C748.708 551.01 742.474 601.546 710.214 622.862C696.574 631.874 677.794 609.337 662.276 614.495C647.086 619.544 645.655 645.967 630.043 649.511C593.558 657.794 546.155 621.624 518.758 647.076C498.024 666.339 543.178 698.287 547.411 726.28C550.737 748.279 541.81 769.884 540.686 792.1C539.221 821.049 524.095 853.878 539.718 878.314C554.625 901.632 592.982 894.071 615.85 909.67C640.981 926.813 650.229 981.326 679.687 973.793C718.284 963.923 713.384 897.9 746.773 876.191C766.397 863.432 792.988 890.312 815.852 885.262C839.179 880.11 855.754 860.139 876.095 847.629C904.85 829.943 948.279 826.334 961.885 795.448C974.425 766.98 942.33 736.751 938.544 705.863C934.72 674.662 950.672 641.75 939.448 612.38C928.239 583.052 904.538 557.462 876.453 543.397C848.402 529.35 811.881 520.812 783.598 534.332Z"/>
<path d="M782.281 539.674C748.334 555.923 742.247 605.112 710.856 625.874C697.584 634.651 679.325 612.724 664.228 617.751C649.449 622.673 648.045 648.391 632.857 651.847C597.362 659.925 551.265 624.743 524.603 649.528C504.425 668.286 548.335 699.36 552.44 726.603C555.665 748.013 546.972 769.045 545.868 790.668C544.43 818.844 529.701 850.803 544.887 874.58C559.378 897.268 596.694 889.892 618.932 905.064C643.371 921.738 652.342 974.79 681.001 967.445C718.551 957.821 713.815 893.563 746.304 872.42C765.399 859.992 791.254 886.142 813.498 881.217C836.192 876.192 852.324 856.747 872.117 844.561C900.097 827.336 942.345 823.803 955.594 793.736C967.806 766.023 936.599 736.615 932.93 706.554C929.224 676.189 944.757 644.148 933.851 615.567C922.961 587.028 899.917 562.132 872.603 548.456C845.323 534.796 809.801 526.503 782.281 539.674Z"/>
</mask>
<path d="M846.788 277.877C766.651 315.177 753.37 430.369 679.402 478.311C648.129 498.58 604.307 446.738 568.617 458.171C533.68 469.363 530.954 529.631 495.011 537.379C411.012 555.485 300.852 471.909 238.196 529.396C190.777 572.904 295.655 646.796 306.031 710.77C314.185 761.046 294.058 810.156 291.949 860.831C289.2 926.862 255.016 1001.45 291.594 1057.56C326.497 1111.09 414.832 1094.68 467.933 1130.77C526.291 1170.44 548.816 1295.05 616.618 1278.5C705.454 1256.81 692.71 1106.04 769.274 1057.22C814.273 1028.53 876.21 1090.46 928.855 1079.43C982.562 1068.18 1020.37 1022.97 1067.03 994.86C1132.99 955.128 1233.11 947.838 1263.83 877.65C1292.14 812.958 1217.43 743.273 1208.02 672.702C1198.52 601.416 1234.61 526.656 1208.07 459.386C1181.57 392.213 1126.33 333.297 1061.22 300.589C996.198 267.92 911.75 247.64 846.788 277.877Z" stroke="#D5E2EB" mask="url(#path-1-inside-1_1_371)"/>
<path d="M845.472 283.22C766.277 320.091 753.143 433.935 680.044 481.322C649.139 501.357 605.838 450.126 570.569 461.428C536.043 472.492 533.344 532.055 497.824 539.715C414.815 557.617 305.962 475.028 244.041 531.848C197.178 574.851 300.812 647.869 311.06 711.093C319.113 760.78 299.22 809.317 297.131 859.399C294.409 924.657 260.622 998.376 296.763 1053.82C331.25 1106.73 418.543 1090.5 471.015 1126.17C528.68 1165.37 550.928 1288.51 617.932 1272.15C705.722 1250.71 693.141 1101.7 768.805 1053.45C813.276 1025.09 874.477 1086.29 926.501 1075.38C979.575 1064.26 1016.94 1019.57 1063.05 991.793C1128.23 952.52 1227.18 945.307 1257.54 875.938C1285.52 812 1211.7 743.137 1202.41 673.393C1193.03 602.942 1228.7 529.054 1202.48 462.573C1176.29 396.189 1121.71 337.968 1057.37 305.647C993.119 273.366 909.669 253.331 845.472 283.22Z" stroke="#D5E2EB" mask="url(#path-1-inside-1_1_371)"/>
<path d="M844.155 288.563C765.903 325.004 752.916 437.502 680.686 484.334C650.148 504.134 607.369 453.513 572.52 464.685C538.405 475.62 535.733 534.478 500.637 542.051C418.618 559.748 311.073 478.147 249.886 534.299C203.579 576.797 305.969 648.941 316.088 711.416C324.041 760.514 304.381 808.478 302.313 857.967C299.617 922.453 266.228 995.301 301.932 1050.09C336.002 1102.37 422.255 1086.32 474.096 1121.56C531.069 1160.29 553.041 1281.97 619.245 1265.8C705.989 1244.61 693.572 1097.36 768.336 1049.68C812.278 1021.65 872.742 1082.12 924.146 1071.34C976.588 1060.34 1013.51 1016.18 1059.07 988.726C1123.48 949.912 1221.24 942.776 1251.25 874.225C1278.9 811.042 1205.97 743.001 1196.8 674.084C1187.53 604.468 1222.78 531.451 1196.88 465.76C1171.02 400.165 1117.09 342.638 1053.52 310.706C990.04 278.813 907.588 259.022 844.155 288.563Z" stroke="#D5E2EB" mask="url(#path-1-inside-1_1_371)"/>
<path d="M842.838 293.905C765.53 329.917 752.689 441.068 681.328 487.345C651.157 506.911 608.9 456.901 574.471 467.941C540.768 478.749 538.123 536.902 503.45 544.387C422.421 561.88 316.183 481.266 255.731 536.751C209.98 578.744 311.126 650.014 321.117 711.739C328.969 760.248 309.543 807.639 307.495 856.535C304.826 920.248 271.834 992.227 307.102 1046.35C340.755 1098 425.966 1082.14 477.178 1116.95C533.459 1155.22 555.154 1275.44 620.559 1259.45C706.256 1238.51 694.002 1093.03 767.867 1045.91C811.281 1018.22 871.009 1077.95 921.792 1067.29C973.601 1056.43 1010.08 1012.79 1055.09 985.658C1118.73 947.304 1215.31 940.245 1244.96 872.512C1272.28 810.085 1200.24 742.866 1191.18 674.775C1182.03 605.994 1216.86 533.849 1191.28 468.948C1165.74 404.141 1112.47 347.308 1049.68 315.764C986.961 284.259 905.508 264.713 842.838 293.905Z" stroke="#D5E2EB" mask="url(#path-1-inside-1_1_371)"/>
<path d="M841.522 299.248C765.156 334.83 752.462 444.634 681.97 490.357C652.166 509.688 610.431 460.288 576.422 471.198C543.13 481.878 540.512 539.326 506.263 546.723C426.224 564.011 321.294 484.385 261.576 539.203C216.381 580.69 316.282 651.087 326.146 712.062C333.897 759.982 314.704 806.8 312.677 855.103C310.035 918.044 277.439 989.152 312.271 1042.62C345.507 1093.64 429.678 1077.96 480.26 1112.35C535.848 1150.14 557.267 1268.9 621.873 1253.1C706.523 1232.41 694.433 1088.69 767.398 1042.14C810.283 1014.78 869.275 1073.78 919.438 1063.25C970.614 1052.51 1006.65 1009.4 1051.12 982.591C1113.98 944.696 1209.37 937.713 1238.67 870.8C1265.67 809.127 1194.51 742.73 1185.57 675.465C1176.54 607.52 1210.95 536.247 1185.69 472.135C1160.46 408.117 1107.85 351.978 1045.83 320.823C983.882 289.706 903.427 270.404 841.522 299.248Z" stroke="#D5E2EB" mask="url(#path-1-inside-1_1_371)"/>
<path d="M840.206 304.591C764.782 339.743 752.235 448.2 682.612 493.368C653.176 512.465 611.962 463.676 578.373 474.455C545.493 485.007 542.902 541.749 509.077 549.059C430.027 566.143 326.404 487.504 267.421 541.654C222.782 582.637 321.439 652.16 331.175 712.385C338.826 759.716 319.866 805.961 317.859 853.671C315.244 915.839 283.045 986.078 317.44 1038.89C350.26 1089.28 433.389 1073.78 483.341 1107.74C538.238 1145.06 559.38 1262.37 623.187 1246.76C706.791 1226.3 694.864 1084.36 766.93 1038.37C809.286 1011.34 867.541 1069.61 917.084 1059.2C967.627 1048.59 1003.22 1006.01 1047.14 979.524C1109.22 942.088 1203.44 935.182 1232.38 869.087C1259.05 808.169 1188.78 742.594 1179.95 676.156C1171.04 609.046 1205.03 538.645 1180.09 475.323C1155.18 412.093 1103.23 356.648 1041.98 325.881C980.803 295.152 901.347 276.095 840.206 304.591Z" stroke="#D5E2EB" mask="url(#path-1-inside-1_1_371)"/>
<path d="M838.889 309.934C764.408 344.656 752.008 451.766 683.253 496.38C654.185 515.242 613.493 467.063 580.324 477.712C547.855 488.136 545.291 544.173 511.89 551.395C433.83 568.274 331.514 490.623 273.266 544.106C229.182 584.583 326.596 653.232 336.203 712.708C343.754 759.45 325.027 805.122 323.041 852.239C320.452 913.635 288.651 983.004 322.609 1035.15C355.013 1084.91 437.1 1069.6 486.423 1103.13C540.627 1139.99 561.492 1255.83 624.501 1240.41C707.058 1220.2 695.294 1080.02 766.461 1034.59C808.288 1007.9 865.807 1065.44 914.729 1055.16C964.639 1044.67 999.792 1002.61 1043.16 976.456C1104.47 939.48 1197.51 932.651 1226.09 867.375C1252.43 807.211 1183.04 742.458 1174.34 676.847C1165.55 610.572 1199.12 541.043 1174.49 478.51C1149.91 416.068 1098.6 361.318 1038.13 330.94C977.724 300.599 899.266 281.786 838.889 309.934Z" stroke="#D5E2EB" mask="url(#path-1-inside-1_1_371)"/>
<path d="M837.572 315.277C764.034 349.57 751.781 455.333 683.895 499.391C655.194 518.019 615.024 470.45 582.276 480.968C550.218 491.264 547.681 546.597 514.703 553.731C437.633 570.405 336.625 493.742 279.111 546.558C235.583 586.53 331.752 654.305 341.232 713.032C348.682 759.184 330.189 804.283 328.223 850.808C325.661 911.431 294.257 979.929 327.779 1031.42C359.765 1080.55 440.812 1065.42 489.504 1098.53C543.016 1134.91 563.605 1249.29 625.815 1234.06C707.325 1214.1 695.725 1075.68 765.992 1030.82C807.291 1004.46 864.073 1061.27 912.375 1051.11C961.652 1040.75 996.362 999.221 1039.18 973.389C1099.72 936.872 1191.57 930.119 1219.8 865.662C1245.81 806.253 1177.31 742.322 1168.73 677.538C1160.05 612.098 1193.2 543.441 1168.9 481.697C1144.63 420.044 1093.98 365.988 1034.28 335.998C974.644 306.045 897.185 287.477 837.572 315.277Z" stroke="#D5E2EB" mask="url(#path-1-inside-1_1_371)"/>
<path d="M836.256 320.62C763.661 354.483 751.554 458.899 684.537 502.403C656.203 520.796 616.555 473.838 584.227 484.225C552.581 494.393 550.071 549.02 517.516 556.068C441.436 572.537 341.736 496.862 284.957 549.01C241.985 588.477 336.909 655.378 346.261 713.355C353.61 758.918 335.35 803.444 333.405 849.376C330.87 909.226 299.863 976.855 332.948 1027.68C364.518 1076.18 444.524 1061.24 492.586 1093.92C545.406 1129.84 565.718 1242.76 627.129 1227.71C707.593 1208 696.156 1071.35 765.523 1027.05C806.294 1001.02 862.34 1057.1 910.021 1047.07C958.665 1036.84 992.933 995.829 1035.21 970.322C1094.96 934.264 1185.64 927.588 1213.5 863.95C1239.19 805.295 1171.58 742.186 1163.11 678.229C1154.55 613.624 1187.29 545.838 1163.3 484.885C1139.35 424.02 1089.36 370.658 1030.43 341.057C971.566 311.492 895.105 293.169 836.256 320.62Z" stroke="#D5E2EB" mask="url(#path-1-inside-1_1_371)"/>
<path d="M834.94 325.962C763.287 359.396 751.327 462.465 685.18 505.414C657.213 523.573 618.086 477.226 586.179 487.482C554.944 497.522 552.461 551.444 520.33 558.404C445.24 574.668 346.846 499.981 290.802 551.461C248.386 590.423 342.066 656.451 351.29 713.678C358.538 758.652 340.512 802.605 338.587 847.944C336.079 907.022 305.469 973.78 338.117 1023.95C369.271 1071.82 448.235 1057.06 495.668 1089.32C547.795 1124.76 567.831 1236.22 628.443 1221.37C707.86 1201.9 696.587 1067.01 765.055 1023.28C805.296 997.578 860.606 1052.93 907.667 1043.02C955.678 1032.92 989.504 992.437 1031.23 967.255C1090.21 931.656 1179.7 925.057 1207.21 862.237C1232.57 804.337 1165.85 742.05 1157.5 678.92C1149.06 615.15 1181.37 548.236 1157.7 488.072C1134.07 427.996 1084.74 375.328 1026.58 346.116C968.487 316.938 893.024 298.86 834.94 325.962Z" stroke="#D5E2EB" mask="url(#path-1-inside-1_1_371)"/>
<path d="M833.623 331.305C762.913 364.309 751.1 466.031 685.821 508.426C658.222 526.35 619.617 480.613 588.13 490.739C557.306 500.651 554.85 553.868 523.143 560.74C449.043 576.8 351.957 503.1 296.647 553.913C254.787 592.37 347.223 657.523 356.319 714.001C363.467 758.386 345.674 801.766 343.769 846.512C341.288 904.817 311.074 970.706 343.287 1020.21C374.024 1067.46 451.947 1052.88 498.75 1084.71C550.185 1119.69 569.944 1229.69 629.757 1215.02C708.127 1195.8 697.018 1062.67 764.586 1019.51C804.299 994.138 858.872 1048.76 905.313 1038.98C952.691 1029 986.074 989.045 1027.25 964.187C1085.46 929.048 1173.77 922.525 1200.92 860.525C1225.95 803.38 1160.12 741.915 1151.88 679.611C1143.56 616.676 1175.46 550.634 1152.11 491.26C1128.79 431.972 1080.12 379.999 1022.73 351.174C965.408 322.385 890.944 304.551 833.623 331.305Z" stroke="#D5E2EB" mask="url(#path-1-inside-1_1_371)"/>
<path d="M832.306 336.648C762.539 369.222 750.872 469.597 686.463 511.437C659.231 529.127 621.147 484 590.08 493.995C559.668 503.779 557.239 556.291 525.955 563.076C452.845 578.931 357.067 506.218 302.491 556.364C261.187 594.316 352.379 658.596 361.347 714.324C368.394 758.12 350.834 800.927 348.951 845.08C346.496 902.613 316.68 967.631 348.455 1016.48C378.776 1063.09 455.657 1048.7 501.83 1080.1C552.574 1114.61 572.056 1223.15 631.07 1208.67C708.394 1189.69 697.448 1058.34 764.117 1015.74C803.301 990.698 857.138 1044.59 902.958 1034.93C949.703 1025.08 982.644 985.652 1023.27 961.12C1080.71 926.44 1167.84 919.994 1194.63 858.812C1219.33 802.422 1154.39 741.779 1146.27 680.301C1138.07 618.202 1169.54 553.032 1146.51 494.447C1123.52 435.947 1075.5 384.668 1018.88 356.232C962.328 327.831 888.863 310.242 832.306 336.648Z" stroke="#D5E2EB" mask="url(#path-1-inside-1_1_371)"/>
<path d="M830.99 341.991C762.165 374.135 750.646 473.163 687.105 514.449C660.24 531.904 622.678 487.388 592.032 497.252C562.031 506.908 559.629 558.715 528.769 565.412C456.648 581.062 362.177 509.338 308.336 558.816C267.588 596.263 357.536 659.669 366.376 714.647C373.323 757.854 355.996 800.088 354.133 843.648C351.705 900.408 322.286 964.557 353.625 1012.75C383.529 1058.73 459.369 1044.52 504.912 1075.5C554.963 1109.53 574.169 1216.62 632.385 1202.32C708.661 1183.59 697.878 1054 763.648 1011.97C802.304 987.259 855.404 1040.42 900.604 1030.89C946.716 1021.16 979.215 982.26 1019.29 958.052C1075.95 923.832 1161.9 917.462 1188.34 857.1C1212.71 801.464 1148.66 741.643 1140.65 680.992C1132.57 619.728 1163.63 555.43 1140.92 497.634C1118.24 439.923 1070.88 389.339 1015.03 361.291C959.249 333.277 886.782 315.933 830.99 341.991Z" stroke="#D5E2EB" mask="url(#path-1-inside-1_1_371)"/>
<path d="M829.674 347.333C761.791 379.048 750.419 476.729 687.747 517.46C661.25 534.68 624.21 490.775 593.983 500.509C564.394 510.037 562.019 561.138 531.582 567.748C460.451 583.194 367.288 512.456 314.182 561.267C273.989 598.209 362.693 660.741 371.405 714.97C378.251 757.588 361.158 799.249 359.315 842.216C356.914 898.204 327.892 961.482 358.794 1009.01C388.281 1054.36 463.081 1040.35 507.994 1070.89C557.353 1104.46 576.282 1210.08 633.699 1195.97C708.929 1177.49 698.309 1049.67 763.179 1008.19C801.307 983.819 853.671 1036.25 898.25 1026.84C943.729 1017.24 975.785 978.867 1015.32 954.985C1071.2 921.224 1155.97 914.931 1182.05 855.387C1206.09 800.506 1142.93 741.507 1135.04 681.683C1127.08 621.254 1157.71 557.827 1135.32 500.821C1112.96 443.899 1066.26 394.008 1011.18 366.349C956.17 338.724 884.702 321.624 829.674 347.333Z" stroke="#D5E2EB" mask="url(#path-1-inside-1_1_371)"/>
<path d="M828.357 352.676C761.418 383.962 750.192 480.296 688.389 520.471C662.259 537.458 625.741 494.163 595.935 503.765C566.757 513.166 564.408 563.562 534.395 570.084C464.255 585.325 372.398 515.576 320.027 563.719C280.39 600.156 367.85 661.814 376.433 715.293C383.179 757.322 366.319 798.41 364.497 840.784C362.123 895.999 333.497 958.408 363.963 1005.28C393.034 1050 466.792 1036.17 511.076 1066.28C559.742 1099.38 578.395 1203.54 635.013 1189.62C709.196 1171.39 698.74 1045.33 762.711 1004.42C800.309 980.379 851.937 1032.08 895.896 1022.8C940.742 1013.33 972.356 975.475 1011.34 951.918C1066.45 918.616 1150.03 912.4 1175.76 853.674C1199.47 799.548 1137.19 741.371 1129.43 682.374C1121.58 622.78 1151.8 560.225 1129.72 504.009C1107.68 447.875 1061.64 398.679 1007.33 371.408C953.091 344.17 882.621 327.315 828.357 352.676Z" stroke="#D5E2EB" mask="url(#path-1-inside-1_1_371)"/>
<path d="M827.041 358.019C761.044 388.875 749.965 483.862 689.031 523.483C663.268 540.235 627.272 497.55 597.886 507.022C569.119 516.294 566.798 565.986 537.209 572.42C468.058 587.457 377.509 518.695 325.872 566.171C286.791 602.102 373.007 662.887 381.462 715.616C388.107 757.056 371.481 797.571 369.679 839.352C367.332 893.795 339.103 955.334 369.133 1001.54C397.787 1045.64 470.504 1031.99 514.157 1061.68C562.132 1094.31 580.507 1197.01 636.327 1183.28C709.464 1165.29 699.171 1040.99 762.242 1000.65C799.312 976.94 850.203 1027.91 893.542 1018.75C937.755 1009.41 968.927 972.083 1007.36 948.85C1061.69 916.008 1144.1 909.868 1169.47 851.962C1192.86 798.59 1131.46 741.235 1123.81 683.065C1116.08 624.306 1145.88 562.623 1124.13 507.196C1102.41 451.851 1057.02 403.349 1003.48 376.466C950.012 349.617 880.541 333.006 827.041 358.019Z" stroke="#D5E2EB" mask="url(#path-1-inside-1_1_371)"/>
<path d="M825.725 363.362C760.67 393.788 749.738 487.428 689.673 526.495C664.278 543.012 628.803 500.938 599.837 510.279C571.482 519.423 569.188 568.41 540.022 574.756C471.861 589.588 382.619 521.814 331.717 568.623C293.192 604.049 378.163 663.96 386.491 715.94C393.036 756.79 376.642 796.732 374.861 837.921C372.54 891.591 344.709 952.259 374.302 997.809C402.54 1041.27 474.215 1027.81 517.239 1057.07C564.521 1089.23 582.62 1190.47 637.641 1176.93C709.731 1159.18 699.602 1036.66 761.773 996.879C798.314 973.5 848.469 1023.74 891.187 1014.71C934.768 1005.49 965.497 968.691 1003.38 945.783C1056.94 913.4 1138.17 907.337 1163.18 850.249C1186.24 797.632 1125.73 741.099 1118.2 683.756C1110.59 625.832 1139.96 565.021 1118.53 510.384C1097.13 455.826 1052.4 408.019 999.634 381.525C946.933 355.063 878.46 338.697 825.725 363.362Z" stroke="#D5E2EB" mask="url(#path-1-inside-1_1_371)"/>
<path d="M824.408 368.704C760.296 398.701 749.511 490.994 690.314 529.506C665.287 545.788 630.333 504.325 601.788 513.535C573.844 522.552 571.577 570.833 542.835 577.092C475.664 591.719 387.73 524.933 337.562 571.074C299.593 605.995 383.32 665.032 391.52 716.263C397.964 756.524 381.804 795.893 380.043 836.488C377.749 889.386 350.315 949.185 379.471 994.075C407.292 1036.91 477.927 1023.63 520.32 1052.47C566.91 1084.16 584.733 1183.94 638.954 1170.58C709.998 1153.08 700.032 1032.32 761.304 993.108C797.317 970.06 846.735 1019.57 888.833 1010.66C931.781 1001.57 962.068 965.298 999.406 942.716C1052.19 910.792 1132.23 904.806 1156.89 848.537C1179.62 796.674 1120 740.963 1112.58 684.446C1105.09 627.357 1134.05 567.418 1112.93 513.571C1091.85 459.802 1047.78 412.689 995.784 386.583C943.854 360.509 876.379 344.388 824.408 368.704Z" stroke="#D5E2EB" mask="url(#path-1-inside-1_1_371)"/>
<path d="M823.092 374.047C759.922 403.614 749.284 494.56 690.956 532.518C666.296 548.565 631.865 507.713 603.739 516.792C576.207 525.681 573.967 573.257 545.648 579.428C479.467 593.851 392.84 528.052 343.407 573.526C305.994 607.942 388.477 666.105 396.548 716.586C402.892 756.258 386.965 795.054 385.225 835.057C382.958 887.182 355.921 946.11 384.641 990.341C412.045 1032.55 481.638 1019.45 523.402 1047.86C569.3 1079.08 586.846 1177.4 640.269 1164.23C710.265 1146.98 700.463 1027.99 760.836 989.336C796.32 966.621 845.002 1015.4 886.479 1006.62C928.794 997.654 958.638 961.906 995.428 939.648C1047.44 908.184 1126.3 902.274 1150.6 846.824C1173 795.716 1114.27 740.827 1106.97 685.137C1099.6 628.883 1128.13 569.816 1107.34 516.758C1086.57 463.778 1043.16 417.359 991.935 391.642C940.775 365.956 874.299 350.079 823.092 374.047Z" stroke="#D5E2EB" mask="url(#path-1-inside-1_1_371)"/>
<path d="M821.775 379.39C759.549 408.528 749.057 498.127 691.598 535.529C667.305 551.342 633.396 511.1 605.691 520.049C578.57 528.81 576.356 575.681 548.461 581.764C483.27 595.982 397.951 531.171 349.252 575.978C312.395 609.889 393.633 667.178 401.577 716.909C407.82 755.992 392.127 794.215 390.407 833.625C388.167 884.977 361.527 943.036 389.81 986.607C416.797 1028.18 485.35 1015.27 526.484 1043.25C571.689 1074.01 588.958 1170.86 641.582 1157.88C710.533 1140.88 700.894 1023.65 760.367 985.565C795.322 963.181 843.268 1011.23 884.125 1002.57C925.807 993.736 955.209 958.514 991.451 936.581C1042.68 905.576 1120.36 899.743 1144.31 845.112C1166.38 794.759 1108.54 740.692 1101.36 685.828C1094.1 630.41 1122.22 572.214 1101.74 519.946C1081.29 467.754 1038.54 422.029 988.085 396.7C937.696 371.402 872.218 355.77 821.775 379.39Z" stroke="#D5E2EB" mask="url(#path-1-inside-1_1_371)"/>
<path d="M820.459 384.733C759.175 413.441 748.83 501.693 692.24 538.541C668.315 554.119 634.927 514.488 607.642 523.306C580.933 531.938 578.746 578.104 551.275 584.101C487.073 598.114 403.061 534.29 355.097 578.429C318.796 611.835 398.79 668.251 406.606 717.232C412.748 755.726 397.288 793.376 395.589 832.193C393.376 882.773 367.132 939.962 394.979 982.872C421.55 1023.82 489.061 1011.09 529.565 1038.65C574.079 1068.93 591.071 1164.33 642.897 1151.54C710.8 1134.78 701.324 1019.31 759.898 981.793C794.325 959.742 841.534 1007.06 881.771 998.526C922.819 989.818 951.779 955.122 987.473 933.514C1037.93 902.968 1114.43 897.212 1138.02 843.399C1159.76 793.801 1102.81 740.556 1095.74 686.519C1088.6 631.935 1116.3 574.612 1096.15 523.133C1076.02 471.73 1033.92 426.699 984.236 401.759C934.617 376.849 870.138 361.462 820.459 384.733Z" stroke="#D5E2EB" mask="url(#path-1-inside-1_1_371)"/>
<path d="M819.142 390.076C758.801 418.354 748.603 505.259 692.882 541.552C669.324 556.896 636.457 517.875 609.593 526.563C583.295 535.067 581.136 580.528 554.087 586.437C490.876 600.245 408.172 537.409 360.942 580.881C325.197 613.782 403.947 669.323 411.635 717.555C417.676 755.46 402.45 792.537 400.771 830.761C398.584 880.568 372.738 936.887 400.148 979.138C426.303 1019.45 492.773 1006.91 532.647 1034.04C576.468 1063.85 593.184 1157.79 644.21 1145.19C711.067 1128.67 701.755 1014.98 759.429 978.022C793.327 956.302 839.8 1002.89 879.416 994.481C919.832 985.9 948.35 951.73 983.495 930.446C1033.18 900.36 1108.5 894.68 1131.73 841.687C1153.14 792.843 1097.07 740.42 1090.13 687.21C1083.11 633.461 1110.39 577.01 1090.55 526.321C1070.74 475.705 1029.3 431.369 980.386 406.817C931.537 382.295 868.057 367.152 819.142 390.076Z" stroke="#D5E2EB" mask="url(#path-1-inside-1_1_371)"/>
<path d="M817.826 395.419C758.427 423.267 748.376 508.825 693.524 544.563C670.333 559.673 637.988 521.262 611.544 529.819C585.658 538.196 583.525 582.952 556.901 588.773C494.679 602.377 413.282 540.528 366.787 583.333C331.598 615.728 409.104 670.396 416.663 717.878C422.605 755.194 407.611 791.698 405.953 829.329C403.793 878.364 378.344 933.813 405.317 975.404C431.055 1015.09 496.484 1002.73 535.729 1029.43C578.857 1058.78 595.297 1151.26 645.524 1138.84C711.334 1122.57 702.186 1010.64 758.961 974.25C792.33 952.862 838.066 998.723 877.062 990.436C916.845 981.982 944.92 948.337 979.517 927.379C1028.42 897.752 1102.56 892.149 1125.44 839.974C1146.52 791.885 1091.34 740.284 1084.51 687.901C1077.61 634.987 1104.47 579.408 1084.95 529.508C1065.46 479.681 1024.67 436.039 976.537 411.876C928.458 387.742 865.977 372.844 817.826 395.419Z" stroke="#D5E2EB" mask="url(#path-1-inside-1_1_371)"/>
<path d="M816.509 400.761C758.053 428.18 748.149 512.391 694.166 547.575C671.343 562.45 639.52 524.65 613.496 533.076C588.021 541.325 585.915 585.375 559.714 591.109C498.482 604.508 418.393 543.647 372.632 585.784C337.999 617.675 414.26 671.469 421.692 718.202C427.533 754.928 412.773 790.859 411.135 827.897C409.002 876.16 383.95 930.738 410.487 971.67C435.808 1010.73 500.196 998.553 538.81 1024.83C581.247 1053.7 597.41 1144.72 646.838 1132.49C711.602 1116.47 702.616 1006.3 758.492 970.479C791.332 949.423 836.333 994.553 874.708 986.391C913.858 978.063 941.491 944.945 975.539 924.312C1023.67 895.144 1096.63 889.618 1119.15 838.262C1139.9 790.927 1085.61 740.148 1078.9 688.592C1072.12 636.513 1098.56 581.805 1079.36 532.695C1060.18 483.657 1020.05 440.71 972.688 416.934C925.379 393.188 863.896 378.535 816.509 400.761Z" stroke="#D5E2EB" mask="url(#path-1-inside-1_1_371)"/>
<path d="M815.193 406.104C757.68 433.094 747.922 515.958 694.808 550.587C672.352 565.227 641.051 528.037 615.447 536.333C590.383 544.454 588.305 587.799 562.527 593.445C502.285 606.64 423.503 546.766 378.477 588.236C344.4 619.621 419.417 672.542 426.721 718.525C432.461 754.662 417.934 790.02 416.318 826.465C414.211 873.955 389.556 927.664 415.656 967.936C440.561 1006.36 503.907 994.373 541.892 1020.22C583.636 1048.63 599.523 1138.19 648.152 1126.14C711.869 1110.37 703.047 1001.97 758.023 966.707C790.335 945.983 834.599 990.384 872.354 982.346C910.871 974.145 938.061 941.553 971.562 921.245C1018.92 892.536 1090.69 887.087 1112.86 836.549C1133.28 789.969 1079.88 740.012 1073.28 689.283C1066.62 638.039 1092.64 584.203 1073.76 535.883C1054.91 487.633 1015.43 445.38 968.838 421.993C922.3 398.635 861.816 384.226 815.193 406.104Z" stroke="#D5E2EB" mask="url(#path-1-inside-1_1_371)"/>
<path d="M813.876 411.447C757.305 438.007 747.695 519.524 695.45 553.598C673.361 568.004 642.581 531.425 617.398 539.59C592.746 547.582 590.694 590.223 565.34 595.781C506.088 608.771 428.614 549.885 384.322 590.688C350.801 621.568 424.574 673.614 431.75 718.848C437.389 754.396 423.096 789.181 421.499 825.034C419.419 871.751 395.161 924.589 420.825 964.201C445.313 1002 507.618 990.194 544.973 1015.61C586.025 1043.55 601.635 1131.65 649.466 1119.8C712.136 1104.27 703.478 997.632 757.554 962.936C789.337 942.543 832.865 986.214 869.999 978.3C907.883 970.227 934.632 938.161 967.584 918.177C1014.17 889.928 1084.76 884.555 1106.57 834.836C1126.66 789.011 1074.15 739.876 1067.67 689.973C1061.13 639.565 1086.73 586.601 1068.16 539.07C1049.63 491.609 1010.81 450.05 964.989 427.051C919.221 404.081 859.735 389.917 813.876 411.447Z" stroke="#D5E2EB" mask="url(#path-1-inside-1_1_371)"/>
<path d="M812.56 416.79C756.932 442.92 747.468 523.09 696.092 556.609C674.37 570.781 644.112 534.812 619.349 542.846C595.108 550.711 593.084 592.646 568.153 598.117C509.891 610.902 433.724 553.004 390.167 593.139C357.202 623.515 429.73 674.687 436.778 719.171C442.317 754.13 428.257 788.342 426.681 823.602C424.628 869.546 400.767 921.515 425.994 960.467C450.066 997.635 511.33 986.015 548.055 1011.01C588.415 1038.48 603.748 1125.11 650.78 1113.45C712.403 1098.16 703.908 993.296 757.085 959.164C788.34 939.104 831.131 982.044 867.645 974.255C904.896 966.309 931.202 934.768 963.606 915.11C1009.41 887.32 1078.83 882.024 1100.28 833.124C1120.05 788.054 1068.42 739.74 1062.06 690.664C1055.63 641.091 1080.81 588.999 1062.57 542.258C1044.35 495.585 1006.19 454.72 961.139 432.11C916.142 409.528 857.654 395.608 812.56 416.79Z" stroke="#D5E2EB" mask="url(#path-1-inside-1_1_371)"/>
<path d="M811.243 422.133C756.558 447.833 747.241 526.656 696.734 559.621C675.379 573.558 645.643 538.2 621.301 546.103C597.471 553.84 595.473 595.07 570.967 600.453C513.694 613.034 438.835 556.124 396.012 595.591C363.603 625.461 434.887 675.76 441.807 719.494C447.245 753.864 433.419 787.503 431.863 822.17C429.837 867.342 406.373 918.441 431.164 956.733C454.819 993.272 515.041 981.836 551.137 1006.4C590.804 1033.4 605.861 1118.58 652.094 1107.1C712.671 1092.06 704.339 988.96 756.617 955.393C787.343 935.664 829.398 977.875 865.291 970.21C901.909 962.391 927.773 931.376 959.628 912.043C1004.66 884.712 1072.89 879.493 1093.99 831.412C1113.43 787.096 1062.69 739.605 1056.44 691.355C1050.13 642.617 1074.9 591.397 1056.97 545.445C1039.07 499.56 1001.57 459.39 957.29 437.169C913.063 414.974 855.574 401.299 811.243 422.133Z" stroke="#D5E2EB" mask="url(#path-1-inside-1_1_371)"/>
<path d="M809.927 427.475C756.184 452.746 747.014 530.222 697.375 562.632C676.389 576.335 647.174 541.587 623.252 549.36C599.833 556.969 597.863 597.494 573.78 602.789C517.497 615.165 443.945 559.243 401.857 598.043C370.004 627.408 440.044 676.832 446.836 719.817C452.173 753.598 438.58 786.664 437.045 820.738C435.045 865.138 411.979 915.366 436.333 952.999C459.571 988.908 518.753 977.656 554.218 1001.8C593.194 1028.33 607.973 1112.04 653.408 1100.75C712.938 1085.96 704.77 984.623 756.148 951.621C786.345 932.225 827.663 973.705 862.937 966.165C898.922 958.473 924.343 927.984 955.65 908.975C999.907 882.104 1066.96 876.961 1087.69 829.699C1106.81 786.138 1056.96 739.469 1050.83 692.046C1044.64 644.143 1068.98 593.794 1051.37 548.632C1033.79 503.536 996.951 464.06 953.441 442.227C909.984 420.421 853.493 406.99 809.927 427.475Z" stroke="#D5E2EB" mask="url(#path-1-inside-1_1_371)"/>
<path d="M808.61 432.818C755.81 457.659 746.787 533.788 698.017 565.644C677.398 579.112 648.705 544.975 625.203 552.617C602.196 560.097 600.253 599.917 576.593 605.125C521.3 617.297 449.055 562.361 407.702 600.494C376.405 629.354 445.2 677.905 451.865 720.14C457.102 753.332 443.741 785.825 442.227 819.306C440.254 862.933 417.584 912.292 441.502 949.264C464.324 984.544 522.464 973.477 557.3 997.19C595.583 1023.25 610.086 1105.51 654.722 1094.4C713.205 1079.86 705.2 980.287 755.679 947.85C785.348 928.785 825.93 969.535 860.582 962.12C895.935 954.555 920.914 924.592 951.673 905.908C995.154 879.496 1061.02 874.43 1081.4 827.986C1100.19 785.18 1051.22 739.333 1045.21 692.737C1039.14 645.669 1063.06 596.192 1045.78 551.82C1028.52 507.512 992.33 468.73 949.591 447.285C906.905 425.867 851.412 412.681 808.61 432.818Z" stroke="#D5E2EB" mask="url(#path-1-inside-1_1_371)"/>
<path d="M807.294 438.161C755.436 462.573 746.56 537.355 698.659 568.655C678.407 581.889 650.236 548.362 627.154 555.873C604.559 563.226 602.642 602.341 579.406 607.462C525.104 619.428 454.166 565.481 413.548 602.946C382.806 631.301 450.357 678.978 456.893 720.463C462.03 753.066 448.903 784.986 447.409 817.874C445.463 860.729 423.19 909.218 446.671 945.53C469.077 980.18 526.176 969.298 560.381 992.584C597.972 1018.17 612.199 1098.97 656.036 1088.06C713.473 1073.76 705.631 975.951 755.21 944.078C784.35 925.345 824.196 965.366 858.228 958.075C892.948 950.637 917.484 921.2 947.695 902.841C990.401 876.888 1055.09 871.899 1075.11 826.274C1093.57 784.222 1045.49 739.197 1039.6 693.428C1033.65 647.195 1057.15 598.59 1040.18 555.007C1023.24 511.488 987.709 473.4 945.742 452.344C903.826 431.314 849.332 418.372 807.294 438.161Z" stroke="#D5E2EB" mask="url(#path-1-inside-1_1_371)"/>
<path d="M805.978 443.504C755.063 467.486 746.333 540.921 699.301 571.667C679.417 584.666 651.767 551.75 629.106 559.13C606.922 566.355 605.032 604.765 582.219 609.798C528.907 621.56 459.277 568.6 419.393 605.398C389.207 633.247 455.514 680.051 461.922 720.787C466.958 752.801 454.065 784.147 452.592 816.442C450.672 858.524 428.796 906.143 451.841 941.796C473.83 975.816 529.887 965.119 563.463 987.977C600.362 1013.1 614.312 1092.43 657.35 1081.71C713.74 1067.66 706.062 971.615 754.742 940.307C783.353 921.906 822.462 961.196 855.874 954.03C889.961 946.718 914.055 917.807 943.717 899.773C985.649 874.28 1049.16 869.367 1068.82 824.561C1086.95 783.264 1039.76 739.061 1033.99 694.119C1028.15 648.721 1051.23 600.988 1034.59 558.195C1017.96 515.464 983.089 478.07 941.893 457.403C900.747 436.76 847.251 424.064 805.978 443.504Z" stroke="#D5E2EB" mask="url(#path-1-inside-1_1_371)"/>
<path d="M804.661 448.846C754.688 472.399 746.105 544.487 699.943 574.678C680.425 587.443 653.298 555.137 631.056 562.387C609.284 569.483 607.421 607.188 585.032 612.133C532.709 623.691 464.387 571.718 425.237 607.849C395.608 635.194 460.67 681.123 466.95 721.109C471.886 752.534 459.226 783.308 457.773 815.01C455.88 856.32 434.402 903.068 457.009 938.062C478.582 971.452 533.598 960.939 566.544 983.371C602.751 1008.02 616.424 1085.9 658.663 1075.36C714.007 1061.55 706.492 967.278 754.272 936.535C782.355 918.466 820.728 957.026 853.519 949.984C886.973 942.8 910.625 914.415 939.739 896.706C980.895 871.672 1043.22 866.836 1062.53 822.849C1080.33 782.306 1034.03 738.925 1028.37 694.809C1022.65 650.247 1045.32 603.385 1028.99 561.382C1012.68 519.439 978.468 482.74 938.043 462.461C897.667 442.206 845.17 429.754 804.661 448.846Z" stroke="#D5E2EB" mask="url(#path-1-inside-1_1_371)"/>
<path d="M803.345 454.19C754.315 477.312 745.879 548.054 700.585 577.69C681.435 590.22 654.829 558.525 633.008 565.644C611.647 572.613 609.811 609.612 587.846 614.47C536.513 625.823 469.498 574.838 431.083 610.301C402.009 637.141 465.828 682.196 471.98 721.433C476.815 752.269 464.388 782.469 462.956 813.579C461.09 854.116 440.008 899.994 462.179 934.328C483.335 967.089 537.311 956.76 569.626 978.765C605.141 1002.95 618.538 1079.36 659.978 1069.01C714.275 1055.45 706.924 962.943 753.804 932.764C781.358 915.027 818.995 952.857 851.166 945.94C883.987 938.882 907.196 911.023 935.762 893.639C976.143 869.064 1037.29 864.305 1056.24 821.137C1073.71 781.349 1028.3 738.79 1022.76 695.501C1017.16 651.773 1039.4 605.784 1023.39 564.569C1007.41 523.415 973.848 487.411 934.194 467.52C894.589 447.653 843.09 435.446 803.345 454.19Z" stroke="#D5E2EB" mask="url(#path-1-inside-1_1_371)"/>
<path d="M802.028 459.532C753.941 482.225 745.652 551.619 701.227 580.701C682.444 592.997 656.36 561.912 634.959 568.9C614.009 575.741 612.2 612.035 590.658 616.806C540.315 627.954 474.608 577.957 436.927 612.752C408.41 639.087 470.984 683.269 477.008 721.756C481.742 752.002 469.549 781.63 468.137 812.146C466.298 851.911 445.613 896.92 467.348 930.593C488.087 962.725 541.021 952.581 572.707 974.158C607.53 997.871 620.65 1072.83 661.291 1062.66C714.541 1049.35 707.354 958.606 753.335 928.992C780.36 911.587 817.261 948.687 848.811 941.894C880.999 934.964 903.766 907.63 931.783 890.571C971.39 866.456 1031.35 861.773 1049.95 819.424C1067.09 780.391 1022.57 738.653 1017.14 696.191C1011.66 653.299 1033.49 608.181 1017.8 567.756C1002.13 527.391 969.226 492.08 930.344 472.578C891.509 453.099 841.009 441.137 802.028 459.532Z" stroke="#D5E2EB" mask="url(#path-1-inside-1_1_371)"/>
<path d="M800.712 464.875C753.567 487.139 745.425 555.186 701.869 583.713C683.454 595.774 657.891 565.3 636.91 572.157C616.372 578.87 614.59 614.459 593.472 619.142C544.119 630.085 479.719 581.076 442.773 615.204C414.811 641.034 476.141 684.342 482.037 722.079C486.671 751.737 474.711 780.791 473.32 810.715C471.507 849.707 451.219 893.846 472.518 926.859C492.84 958.361 544.733 948.402 575.789 969.552C609.919 992.796 622.763 1066.29 662.606 1056.32C714.809 1043.25 707.785 954.27 752.867 925.221C779.363 908.147 815.527 944.518 846.457 937.849C878.012 931.046 900.337 904.238 927.806 887.504C966.637 863.848 1025.42 859.242 1043.66 817.711C1060.47 779.433 1016.84 738.518 1011.53 696.882C1006.17 654.825 1027.57 610.579 1012.2 570.944C996.85 531.367 964.606 496.751 926.495 477.637C888.43 458.546 838.929 446.828 800.712 464.875Z" stroke="#D5E2EB" mask="url(#path-1-inside-1_1_371)"/>
<path d="M799.395 470.218C753.193 492.052 745.198 558.752 702.511 586.724C684.463 598.551 659.422 568.687 638.861 575.414C618.734 581.999 616.98 616.883 596.285 621.478C547.922 632.217 484.829 584.195 448.618 617.656C421.212 642.98 481.297 685.414 487.066 722.402C491.599 751.471 479.872 779.952 478.501 809.283C476.716 847.502 456.825 890.771 477.687 923.125C497.593 953.997 548.444 944.222 578.871 964.946C612.309 987.721 624.876 1059.76 663.919 1049.97C715.076 1037.15 708.215 949.934 752.398 921.449C778.366 904.708 813.793 940.348 844.103 933.804C875.025 927.128 896.907 900.846 923.828 884.437C961.884 861.24 1019.49 856.711 1037.37 815.999C1053.85 778.475 1011.11 738.382 1005.91 697.573C1000.67 656.351 1021.66 612.977 1006.6 574.131C991.572 535.343 959.985 501.421 922.645 482.695C885.351 463.992 836.848 452.519 799.395 470.218Z" stroke="#D5E2EB" mask="url(#path-1-inside-1_1_371)"/>
<path d="M798.078 475.561C752.819 496.965 744.97 562.318 703.152 589.736C685.472 601.328 660.953 572.074 640.812 578.67C621.097 585.127 619.369 619.306 599.098 623.814C551.724 634.348 489.939 587.314 454.462 620.107C427.613 644.927 486.454 686.487 492.094 722.725C496.527 751.204 485.033 779.113 483.683 807.851C481.924 845.297 462.431 887.696 482.856 919.391C502.345 949.633 552.156 940.043 581.952 960.339C614.698 982.645 626.988 1053.22 665.233 1043.62C715.343 1031.04 708.646 945.598 751.929 917.678C777.368 901.268 812.059 936.178 841.748 929.759C872.037 923.209 893.477 897.454 919.85 881.369C957.131 858.632 1013.55 854.179 1031.08 814.286C1047.23 777.517 1005.37 738.246 1000.3 698.264C995.174 657.877 1015.74 615.375 1001.01 577.319C986.294 539.318 955.364 506.091 918.796 487.753C882.272 469.439 834.767 458.21 798.078 475.561Z" stroke="#D5E2EB" mask="url(#path-1-inside-1_1_371)"/>
<path d="M796.763 480.904C752.446 501.878 744.744 565.884 703.795 592.747C686.482 604.105 662.484 575.462 642.764 581.927C623.46 588.256 621.759 621.73 601.912 626.15C555.528 636.48 495.05 590.433 460.308 622.559C434.014 646.873 491.611 687.56 497.124 723.048C501.455 750.938 490.195 778.274 488.866 806.419C487.133 843.093 468.037 884.622 488.025 915.656C507.098 945.27 555.868 935.864 585.034 955.733C617.088 977.569 629.101 1046.68 666.548 1037.27C715.611 1024.94 709.077 941.261 751.46 913.906C776.371 897.828 810.326 932.008 839.395 925.713C869.051 919.291 890.049 894.061 915.873 878.302C952.379 856.024 1007.62 851.648 1024.79 812.574C1040.62 776.559 999.643 738.11 994.686 698.955C989.679 659.403 1009.83 617.772 995.411 580.506C981.017 543.294 950.744 510.761 914.947 492.812C879.193 474.885 832.687 463.901 796.763 480.904Z" stroke="#D5E2EB" mask="url(#path-1-inside-1_1_371)"/>
<path d="M795.446 486.246C752.072 506.791 744.517 569.45 704.436 595.758C687.491 606.881 664.015 578.849 644.715 585.184C625.822 591.385 624.149 624.154 604.725 628.486C559.331 638.611 500.16 593.552 466.153 625.011C440.415 648.82 496.768 688.632 502.152 723.371C506.383 750.672 495.356 777.435 494.048 804.987C492.342 840.888 473.643 881.547 493.194 911.922C511.851 940.906 559.579 931.684 588.116 951.127C619.477 972.493 631.214 1040.15 667.861 1030.92C715.878 1018.84 709.507 936.925 750.991 910.134C775.374 894.388 808.592 927.839 837.04 921.668C866.063 915.373 886.619 890.669 911.895 875.234C947.626 853.415 1001.68 849.116 1018.5 810.861C1034 775.601 993.911 737.974 989.072 699.645C984.183 660.929 1003.91 620.17 989.815 583.693C975.739 547.27 946.123 515.431 911.097 497.87C876.114 480.331 830.606 469.592 795.446 486.246Z" stroke="#D5E2EB" mask="url(#path-1-inside-1_1_371)"/>
<path d="M794.13 491.589C751.698 511.704 744.29 573.016 705.078 598.77C688.5 609.658 665.546 582.237 646.667 588.441C628.185 594.514 626.538 626.577 607.538 630.822C563.134 640.742 505.271 596.671 471.998 627.462C446.816 650.766 501.925 689.705 507.181 723.695C511.312 750.406 500.518 776.596 499.23 803.555C497.551 838.684 479.249 878.473 498.364 908.188C516.604 936.542 563.291 927.505 591.197 946.52C621.866 967.418 633.327 1033.61 669.175 1024.58C716.145 1012.74 709.938 932.589 750.523 906.363C774.376 890.949 806.858 923.669 834.686 917.623C863.076 911.455 883.189 887.277 907.917 872.167C942.873 850.807 995.751 846.585 1012.21 809.148C1027.38 774.643 988.18 737.838 983.458 700.336C978.687 662.455 997.995 622.568 984.218 586.881C970.461 551.246 941.503 520.101 907.248 502.929C873.035 485.778 828.526 475.283 794.13 491.589Z" stroke="#D5E2EB" mask="url(#path-1-inside-1_1_371)"/>
<path d="M792.813 496.932C751.324 516.617 744.063 576.583 705.72 601.782C689.509 612.436 667.077 585.624 648.618 591.697C630.548 597.643 628.928 629.001 610.351 633.158C566.937 642.874 510.381 599.79 477.843 629.914C453.217 652.713 507.081 690.778 512.21 724.018C516.24 750.141 505.68 775.757 504.412 802.123C502.76 836.48 484.854 875.399 503.533 904.454C521.356 932.178 567.002 923.326 594.279 941.914C624.256 962.342 635.44 1027.08 670.489 1018.23C716.413 1006.64 710.369 928.253 750.054 902.592C773.379 887.509 805.124 919.5 832.332 913.578C860.089 907.537 879.76 883.885 903.939 869.1C938.12 848.2 989.817 844.054 1005.92 807.436C1020.76 773.686 982.449 737.702 977.844 701.027C973.191 663.981 992.08 624.966 978.622 590.068C965.184 555.222 936.882 524.771 903.399 507.988C869.956 491.224 826.445 480.974 792.813 496.932Z" stroke="#D5E2EB" mask="url(#path-1-inside-1_1_371)"/>
<path d="M791.497 502.275C750.951 521.531 743.836 580.149 706.362 604.793C690.519 615.213 668.608 589.012 650.569 594.954C632.911 600.771 631.318 631.425 613.164 635.495C570.74 645.005 515.492 602.909 483.688 632.366C459.618 654.659 512.238 691.851 517.239 724.341C521.168 749.875 510.841 774.918 509.594 800.692C507.968 834.275 490.46 872.324 508.702 900.72C526.109 927.815 570.714 919.147 597.361 937.308C626.645 957.267 637.553 1020.54 671.803 1011.88C716.68 1000.53 710.8 923.917 749.585 898.82C772.381 884.07 803.391 915.33 829.978 909.533C857.102 903.619 876.331 880.493 899.962 866.033C933.367 845.592 983.883 841.522 999.628 805.723C1014.14 772.728 976.718 737.566 972.229 701.718C967.696 665.507 986.165 627.364 973.026 593.256C959.906 559.197 932.262 529.441 899.549 513.046C866.877 496.671 824.365 486.665 791.497 502.275Z" stroke="#D5E2EB" mask="url(#path-1-inside-1_1_371)"/>
<path d="M790.18 507.617C750.577 526.444 743.609 583.715 707.004 607.805C691.528 617.989 670.139 592.399 652.52 598.211C635.273 603.9 633.707 633.848 615.977 637.83C574.543 647.137 520.602 606.028 489.533 634.817C466.019 656.606 517.395 692.923 522.267 724.664C526.096 749.608 516.002 774.079 514.776 799.259C513.177 832.071 496.066 869.25 513.871 896.985C530.861 923.451 574.425 914.967 600.442 932.701C629.034 952.191 639.665 1014 673.117 1005.53C716.947 994.433 711.23 919.58 749.116 895.048C771.384 880.63 801.656 911.16 827.623 905.488C854.115 899.701 872.901 877.1 895.984 862.965C928.614 842.983 977.949 838.991 993.337 804.011C1007.52 771.77 970.986 737.43 966.615 702.409C962.199 667.033 980.249 629.761 967.429 596.443C954.628 563.173 927.641 534.111 895.7 518.104C863.797 502.117 822.284 492.356 790.18 507.617Z" stroke="#D5E2EB" mask="url(#path-1-inside-1_1_371)"/>
<path d="M788.864 512.96C750.203 531.357 743.382 587.281 707.646 610.816C692.537 620.766 671.67 595.787 654.472 601.468C637.636 607.029 636.097 636.272 618.791 640.167C578.346 649.268 525.713 609.147 495.378 637.269C472.42 658.553 522.551 693.996 527.296 724.987C531.024 749.343 521.164 773.24 519.958 797.828C518.386 829.867 501.672 866.175 519.041 893.251C535.614 919.087 578.136 910.788 603.524 928.095C631.424 947.116 641.778 1007.47 674.431 999.185C717.214 988.331 711.661 915.244 748.648 891.277C770.387 877.19 799.923 906.99 825.269 901.442C851.128 895.782 869.472 873.708 892.006 859.898C923.861 840.376 972.015 836.46 987.047 802.298C1000.9 770.812 965.255 737.295 961.001 703.1C956.704 668.559 974.334 632.159 961.833 599.63C949.35 567.149 923.02 538.781 891.85 523.163C860.718 507.564 820.204 498.047 788.864 512.96Z" stroke="#D5E2EB" mask="url(#path-1-inside-1_1_371)"/>
<path d="M787.547 518.303C749.829 536.27 743.155 590.848 708.288 613.828C693.546 623.543 673.201 599.174 656.423 604.724C639.998 610.158 638.486 638.696 621.604 642.503C582.149 651.4 530.823 612.266 501.223 639.721C478.821 660.499 527.708 695.069 532.325 725.31C535.953 749.077 526.326 772.401 525.14 796.396C523.595 827.662 507.278 863.101 524.21 889.517C540.367 914.723 581.848 906.609 606.605 923.489C633.813 942.04 643.891 1000.93 675.745 992.837C717.482 982.229 712.092 910.908 748.179 887.506C769.389 873.751 798.189 902.821 822.915 897.397C848.14 891.864 866.042 870.316 888.028 856.831C919.108 837.768 966.081 833.929 980.756 800.586C994.282 769.854 959.524 737.159 955.387 703.791C951.208 670.085 968.419 634.557 956.237 602.818C944.073 571.125 918.4 543.452 888.001 528.222C857.639 513.01 818.123 503.739 787.547 518.303Z" stroke="#D5E2EB" mask="url(#path-1-inside-1_1_371)"/>
<path d="M786.231 523.646C749.455 541.183 742.928 594.414 708.93 616.839C694.556 626.32 674.732 602.562 658.374 607.981C642.361 613.286 640.876 641.12 624.417 644.839C585.953 653.531 535.934 615.385 507.068 642.173C485.222 662.446 532.865 696.142 537.354 725.633C540.881 748.811 531.487 771.562 530.322 794.964C528.804 825.458 512.883 860.027 529.379 885.783C545.12 910.359 585.56 902.43 609.687 918.883C636.203 936.964 646.004 994.398 677.059 986.489C717.749 976.127 712.523 906.572 747.71 883.734C768.392 870.311 796.455 898.651 820.561 893.352C845.153 887.946 862.613 866.924 884.051 853.763C914.356 835.16 960.147 831.397 974.466 798.873C987.663 768.896 953.793 737.023 949.773 704.482C945.712 671.611 962.503 636.955 950.64 606.005C938.795 575.101 913.779 548.122 884.152 533.28C854.56 518.457 816.043 509.43 786.231 523.646Z" stroke="#D5E2EB" mask="url(#path-1-inside-1_1_371)"/>
<path d="M784.914 528.989C749.081 546.096 742.701 597.98 709.571 619.85C695.565 629.097 676.263 605.949 660.325 611.238C644.723 616.415 643.265 643.543 627.23 647.175C589.755 655.662 541.044 618.504 512.913 644.624C491.623 664.392 538.021 697.214 542.382 725.956C545.809 748.545 536.648 770.723 535.504 793.532C534.012 823.253 518.489 856.952 534.548 882.048C549.872 905.995 589.271 898.25 612.768 914.276C638.592 931.889 648.116 987.862 678.373 980.141C718.016 970.025 712.953 902.236 747.241 879.962C767.394 866.872 794.721 894.482 818.206 889.307C842.166 884.028 859.183 863.531 880.072 850.696C909.602 832.551 954.213 828.866 968.175 797.161C981.044 767.938 948.061 736.887 944.158 705.172C940.216 673.136 956.588 639.353 945.044 609.192C933.517 579.076 909.158 552.792 880.302 538.339C851.481 523.903 813.962 515.121 784.914 528.989Z" stroke="#D5E2EB" mask="url(#path-1-inside-1_1_371)"/>
<path d="M783.598 534.332C748.708 551.01 742.474 601.546 710.214 622.862C696.574 631.874 677.794 609.337 662.276 614.495C647.086 619.544 645.655 645.967 630.043 649.511C593.558 657.794 546.155 621.624 518.758 647.076C498.024 666.339 543.178 698.287 547.411 726.28C550.737 748.279 541.81 769.884 540.686 792.1C539.221 821.049 524.095 853.878 539.718 878.314C554.625 901.632 592.982 894.071 615.85 909.67C640.981 926.813 650.229 981.326 679.687 973.793C718.284 963.923 713.384 897.9 746.773 876.191C766.397 863.432 792.988 890.312 815.852 885.262C839.179 880.11 855.754 860.139 876.095 847.629C904.85 829.943 948.279 826.334 961.885 795.448C974.425 766.98 942.33 736.751 938.544 705.863C934.72 674.662 950.672 641.75 939.448 612.38C928.239 583.052 904.538 557.462 876.453 543.397C848.402 529.35 811.881 520.812 783.598 534.332Z" stroke="#D5E2EB" mask="url(#path-1-inside-1_1_371)"/>
<path d="M782.281 539.674C748.334 555.923 742.247 605.112 710.856 625.874C697.584 634.651 679.325 612.724 664.228 617.751C649.449 622.673 648.045 648.391 632.857 651.847C597.362 659.925 551.265 624.743 524.603 649.528C504.425 668.286 548.335 699.36 552.44 726.603C555.665 748.013 546.972 769.045 545.868 790.668C544.43 818.844 529.701 850.803 544.887 874.58C559.378 897.268 596.694 889.892 618.932 905.064C643.371 921.738 652.342 974.79 681.001 967.445C718.551 957.821 713.815 893.563 746.304 872.42C765.399 859.992 791.254 886.142 813.498 881.217C836.192 876.192 852.324 856.747 872.117 844.561C900.097 827.336 942.345 823.803 955.594 793.736C967.806 766.023 936.599 736.615 932.93 706.554C929.224 676.189 944.757 644.148 933.851 615.567C922.961 587.028 899.917 562.132 872.603 548.456C845.323 534.796 809.801 526.503 782.281 539.674Z" stroke="#D5E2EB" mask="url(#path-1-inside-1_1_371)"/>
</svg>
